<?xml version="1.0" encoding="UTF-8"?>
<svg width="240px" height="226px" viewBox="0 0 240 226" version="1.1" xmlns="http://www.w3.org/2000/svg" xmlns:xlink="http://www.w3.org/1999/xlink">
    <!-- Generator: Sketch 42 (36781) - http://www.bohemiancoding.com/sketch -->
    <title>PEOPLE ART</title>
    <desc>Created with Sketch.</desc>
    <defs>
        <path d="M24,5.37352941 C18,5.37352941 16.5,0.255882353 16.5,0.255882353 C16.5,0.255882353 0,2.79679412 0,16.8882353 L0,52.7117647 L48,52.7117647 L48,16.8882353 C48,2.84669118 31.5,0.255882353 31.5,0.255882353 C31.5,0.255882353 30,5.37352941 24,5.37352941 Z" id="path-1"></path>
        <path d="M22.8,0 C13.6875,0 0.3,4.35511765 0.3,29.7923824 L10.8,35.8235294 L10.8,19.1911765 L28.8,10.2352941 L34.8,16.6323529 L34.8,35.8235294 L45.3,28.1470588 C45.3,22.9974265 44.289,2.55882353 28.8,2.55882353 L27.3,0 L22.8,0 Z" id="path-3"></path>
        <path d="M20.4156951,28.1470588 C20.4053069,28.2453831 20.4,28.344957 20.4,28.4455882 C20.4,30.2591939 22.1237037,31.7294118 24.25,31.7294118 C26.3762963,31.7294118 28.1,30.2591939 28.1,28.4455882 C28.1,28.344957 28.0946931,28.2453831 28.0843049,28.1470588 L20.4156951,28.1470588 Z" id="path-5"></path>
        <mask id="mask-6" maskContentUnits="userSpaceOnUse" maskUnits="objectBoundingBox" x="0" y="0" width="7.7" height="3.58235294" fill="white">
            <use xlink:href="#path-5"></use>
        </mask>
        <path d="M24,5.37352941 C18,5.37352941 16.5,0.255882353 16.5,0.255882353 C16.5,0.255882353 0,2.79679412 0,16.8882353 L0,52.7117647 L48,52.7117647 L48,16.8882353 C48,2.84669118 31.5,0.255882353 31.5,0.255882353 C31.5,0.255882353 30,5.37352941 24,5.37352941 Z" id="path-7"></path>
        <path d="M22.8,0 C13.6875,0 0.3,4.35511765 0.3,29.7923824 L10.8,35.8235294 L10.8,19.1911765 L28.8,10.2352941 L34.8,16.6323529 L34.8,35.8235294 L45.3,28.1470588 C45.3,22.9974265 44.289,2.55882353 28.8,2.55882353 L27.3,0 L22.8,0 Z" id="path-9"></path>
        <path d="M20.4156951,28.1470588 C20.4053069,28.2453831 20.4,28.344957 20.4,28.4455882 C20.4,30.2591939 22.1237037,31.7294118 24.25,31.7294118 C26.3762963,31.7294118 28.1,30.2591939 28.1,28.4455882 C28.1,28.344957 28.0946931,28.2453831 28.0843049,28.1470588 L20.4156951,28.1470588 Z" id="path-11"></path>
        <mask id="mask-12" maskContentUnits="userSpaceOnUse" maskUnits="objectBoundingBox" x="0" y="0" width="7.7" height="3.58235294" fill="white">
            <use xlink:href="#path-11"></use>
        </mask>
        <path d="M24,5.418 C18,5.418 16.5,0.258 16.5,0.258 C16.5,0.258 0,2.81994 0,17.028 L6,53.148 L42.6,53.148 L48,17.028 C48,2.87025 31.5,0.258 31.5,0.258 C31.5,0.258 30,5.418 24,5.418 Z" id="path-13"></path>
        <path d="M15,0 C5.8875,0 0,6.35325 0,14.19 L0,17.13636 L3,19.35 L3,12.9 L21,7.74 L27,12.9 L27,19.35 L30,17.10411 L30,14.19 C30,8.99775 28.443,3.85065 21,2.58 L19.5,0 L15,0 Z" id="path-15"></path>
        <path d="M24,5.502 C18,5.502 16.5,0.262 16.5,0.262 C16.5,0.262 0,2.86366 0,17.292 L6,53.972 L42.6,53.972 L48,17.292 C48,2.91475 31.5,0.262 31.5,0.262 C31.5,0.262 30,5.502 24,5.502 Z" id="path-17"></path>
        <path d="M15,0 C5.8875,0 0,6.45175 0,14.41 L0,17.40204 L3,19.65 L3,13.1 L21,7.86 L27,13.1 L27,19.65 L30,17.36929 L30,14.41 C30,9.13725 28.443,3.91035 21,2.62 L19.5,0 L15,0 Z" id="path-19"></path>
        <circle id="path-21" cx="120.5" cy="87.5" r="87.5"></circle>
        <path d="M32,6.93 C24,6.93 22,0.33 22,0.33 C22,0.33 0,3.6069 0,21.78 L8,67.98 L56.8,67.98 L64,21.78 C64,3.67125 42,0.33 42,0.33 C42,0.33 40,6.93 32,6.93 Z" id="path-23"></path>
        <path d="M20,0 C7.85,0 0,8.12625 0,18.15 L0,21.9186 L4,24.75 L4,16.5 L28,9.9 L36,16.5 L36,24.75 L40,21.87735 L40,18.15 C40,11.50875 37.924,4.92525 28,3.3 L26,0 L20,0 Z" id="path-25"></path>
        <path d="M40,8.988 C30,8.988 27.5,0.428 27.5,0.428 C27.5,0.428 0,4.67804 0,28.248 L10,88.168 L71,88.168 L80,28.248 C80,4.7615 52.5,0.428 52.5,0.428 C52.5,0.428 50,8.988 40,8.988 Z" id="path-27"></path>
        <path d="M25,0 C9.8125,0 0,10.5395 0,23.54 L0,28.42776 L5,32.1 L5,21.4 L35,12.84 L45,21.4 L45,32.1 L50,28.37426 L50,23.54 C50,14.9265 47.405,6.3879 35,4.28 L32.5,0 L25,0 Z" id="path-29"></path>
        <path d="M40,10.1294118 C30,10.1294118 27.5,0.482352941 27.5,0.482352941 C27.5,0.482352941 0,5.27211765 0,31.8352941 L0,99.3647059 L80,99.3647059 L80,31.8352941 C80,5.36617647 52.5,0.482352941 52.5,0.482352941 C52.5,0.482352941 50,10.1294118 40,10.1294118 Z" id="path-31"></path>
        <path d="M38,0 C22.8125,0 0.5,8.20964706 0.5,56.1603529 L18,67.5294118 L18,36.1764706 L48,19.2941176 L58,31.3529412 L58,67.5294118 L75.5,53.0588235 C75.5,43.3514706 73.815,4.82352941 48,4.82352941 L45.5,0 L38,0 Z" id="path-33"></path>
        <path d="M34.0261584,53.0588235 C34.0088449,53.2441704 34,53.4318731 34,53.6215686 C34,57.0403195 36.8728395,59.8117647 40.4166667,59.8117647 C43.9604938,59.8117647 46.8333333,57.0403195 46.8333333,53.6215686 C46.8333333,53.4318731 46.8244885,53.2441704 46.8071749,53.0588235 L34.0261584,53.0588235 Z" id="path-35"></path>
        <mask id="mask-36" maskContentUnits="userSpaceOnUse" maskUnits="objectBoundingBox" x="0" y="0" width="12.8333333" height="6.75294118" fill="white">
            <use xlink:href="#path-35"></use>
        </mask>
    </defs>
    <g id="Screens" stroke="none" stroke-width="1" fill="none" fill-rule="evenodd">
        <g id="00-WALKTHROUGH-1" transform="translate(-60.000000, -103.000000)">
            <g id="PEOPLE-ART" transform="translate(60.000000, 103.000000)">
                <g id="Icon-Female" transform="translate(64.250000, 10.000000)">
                    <polygon id="Rectangle-path" fill="#333333" fill-rule="nonzero" points="9.6 6.67992891 39 6.67992891 36 37.1029412 12 37.1029412"></polygon>
                    <path d="M24,42.2205882 C20.7105,42.2205882 16.5,34.5441176 16.5,34.5441176 L16.5,26.8676471 L31.5,26.8676471 L31.5,34.5441176 C31.5,34.5441176 27.288,42.2205882 24,42.2205882" id="Shape" fill="#FF9800" fill-rule="nonzero"></path>
                    <path d="M37.5,12.7941176 C37.5,3.02580882 10.5,6.43416176 10.5,12.7941176 L10.5,21.75 C10.5,28.1099559 16.542,33.2647059 24,33.2647059 C31.4565,33.2647059 37.5,28.1099559 37.5,21.75 L37.5,12.7941176 Z" id="Shape" fill="#FFB74D" fill-rule="nonzero"></path>
                    <path d="M24,43.5 C17.37,43.5 16.5,34.5441176 16.5,34.5441176 C16.5,34.5441176 20.2605,39.6617647 24,39.6617647 C27.7395,39.6617647 31.5,34.5441176 31.5,34.5441176 C31.5,34.5441176 30.63,43.5 24,43.5" id="Shape" fill="#FFB74D" fill-rule="nonzero"></path>
                    <path d="M28.5,21.75 C28.5,22.4549559 29.172,23.0294118 30,23.0294118 C30.828,23.0294118 31.5,22.4549559 31.5,21.75 C31.5,21.0450441 30.828,20.4705882 30,20.4705882 C29.172,20.4705882 28.5,21.0450441 28.5,21.75" id="Shape" fill="#784719" fill-rule="nonzero"></path>
                    <path d="M16.5,21.75 C16.5,22.4549559 17.172,23.0294118 18,23.0294118 C18.828,23.0294118 19.5,22.4549559 19.5,21.75 C19.5,21.0450441 18.828,20.4705882 18,20.4705882 C17.172,20.4705882 16.5,21.0450441 16.5,21.75" id="Shape" fill="#784719" fill-rule="nonzero"></path>
                    <path d="M24,42.2205882 C20.7105,42.2205882 16.5,34.5441176 16.5,34.5441176 L16.5,26.8676471 L31.5,26.8676471 L31.5,34.5441176 C31.5,34.5441176 27.288,42.2205882 24,42.2205882" id="Shape" fill="#FF9800" fill-rule="nonzero"></path>
                    <path d="M37.5,12.7941176 C37.5,3.02580882 10.5,6.43416176 10.5,12.7941176 L10.5,21.75 C10.5,28.1099559 16.542,33.2647059 24,33.2647059 C31.4565,33.2647059 37.5,28.1099559 37.5,21.75 L37.5,12.7941176 Z" id="Shape" fill="#FFB74D" fill-rule="nonzero"></path>
                    <path d="M24,43.5 C17.37,43.5 16.5,34.5441176 16.5,34.5441176 C16.5,34.5441176 20.2605,39.6617647 24,39.6617647 C27.7395,39.6617647 31.5,34.5441176 31.5,34.5441176 C31.5,34.5441176 30.63,43.5 24,43.5" id="Shape" fill="#FFB74D" fill-rule="nonzero"></path>
                    <path d="M28.5,21.75 C28.5,22.4549559 29.172,23.0294118 30,23.0294118 C30.828,23.0294118 31.5,22.4549559 31.5,21.75 C31.5,21.0450441 30.828,20.4705882 30,20.4705882 C29.172,20.4705882 28.5,21.0450441 28.5,21.75" id="Shape" fill="#784719" fill-rule="nonzero"></path>
                    <g id="Color-Green" stroke-width="1" fill-rule="evenodd" transform="translate(0.000000, 34.288235)">
                        <mask id="mask-2" fill="white">
                            <use xlink:href="#path-1"></use>
                        </mask>
                        <use id="Mask" fill="#4FC3F7" fill-rule="nonzero" xlink:href="#path-1"></use>
                        <g id="Color-Yellow" mask="url(#mask-2)" fill="#FFD640">
                            <g transform="translate(0.000000, 0.511765)" id="Rectangle-8">
                                <rect x="0" y="0" width="48" height="53"></rect>
                            </g>
                        </g>
                    </g>
                    <path d="M24,46.0588235 C31.119,46.0588235 33.8565,39.5146324 34.4235,35.2759412 C32.6895,34.7334706 31.5,34.5441176 31.5,34.5441176 C31.5,34.5441176 30.63,43.5 24,43.5 C17.37,43.5 16.5,34.5441176 16.5,34.5441176 C16.5,34.5441176 15.309,34.7296324 13.575,35.2682647 C14.1405,39.5056765 16.8765,46.0588235 24,46.0588235 Z" id="Shape" fill-opacity="0.400000006" fill="#333333" fill-rule="nonzero"></path>
                    <path d="M16.5,21.75 C16.5,22.4549559 17.172,23.0294118 18,23.0294118 C18.828,23.0294118 19.5,22.4549559 19.5,21.75 C19.5,21.0450441 18.828,20.4705882 18,20.4705882 C17.172,20.4705882 16.5,21.0450441 16.5,21.75" id="Shape" fill="#784719" fill-rule="nonzero"></path>
                    <path d="M37.5,12.7941176 C37.5,3.02580882 10.5,6.43416176 10.5,12.7941176 L10.5,21.75 C10.5,28.1099559 16.542,33.2647059 24,33.2647059 C31.4565,33.2647059 37.5,28.1099559 37.5,21.75 L37.5,12.7941176 Z" id="Shape" fill="#FFB74D" fill-rule="nonzero"></path>
                    <path d="M24,43.5 C17.37,43.5 16.5,34.5441176 16.5,34.5441176 C16.5,34.5441176 20.2605,39.6617647 24,39.6617647 C27.7395,39.6617647 31.5,34.5441176 31.5,34.5441176 C31.5,34.5441176 30.63,43.5 24,43.5" id="Shape" fill="#FFB74D" fill-rule="nonzero"></path>
                    <path d="M28.5,21.75 C28.5,21.0450441 29.172,20.4705882 30,20.4705882 C30.828,20.4705882 31.5,21.0450441 31.5,21.75 C31.5,22.4549559 30.828,23.0294118 30,23.0294118 C29.172,23.0294118 28.5,22.4549559 28.5,21.75 M16.5,21.75 C16.5,22.4549559 17.172,23.0294118 18,23.0294118 C18.828,23.0294118 19.5,22.4549559 19.5,21.75 C19.5,21.0450441 18.828,20.4705882 18,20.4705882 C17.172,20.4705882 16.5,21.0450441 16.5,21.75" id="Shape" fill="#784719" fill-rule="nonzero"></path>
                    <g id="Color-Red" stroke-width="1" fill-rule="evenodd" transform="translate(1.200000, 0.000000)">
                        <mask id="mask-4" fill="white">
                            <use xlink:href="#path-3"></use>
                        </mask>
                        <use id="Mask" fill="#795548" fill-rule="nonzero" xlink:href="#path-3"></use>
                        <g id="Color-Yellow" mask="url(#mask-4)" fill="#FFD640">
                            <g transform="translate(-1.200000, 0.000000)" id="Rectangle-8">
                                <rect x="0" y="0" width="48" height="36"></rect>
                            </g>
                        </g>
                    </g>
                    <g id="Combined-Shape" stroke-width="1" fill-rule="evenodd" transform="translate(19.200000, 52.200000)" fill="#666666">
                        <path d="M2.97426345,4.29730702 C2.97426345,4.46643265 2.93670999,4.62786833 2.86160195,4.7816189 C2.78649392,4.93536947 2.68284638,5.06989921 2.55065623,5.18521214 C2.41846608,5.30052507 2.26374584,5.39277403 2.08649087,5.46196178 C1.9092359,5.53114954 1.71846435,5.5657429 1.51417048,5.5657429 C1.33991983,5.5657429 1.16266752,5.54524313 0.98240823,5.50424298 C0.802148938,5.46324283 0.639918008,5.39277487 0.495710575,5.292837 C0.351503141,5.19289913 0.23283422,5.06093187 0.139700253,4.89693125 C0.0465662853,4.73293064 0,4.52537048 0,4.27424455 L0,1.26074839 C0,1.08137272 0.0360513176,0.914812102 0.108155034,0.761061529 C0.180258751,0.607310957 0.282404151,0.474062459 0.414594299,0.361312039 C0.546784446,0.248561619 0.704508961,0.160156366 0.887772575,0.0960936274 C1.07103619,0.0320308888 1.27382485,0 1.49614464,0 C1.70644715,0 1.90172512,0.0320308888 2.08198441,0.0960936274 C2.26224371,0.160156366 2.41846608,0.249842855 2.55065623,0.365155784 C2.68284638,0.480468714 2.78649392,0.618842154 2.86160195,0.780280255 C2.93670999,0.941718356 2.97426345,1.11724763 2.97426345,1.30687333 L2.97426345,1.61437294 L2.05494565,1.61437294 L2.05494565,1.35299827 C2.05494565,1.1992477 2.00387295,1.0659992 1.90172602,0.953248784 C1.79957909,0.840498364 1.66138237,0.784124 1.48713172,0.784124 C1.25880329,0.784124 1.10708733,0.844342071 1.03197929,0.964780019 C0.956871249,1.08521797 0.919317793,1.237685 0.919317793,1.42218569 L0.919317793,4.22043212 C0.919317793,4.37930771 0.959875525,4.51255621 1.04099221,4.62018161 C1.12210889,4.72780701 1.2678163,4.7816189 1.4781188,4.7816189 C1.53820524,4.7816189 1.60279718,4.77265025 1.67189657,4.75471269 C1.74099597,4.73677512 1.80408578,4.7073067 1.86116788,4.66630655 C1.91824999,4.6253064 1.96481628,4.56893203 2.00086814,4.49718176 C2.03692,4.4254315 2.05494565,4.33574501 2.05494565,4.22811961 L2.05494565,3.95905745 L2.97426345,3.95905745 L2.97426345,4.29730702 Z M7.0535892,1.33762329 C7.0535892,1.11724747 7.09865335,0.922499669 7.188783,0.753374039 C7.27891264,0.584248409 7.39758156,0.444593734 7.54479332,0.334405823 C7.69200507,0.224217913 7.85724028,0.140937602 8.04050389,0.0845623921 C8.22376751,0.0281871822 8.40853051,0 8.59479845,0 C8.78106638,0 8.96582938,0.0281871822 9.149093,0.0845623921 C9.33235661,0.140937602 9.49759182,0.224217913 9.64480357,0.334405823 C9.79201533,0.444593734 9.91068425,0.584248409 10.0008139,0.753374039 C10.0909435,0.922499669 10.1360077,1.11724747 10.1360077,1.33762329 L10.1360077,4.22811961 C10.1360077,4.45362045 10.0909435,4.64964949 10.0008139,4.81621261 C9.91068425,4.98277573 9.79201533,5.12114917 9.64480357,5.23133708 C9.49759182,5.34152499 9.33235661,5.4248053 9.149093,5.48118051 C8.96582938,5.53755572 8.78106638,5.5657429 8.59479845,5.5657429 C8.40853051,5.5657429 8.22376751,5.53755572 8.04050389,5.48118051 C7.85724028,5.4248053 7.69200507,5.34152499 7.54479332,5.23133708 C7.39758156,5.12114917 7.27891264,4.98277573 7.188783,4.81621261 C7.09865335,4.64964949 7.0535892,4.45362045 7.0535892,4.22811961 L7.0535892,1.33762329 Z M7.972907,4.22811961 C7.972907,4.41774531 8.03449467,4.55739999 8.15767185,4.64708782 C8.28084903,4.73677566 8.42655644,4.7816189 8.59479845,4.7816189 C8.76304045,4.7816189 8.90874786,4.73677566 9.03192504,4.64708782 C9.15510223,4.55739999 9.21668989,4.41774531 9.21668989,4.22811961 L9.21668989,1.33762329 C9.21668989,1.14799759 9.15510223,1.00834291 9.03192504,0.918655078 C8.90874786,0.828967244 8.76304045,0.784124 8.59479845,0.784124 C8.42655644,0.784124 8.28084903,0.828967244 8.15767185,0.918655078 C8.03449467,1.00834291 7.972907,1.14799759 7.972907,1.33762329 L7.972907,4.22811961 Z M3.5267946,0 L4.88774545,0 C5.4104974,1.58327255e-15 5.81006617,0.124279849 6.08646375,0.372843274 C6.36286133,0.6214067 6.50105805,0.968621535 6.50105805,1.4144982 L6.50105805,3.97443243 C6.50105805,4.48693434 6.35535064,4.86489883 6.06393145,5.10833723 C5.77251226,5.35177564 5.3534157,5.47349302 4.80662918,5.47349302 L3.5267946,5.47349302 L3.5267946,0 Z M4.4461124,4.73549396 L4.86971961,4.73549396 C5.12809127,4.73549396 5.31135213,4.68040083 5.41950771,4.57021292 C5.52766328,4.46002501 5.58174026,4.28705821 5.58174026,4.05130733 L5.58174026,1.4144982 C5.58174026,1.19924739 5.53066756,1.03268677 5.42852062,0.914811333 C5.32637369,0.796935894 5.14010855,0.737999059 4.86971961,0.737999059 L4.4461124,0.737999059 L4.4461124,4.73549396 Z"></path>
                    </g>
                    <use id="Combined-Shape" stroke="#F44336" mask="url(#mask-6)" stroke-width="4" stroke-linecap="round" stroke-linejoin="round" fill="#FFFFFF" fill-rule="evenodd" xlink:href="#path-5"></use>
                </g>
                <g id="Icon-Female" transform="translate(159.500000, 10.547048)">
                    <polygon id="Rectangle-path" fill="#333333" fill-rule="nonzero" points="9.6 6.67992891 39 6.67992891 36 37.1029412 12 37.1029412"></polygon>
                    <path d="M24,42.2205882 C20.7105,42.2205882 16.5,34.5441176 16.5,34.5441176 L16.5,26.8676471 L31.5,26.8676471 L31.5,34.5441176 C31.5,34.5441176 27.288,42.2205882 24,42.2205882" id="Shape" fill="#FF9800" fill-rule="nonzero"></path>
                    <path d="M37.5,12.7941176 C37.5,3.02580882 10.5,6.43416176 10.5,12.7941176 L10.5,21.75 C10.5,28.1099559 16.542,33.2647059 24,33.2647059 C31.4565,33.2647059 37.5,28.1099559 37.5,21.75 L37.5,12.7941176 Z" id="Shape" fill="#FFB74D" fill-rule="nonzero"></path>
                    <path d="M24,43.5 C17.37,43.5 16.5,34.5441176 16.5,34.5441176 C16.5,34.5441176 20.2605,39.6617647 24,39.6617647 C27.7395,39.6617647 31.5,34.5441176 31.5,34.5441176 C31.5,34.5441176 30.63,43.5 24,43.5" id="Shape" fill="#FFB74D" fill-rule="nonzero"></path>
                    <path d="M28.5,21.75 C28.5,22.4549559 29.172,23.0294118 30,23.0294118 C30.828,23.0294118 31.5,22.4549559 31.5,21.75 C31.5,21.0450441 30.828,20.4705882 30,20.4705882 C29.172,20.4705882 28.5,21.0450441 28.5,21.75" id="Shape" fill="#784719" fill-rule="nonzero"></path>
                    <path d="M16.5,21.75 C16.5,22.4549559 17.172,23.0294118 18,23.0294118 C18.828,23.0294118 19.5,22.4549559 19.5,21.75 C19.5,21.0450441 18.828,20.4705882 18,20.4705882 C17.172,20.4705882 16.5,21.0450441 16.5,21.75" id="Shape" fill="#784719" fill-rule="nonzero"></path>
                    <path d="M24,42.2205882 C20.7105,42.2205882 16.5,34.5441176 16.5,34.5441176 L16.5,26.8676471 L31.5,26.8676471 L31.5,34.5441176 C31.5,34.5441176 27.288,42.2205882 24,42.2205882" id="Shape" fill="#FF9800" fill-rule="nonzero"></path>
                    <path d="M37.5,12.7941176 C37.5,3.02580882 10.5,6.43416176 10.5,12.7941176 L10.5,21.75 C10.5,28.1099559 16.542,33.2647059 24,33.2647059 C31.4565,33.2647059 37.5,28.1099559 37.5,21.75 L37.5,12.7941176 Z" id="Shape" fill="#FFB74D" fill-rule="nonzero"></path>
                    <path d="M24,43.5 C17.37,43.5 16.5,34.5441176 16.5,34.5441176 C16.5,34.5441176 20.2605,39.6617647 24,39.6617647 C27.7395,39.6617647 31.5,34.5441176 31.5,34.5441176 C31.5,34.5441176 30.63,43.5 24,43.5" id="Shape" fill="#FFB74D" fill-rule="nonzero"></path>
                    <path d="M28.5,21.75 C28.5,22.4549559 29.172,23.0294118 30,23.0294118 C30.828,23.0294118 31.5,22.4549559 31.5,21.75 C31.5,21.0450441 30.828,20.4705882 30,20.4705882 C29.172,20.4705882 28.5,21.0450441 28.5,21.75" id="Shape" fill="#784719" fill-rule="nonzero"></path>
                    <g id="Color-Green" stroke-width="1" fill-rule="evenodd" transform="translate(0.000000, 34.288235)">
                        <mask id="mask-8" fill="white">
                            <use xlink:href="#path-7"></use>
                        </mask>
                        <use id="Mask" fill="#4FC3F7" fill-rule="nonzero" xlink:href="#path-7"></use>
                        <g id="Color-Yellow" mask="url(#mask-8)" fill="#FFD640">
                            <g transform="translate(0.000000, 0.511765)" id="Rectangle-8">
                                <rect x="0" y="0" width="48" height="53"></rect>
                            </g>
                        </g>
                    </g>
                    <path d="M24,46.0588235 C31.119,46.0588235 33.8565,39.5146324 34.4235,35.2759412 C32.6895,34.7334706 31.5,34.5441176 31.5,34.5441176 C31.5,34.5441176 30.63,43.5 24,43.5 C17.37,43.5 16.5,34.5441176 16.5,34.5441176 C16.5,34.5441176 15.309,34.7296324 13.575,35.2682647 C14.1405,39.5056765 16.8765,46.0588235 24,46.0588235 Z" id="Shape" fill-opacity="0.400000006" fill="#333333" fill-rule="nonzero"></path>
                    <path d="M16.5,21.75 C16.5,22.4549559 17.172,23.0294118 18,23.0294118 C18.828,23.0294118 19.5,22.4549559 19.5,21.75 C19.5,21.0450441 18.828,20.4705882 18,20.4705882 C17.172,20.4705882 16.5,21.0450441 16.5,21.75" id="Shape" fill="#784719" fill-rule="nonzero"></path>
                    <path d="M37.5,12.7941176 C37.5,3.02580882 10.5,6.43416176 10.5,12.7941176 L10.5,21.75 C10.5,28.1099559 16.542,33.2647059 24,33.2647059 C31.4565,33.2647059 37.5,28.1099559 37.5,21.75 L37.5,12.7941176 Z" id="Shape" fill="#FFB74D" fill-rule="nonzero"></path>
                    <path d="M24,43.5 C17.37,43.5 16.5,34.5441176 16.5,34.5441176 C16.5,34.5441176 20.2605,39.6617647 24,39.6617647 C27.7395,39.6617647 31.5,34.5441176 31.5,34.5441176 C31.5,34.5441176 30.63,43.5 24,43.5" id="Shape" fill="#FFB74D" fill-rule="nonzero"></path>
                    <path d="M28.5,21.75 C28.5,21.0450441 29.172,20.4705882 30,20.4705882 C30.828,20.4705882 31.5,21.0450441 31.5,21.75 C31.5,22.4549559 30.828,23.0294118 30,23.0294118 C29.172,23.0294118 28.5,22.4549559 28.5,21.75 M16.5,21.75 C16.5,22.4549559 17.172,23.0294118 18,23.0294118 C18.828,23.0294118 19.5,22.4549559 19.5,21.75 C19.5,21.0450441 18.828,20.4705882 18,20.4705882 C17.172,20.4705882 16.5,21.0450441 16.5,21.75" id="Shape" fill="#784719" fill-rule="nonzero"></path>
                    <g id="Color-Red" stroke-width="1" fill-rule="evenodd" transform="translate(1.200000, 0.000000)">
                        <mask id="mask-10" fill="white">
                            <use xlink:href="#path-9"></use>
                        </mask>
                        <use id="Mask" fill="#795548" fill-rule="nonzero" xlink:href="#path-9"></use>
                        <g id="Color-Black" mask="url(#mask-10)" fill="#424242">
                            <g transform="translate(-1.200000, 0.000000)" id="Rectangle-8">
                                <rect x="0" y="0" width="48" height="36"></rect>
                            </g>
                        </g>
                    </g>
                    <g id="Combined-Shape" stroke-width="1" fill-rule="evenodd" transform="translate(19.200000, 52.200000)" fill="#666666">
                        <path d="M2.97426345,4.29730702 C2.97426345,4.46643265 2.93670999,4.62786833 2.86160195,4.7816189 C2.78649392,4.93536947 2.68284638,5.06989921 2.55065623,5.18521214 C2.41846608,5.30052507 2.26374584,5.39277403 2.08649087,5.46196178 C1.9092359,5.53114954 1.71846435,5.5657429 1.51417048,5.5657429 C1.33991983,5.5657429 1.16266752,5.54524313 0.98240823,5.50424298 C0.802148938,5.46324283 0.639918008,5.39277487 0.495710575,5.292837 C0.351503141,5.19289913 0.23283422,5.06093187 0.139700253,4.89693125 C0.0465662853,4.73293064 0,4.52537048 0,4.27424455 L0,1.26074839 C0,1.08137272 0.0360513176,0.914812102 0.108155034,0.761061529 C0.180258751,0.607310957 0.282404151,0.474062459 0.414594299,0.361312039 C0.546784446,0.248561619 0.704508961,0.160156366 0.887772575,0.0960936274 C1.07103619,0.0320308888 1.27382485,0 1.49614464,0 C1.70644715,0 1.90172512,0.0320308888 2.08198441,0.0960936274 C2.26224371,0.160156366 2.41846608,0.249842855 2.55065623,0.365155784 C2.68284638,0.480468714 2.78649392,0.618842154 2.86160195,0.780280255 C2.93670999,0.941718356 2.97426345,1.11724763 2.97426345,1.30687333 L2.97426345,1.61437294 L2.05494565,1.61437294 L2.05494565,1.35299827 C2.05494565,1.1992477 2.00387295,1.0659992 1.90172602,0.953248784 C1.79957909,0.840498364 1.66138237,0.784124 1.48713172,0.784124 C1.25880329,0.784124 1.10708733,0.844342071 1.03197929,0.964780019 C0.956871249,1.08521797 0.919317793,1.237685 0.919317793,1.42218569 L0.919317793,4.22043212 C0.919317793,4.37930771 0.959875525,4.51255621 1.04099221,4.62018161 C1.12210889,4.72780701 1.2678163,4.7816189 1.4781188,4.7816189 C1.53820524,4.7816189 1.60279718,4.77265025 1.67189657,4.75471269 C1.74099597,4.73677512 1.80408578,4.7073067 1.86116788,4.66630655 C1.91824999,4.6253064 1.96481628,4.56893203 2.00086814,4.49718176 C2.03692,4.4254315 2.05494565,4.33574501 2.05494565,4.22811961 L2.05494565,3.95905745 L2.97426345,3.95905745 L2.97426345,4.29730702 Z M7.0535892,1.33762329 C7.0535892,1.11724747 7.09865335,0.922499669 7.188783,0.753374039 C7.27891264,0.584248409 7.39758156,0.444593734 7.54479332,0.334405823 C7.69200507,0.224217913 7.85724028,0.140937602 8.04050389,0.0845623921 C8.22376751,0.0281871822 8.40853051,0 8.59479845,0 C8.78106638,0 8.96582938,0.0281871822 9.149093,0.0845623921 C9.33235661,0.140937602 9.49759182,0.224217913 9.64480357,0.334405823 C9.79201533,0.444593734 9.91068425,0.584248409 10.0008139,0.753374039 C10.0909435,0.922499669 10.1360077,1.11724747 10.1360077,1.33762329 L10.1360077,4.22811961 C10.1360077,4.45362045 10.0909435,4.64964949 10.0008139,4.81621261 C9.91068425,4.98277573 9.79201533,5.12114917 9.64480357,5.23133708 C9.49759182,5.34152499 9.33235661,5.4248053 9.149093,5.48118051 C8.96582938,5.53755572 8.78106638,5.5657429 8.59479845,5.5657429 C8.40853051,5.5657429 8.22376751,5.53755572 8.04050389,5.48118051 C7.85724028,5.4248053 7.69200507,5.34152499 7.54479332,5.23133708 C7.39758156,5.12114917 7.27891264,4.98277573 7.188783,4.81621261 C7.09865335,4.64964949 7.0535892,4.45362045 7.0535892,4.22811961 L7.0535892,1.33762329 Z M7.972907,4.22811961 C7.972907,4.41774531 8.03449467,4.55739999 8.15767185,4.64708782 C8.28084903,4.73677566 8.42655644,4.7816189 8.59479845,4.7816189 C8.76304045,4.7816189 8.90874786,4.73677566 9.03192504,4.64708782 C9.15510223,4.55739999 9.21668989,4.41774531 9.21668989,4.22811961 L9.21668989,1.33762329 C9.21668989,1.14799759 9.15510223,1.00834291 9.03192504,0.918655078 C8.90874786,0.828967244 8.76304045,0.784124 8.59479845,0.784124 C8.42655644,0.784124 8.28084903,0.828967244 8.15767185,0.918655078 C8.03449467,1.00834291 7.972907,1.14799759 7.972907,1.33762329 L7.972907,4.22811961 Z M3.5267946,0 L4.88774545,0 C5.4104974,1.58327255e-15 5.81006617,0.124279849 6.08646375,0.372843274 C6.36286133,0.6214067 6.50105805,0.968621535 6.50105805,1.4144982 L6.50105805,3.97443243 C6.50105805,4.48693434 6.35535064,4.86489883 6.06393145,5.10833723 C5.77251226,5.35177564 5.3534157,5.47349302 4.80662918,5.47349302 L3.5267946,5.47349302 L3.5267946,0 Z M4.4461124,4.73549396 L4.86971961,4.73549396 C5.12809127,4.73549396 5.31135213,4.68040083 5.41950771,4.57021292 C5.52766328,4.46002501 5.58174026,4.28705821 5.58174026,4.05130733 L5.58174026,1.4144982 C5.58174026,1.19924739 5.53066756,1.03268677 5.42852062,0.914811333 C5.32637369,0.796935894 5.14010855,0.737999059 4.86971961,0.737999059 L4.4461124,0.737999059 L4.4461124,4.73549396 Z"></path>
                    </g>
                    <use id="Combined-Shape" stroke="#F44336" mask="url(#mask-12)" stroke-width="4" stroke-linecap="round" stroke-linejoin="round" fill="#FFFFFF" fill-rule="evenodd" xlink:href="#path-11"></use>
                </g>
                <g id="Icon-Male" transform="translate(118.250000, -0.000000)">
                    <g id="Remera" stroke-width="1" fill-rule="evenodd" transform="translate(0.000000, 34.572000)">
                        <mask id="mask-14" fill="white">
                            <use xlink:href="#path-13"></use>
                        </mask>
                        <use id="Mask" fill="#4FC3F7" fill-rule="nonzero" xlink:href="#path-13"></use>
                        <g id="Color-Yellow" mask="url(#mask-14)" fill="#FFD640">
                            <g transform="translate(0.000000, -2.064000)" id="Rectangle-8">
                                <rect x="0" y="0" width="48" height="55"></rect>
                            </g>
                        </g>
                    </g>
                    <path d="M16.5,34.83 L16.5,27.09 L31.5,27.09 L31.5,34.83 C31.4999323,34.830233 29.9998645,39.99 24,39.99 C18,39.99 16.5,34.83 16.5,34.83 Z" id="Combined-Shape" fill="#FF9800" fill-rule="nonzero"></path>
                    <g id="Group" stroke-width="1" fill-rule="evenodd" transform="translate(7.800000, 17.028000)" fill="#FFA726">
                        <path d="M33,2.58 C33,4.00545 31.6575,5.16 30,5.16 C28.3425,5.16 27,4.00545 27,2.58 C27,1.15455 28.3425,0 30,0 C31.6575,0 33,1.15455 33,2.58" id="Shape" fill-rule="nonzero"></path>
                        <path d="M6,2.58 C6,4.00545 4.6575,5.16 3,5.16 C1.3425,5.16 0,4.00545 0,2.58 C0,1.15455 1.3425,0 3,0 C4.6575,0 6,1.15455 6,2.58" id="Shape" fill-rule="nonzero"></path>
                    </g>
                    <path d="M37.5,11.61 C37.5,1.76085 10.5,5.19741 10.5,11.61 L10.5,20.64 C10.5,27.05259 16.5435,32.25 24,32.25 C31.4565,32.25 37.5,27.05259 37.5,20.64 L37.5,11.61 Z" id="Shape" fill="#FFB74D" fill-rule="nonzero"></path>
                    <g id="Color-Red" stroke-width="1" fill-rule="evenodd" transform="translate(9.000000, 0.000000)">
                        <mask id="mask-16" fill="white">
                            <use xlink:href="#path-15"></use>
                        </mask>
                        <use id="Mask" fill="#424242" fill-rule="nonzero" xlink:href="#path-15"></use>
                        <g mask="url(#mask-16)" id="Rectangle-8" fill="#F44336">
                            <g transform="translate(-1.200000, 0.000000)">
                                <rect x="0" y="0" width="33" height="20"></rect>
                            </g>
                        </g>
                    </g>
                    <g id="Group" stroke-width="1" fill-rule="evenodd" transform="translate(16.500000, 18.060000)" fill="#784719">
                        <path d="M12,1.29 C12,2.00208 12.672,2.58 13.5,2.58 C14.328,2.58 15,2.00208 15,1.29 C15,0.57792 14.328,0 13.5,0 C12.672,0 12,0.57792 12,1.29" id="Shape" fill-rule="nonzero"></path>
                        <path d="M0,1.29 C0,2.00208 0.672,2.58 1.5,2.58 C2.328,2.58 3,2.00208 3,1.29 C3,0.57792 2.328,0 1.5,0 C0.672,0 0,0.57792 0,1.29" id="Shape" fill-rule="nonzero"></path>
                    </g>
                    <path d="M24,42.57 C31.5,42.57 34.1175,37.5003 34.4265,35.56788 C32.691,35.02092 31.5,34.83 31.5,34.83 C31.5,34.83 30,39.99 24,39.99 C18,39.99 16.5,34.83 16.5,34.83 C16.5,34.83 15.309,35.01834 13.572,35.56014 C13.878,37.48869 16.5,42.57 24,42.57 Z" id="Shape" fill-opacity="0.400000006" fill="#333333" fill-rule="nonzero"></path>
                    <path d="M21.5212248,54.1496776 C21.5212248,54.3515621 21.4767653,54.5442672 21.387845,54.7277987 C21.2989248,54.9113301 21.1762167,55.0719177 21.019717,55.2095662 C20.8632173,55.3472148 20.6800443,55.457332 20.4701925,55.5399211 C20.2603407,55.6225103 20.0344866,55.6638042 19.7926235,55.6638042 C19.5863285,55.6638042 19.3764798,55.6393337 19.1630712,55.590392 C18.9496626,55.5414503 18.7575977,55.457333 18.5868708,55.3380376 C18.4161439,55.2187422 18.275652,55.0612134 18.1653909,54.8654465 C18.0551297,54.6696797 18,54.421916 18,54.122148 L18,50.5249501 C18,50.3108301 18.0426811,50.1120074 18.1280445,49.928476 C18.213408,49.7449446 18.3343377,49.5858864 18.4908374,49.4512967 C18.6473371,49.316707 18.8340668,49.211178 19.0510322,49.1347066 C19.2679977,49.0582351 19.5080788,49.02 19.7712828,49.02 C20.0202595,49.02 20.2514487,49.0582351 20.4648573,49.1347066 C20.678266,49.211178 20.8632173,49.3182364 21.019717,49.4558849 C21.1762167,49.5935335 21.2989248,49.7587093 21.387845,49.9514173 C21.4767653,50.1441253 21.5212248,50.3536539 21.5212248,50.5800093 L21.5212248,50.9470703 L20.4328462,50.9470703 L20.4328462,50.6350684 C20.4328462,50.451537 20.3723813,50.2924788 20.2514498,50.1578891 C20.1305182,50.0232994 19.9669074,49.9560056 19.7606124,49.9560056 C19.4902948,49.9560056 19.3106786,50.0278876 19.2217583,50.1716539 C19.132838,50.3154202 19.0883786,50.4974195 19.0883786,50.7176572 L19.0883786,54.0579123 C19.0883786,54.2475615 19.1363948,54.4066196 19.2324287,54.5350916 C19.3284626,54.6635636 19.5009653,54.7277987 19.749942,54.7277987 C19.8210782,54.7277987 19.8975485,54.7170928 19.9793551,54.6956808 C20.0611618,54.6742688 20.1358537,54.6390925 20.2034331,54.5901508 C20.2710125,54.5412091 20.3261422,54.4739152 20.3688239,54.3882672 C20.4115057,54.3026192 20.4328462,54.1955608 20.4328462,54.0670888 L20.4328462,53.7459105 L21.5212248,53.7459105 L21.5212248,54.1496776 Z M26.3507307,50.6167154 C26.3507307,50.3536537 26.404082,50.121184 26.5107864,49.9192995 C26.6174907,49.7174149 26.7579826,49.5507097 26.9322663,49.4191788 C27.10655,49.287648 27.3021717,49.1882366 27.5191371,49.1209418 C27.7361025,49.0536469 27.9548431,49.02 28.1753653,49.02 C28.3958876,49.02 28.6146282,49.0536469 28.8315936,49.1209418 C29.048559,49.1882366 29.2441807,49.287648 29.4184644,49.4191788 C29.5927481,49.5507097 29.73324,49.7174149 29.8399443,49.9192995 C29.9466486,50.121184 30,50.3536537 30,50.6167154 L30,54.0670888 C30,54.3362683 29.9466486,54.5702673 29.8399443,54.769093 C29.73324,54.9679187 29.5927481,55.1330945 29.4184644,55.2646254 C29.2441807,55.3961562 29.048559,55.4955676 28.8315936,55.5628624 C28.6146282,55.6301573 28.3958876,55.6638042 28.1753653,55.6638042 C27.9548431,55.6638042 27.7361025,55.6301573 27.5191371,55.5628624 C27.3021717,55.4955676 27.10655,55.3961562 26.9322663,55.2646254 C26.7579826,55.1330945 26.6174907,54.9679187 26.5107864,54.769093 C26.404082,54.5702673 26.3507307,54.3362683 26.3507307,54.0670888 L26.3507307,50.6167154 Z M27.4391093,54.0670888 C27.4391093,54.2934443 27.5120228,54.4601495 27.657852,54.5672095 C27.8036812,54.6742695 27.976184,54.7277987 28.1753653,54.7277987 C28.3745467,54.7277987 28.5470495,54.6742695 28.6928787,54.5672095 C28.8387079,54.4601495 28.9116214,54.2934443 28.9116214,54.0670888 L28.9116214,50.6167154 C28.9116214,50.39036 28.8387079,50.2236548 28.6928787,50.1165948 C28.5470495,50.0095348 28.3745467,49.9560056 28.1753653,49.9560056 C27.976184,49.9560056 27.8036812,50.0095348 27.657852,50.1165948 C27.5120228,50.2236548 27.4391093,50.39036 27.4391093,50.6167154 L27.4391093,54.0670888 Z M22.1753653,49.02 L23.7865924,49.02 C24.4054775,49.02 24.8785262,49.1683523 25.2057527,49.4650615 C25.5329793,49.7617706 25.6965901,50.1762395 25.6965901,50.7084806 L25.6965901,53.7642635 C25.6965901,54.3760349 25.5240874,54.8272096 25.1790768,55.117801 C24.8340662,55.4083924 24.3378985,55.5536859 23.690559,55.5536859 L22.1753653,55.5536859 L22.1753653,49.02 Z M23.2637439,54.6727395 L23.7652517,54.6727395 C24.0711374,54.6727395 24.2880996,54.6069751 24.4161447,54.4754442 C24.5441899,54.3439134 24.6082116,54.1374436 24.6082116,53.8560288 L24.6082116,50.7084806 C24.6082116,50.4515366 24.5477467,50.2527139 24.4268151,50.1120065 C24.3058836,49.9712991 24.0853646,49.9009464 23.7652517,49.9009464 L23.2637439,49.9009464 L23.2637439,54.6727395 Z" id="Combined-Shape" fill="#666666" fill-rule="evenodd"></path>
                    <path d="M20.9124337,26.832 C20.9042042,26.9028128 20.9,26.9745257 20.9,27.047 C20.9,28.3531534 22.2655315,29.412 23.95,29.412 C25.6344685,29.412 27,28.3531534 27,27.047 C27,26.9745257 26.9957958,26.9028128 26.9875663,26.832 L20.9124337,26.832 Z" id="Combined-Shape" fill="#FFFFFF" fill-rule="evenodd"></path>
                    <g id="Group" stroke-width="1" fill-rule="evenodd" transform="translate(0.000000, 87.720000)">
                        <polygon id="Shape" fill="#1565C0" fill-rule="nonzero" points="6.11817143 0 42.5675429 0 44.0504286 3.48914286 4.76714286 3.48914286"></polygon>
                        <g transform="translate(8.114286, 0.000000)" fill-rule="nonzero" id="Rectangle-path" fill="#64B5F6">
                            <rect x="0" y="0" width="4.05714286" height="3.48914286"></rect>
                            <rect x="28.4" y="0" width="4.05714286" height="3.48914286"></rect>
                        </g>
                        <path d="M4.75497143,3.48914286 C-2.97997143,17.3916326 8.11428571,73.272 8.11428571,73.272 L18.2571429,73.272 L24.3428571,19.1902857 L30.4285714,73.272 L40.5714286,73.272 C40.5714286,73.272 51.6961143,15.5109846 43.8678571,3.48914286 L4.75497143,3.48914286 Z" id="Shape" fill="#64B5F6" fill-rule="nonzero"></path>
                        <ellipse id="Oval" fill="#FFC107" fill-rule="nonzero" cx="24.3428571" cy="1.74457143" rx="2.02857143" ry="1.74457143"></ellipse>
                        <g transform="translate(2.028571, 3.489143)" id="Shape" fill-rule="nonzero" fill="#1E88E5">
                            <path d="M20.2857143,10.4674286 L20.2857143,0 L24.3428571,0 L24.3428571,8.14191486 C24.3428571,8.14191486 24.3428571,10.4674286 20.2857143,10.4674286 Z"></path>
                            <path d="M14.2,0 L2.7264,0 C2.7264,0 0.1278,5.23371429 0.1278,12.2102554 C10.2199429,12.2102554 14.2,0 14.2,0 Z"></path>
                            <path d="M30.4285714,0 L42.0462,0 C42.0462,0 44.2451714,3.84154629 44.5210571,12.2102554 C34.4268857,12.2102554 30.4285714,0 30.4285714,0 Z"></path>
                        </g>
                    </g>
                </g>
                <g id="Icon-Male" transform="translate(32.000000, 34.000000)">
                    <g id="Remera" stroke-width="1" fill-rule="evenodd" transform="translate(0.000000, 35.108000)">
                        <mask id="mask-18" fill="white">
                            <use xlink:href="#path-17"></use>
                        </mask>
                        <use id="Mask" fill="#4FC3F7" fill-rule="nonzero" xlink:href="#path-17"></use>
                        <g id="Color-Yellow" mask="url(#mask-18)" fill="#FFD640">
                            <g transform="translate(0.000000, -2.096000)" id="Rectangle-8">
                                <rect x="0" y="0" width="48" height="56"></rect>
                            </g>
                        </g>
                    </g>
                    <path d="M31.5,35.37 L31.5,27.51 L16.5,27.51 L16.5,35.37 C16.5,35.37 16.5,43.23 24,43.23 C31.4995282,43.23 31.5,35.370989 31.5,35.3700001 C31.4999998,35.3700006 31.5,35.37 31.5,35.37 C31.5,35.37 32.691,35.56388 34.4265,36.11932 C34.1175,38.0817 31.5,43.23 24,43.23 C16.5,43.23 13.878,38.06991 13.572,36.11146 C15.309,35.56126 16.5,35.37 16.5,35.37 C16.5,35.37 18,40.61 24,40.61 C29.998032,40.61 31.4990155,35.3734369 31.4999995,35.3700017 Z" id="Combined-Shape" fill="#FF9800" fill-rule="nonzero"></path>
                    <g id="Group" stroke-width="1" fill-rule="evenodd" transform="translate(7.800000, 17.292000)" fill="#FFA726">
                        <path d="M33,2.62 C33,4.06755 31.6575,5.24 30,5.24 C28.3425,5.24 27,4.06755 27,2.62 C27,1.17245 28.3425,0 30,0 C31.6575,0 33,1.17245 33,2.62" id="Shape" fill-rule="nonzero"></path>
                        <path d="M6,2.62 C6,4.06755 4.6575,5.24 3,5.24 C1.3425,5.24 0,4.06755 0,2.62 C0,1.17245 1.3425,0 3,0 C4.6575,0 6,1.17245 6,2.62" id="Shape" fill-rule="nonzero"></path>
                    </g>
                    <path d="M37.5,11.79 C37.5,1.78815 10.5,5.27799 10.5,11.79 L10.5,20.96 C10.5,27.47201 16.5435,32.75 24,32.75 C31.4565,32.75 37.5,27.47201 37.5,20.96 L37.5,11.79 Z" id="Shape" fill="#FFB74D" fill-rule="nonzero"></path>
                    <g id="Color-Red" stroke-width="1" fill-rule="evenodd" transform="translate(9.000000, 0.000000)">
                        <mask id="mask-20" fill="white">
                            <use xlink:href="#path-19"></use>
                        </mask>
                        <use id="Mask" fill="#424242" fill-rule="nonzero" xlink:href="#path-19"></use>
                        <g id="Color-Black" mask="url(#mask-20)" fill="#424242">
                            <g transform="translate(-1.200000, 0.000000)" id="Rectangle-8">
                                <rect x="0" y="0" width="33" height="20"></rect>
                            </g>
                        </g>
                    </g>
                    <g id="Group" stroke-width="1" fill-rule="evenodd" transform="translate(16.500000, 18.340000)" fill="#784719">
                        <path d="M12,1.31 C12,2.03312 12.672,2.62 13.5,2.62 C14.328,2.62 15,2.03312 15,1.31 C15,0.58688 14.328,0 13.5,0 C12.672,0 12,0.58688 12,1.31" id="Shape" fill-rule="nonzero"></path>
                        <path d="M0,1.31 C0,2.03312 0.672,2.62 1.5,2.62 C2.328,2.62 3,2.03312 3,1.31 C3,0.58688 2.328,0 1.5,0 C0.672,0 0,0.58688 0,1.31" id="Shape" fill-rule="nonzero"></path>
                    </g>
                    <path d="M24,43.23 C31.5,43.23 34.1175,38.0817 34.4265,36.11932 C32.691,35.56388 31.5,35.37 31.5,35.37 C31.5,35.37 30,40.61 24,40.61 C18,40.61 16.5,35.37 16.5,35.37 C16.5,35.37 15.309,35.56126 13.572,36.11146 C13.878,38.06991 16.5,43.23 24,43.23 Z" id="Shape" fill-opacity="0.400000006" fill="#333333" fill-rule="nonzero"></path>
                    <path d="M21.5212248,54.9892075 C21.5212248,55.194222 21.4767653,55.3899148 21.387845,55.5762917 C21.2989248,55.7626685 21.1762167,55.9257458 21.019717,56.0655285 C20.8632173,56.2053111 20.6800443,56.3171356 20.4701925,56.4010052 C20.2603407,56.4848748 20.0344866,56.5268089 19.7926235,56.5268089 C19.5863285,56.5268089 19.3764798,56.5019591 19.1630712,56.4522586 C18.9496626,56.4025581 18.7575977,56.3171366 18.5868708,56.1959916 C18.4161439,56.0748467 18.275652,55.9148756 18.1653909,55.7160736 C18.0551297,55.5172716 18,55.2656666 18,54.9612511 L18,51.3082827 C18,51.090843 18.0426811,50.8889378 18.1280445,50.7025609 C18.213408,50.516184 18.3343377,50.3546598 18.4908374,50.2179835 C18.6473371,50.0813071 18.8340668,49.974142 19.0510322,49.896485 C19.2679977,49.8188279 19.5080788,49.78 19.7712828,49.78 C20.0202595,49.78 20.2514487,49.8188279 20.4648573,49.896485 C20.678266,49.974142 20.8632173,50.0828602 21.019717,50.2226429 C21.1762167,50.3624255 21.2989248,50.5301622 21.387845,50.7258579 C21.4767653,50.9215536 21.5212248,51.1343307 21.5212248,51.3641955 L21.5212248,51.7369473 L20.4328462,51.7369473 L20.4328462,51.4201083 C20.4328462,51.2337314 20.3723813,51.0722072 20.2514498,50.9355308 C20.1305182,50.7988544 19.9669074,50.7305173 19.7606124,50.7305173 C19.4902948,50.7305173 19.3106786,50.8035138 19.2217583,50.949509 C19.132838,51.0955042 19.0883786,51.2803252 19.0883786,51.5039774 L19.0883786,54.8960195 C19.0883786,55.0886089 19.1363948,55.2501331 19.2324287,55.3805969 C19.3284626,55.5110607 19.5009653,55.5762917 19.749942,55.5762917 C19.8210782,55.5762917 19.8975485,55.5654198 19.9793551,55.5436759 C20.0611618,55.5219319 20.1358537,55.4862102 20.2034331,55.4365097 C20.2710125,55.3868092 20.3261422,55.318472 20.3688239,55.2314962 C20.4115057,55.1445203 20.4328462,55.0358021 20.4328462,54.9053383 L20.4328462,54.5791804 L21.5212248,54.5791804 L21.5212248,54.9892075 Z M26.3507307,51.4014707 C26.3507307,51.1343305 26.404082,50.8982567 26.5107864,50.6932421 C26.6174907,50.4882275 26.7579826,50.3189378 26.9322663,50.1853677 C27.10655,50.0517976 27.3021717,49.950845 27.5191371,49.8825068 C27.7361025,49.8141686 27.9548431,49.78 28.1753653,49.78 C28.3958876,49.78 28.6146282,49.8141686 28.8315936,49.8825068 C29.048559,49.950845 29.2441807,50.0517976 29.4184644,50.1853677 C29.5927481,50.3189378 29.73324,50.4882275 29.8399443,50.6932421 C29.9466486,50.8982567 30,51.1343305 30,51.4014707 L30,54.9053383 C30,55.178691 29.9466486,55.416318 29.8399443,55.6182262 C29.73324,55.8201345 29.5927481,55.9878712 29.4184644,56.1214413 C29.2441807,56.2550114 29.048559,56.355964 28.8315936,56.4243022 C28.6146282,56.4926404 28.3958876,56.5268089 28.1753653,56.5268089 C27.9548431,56.5268089 27.7361025,56.4926404 27.5191371,56.4243022 C27.3021717,56.355964 27.10655,56.2550114 26.9322663,56.1214413 C26.7579826,55.9878712 26.6174907,55.8201345 26.5107864,55.6182262 C26.404082,55.416318 26.3507307,55.178691 26.3507307,54.9053383 L26.3507307,51.4014707 Z M27.4391093,54.9053383 C27.4391093,55.1352031 27.5120228,55.3044929 27.657852,55.4132127 C27.8036812,55.5219326 27.976184,55.5762917 28.1753653,55.5762917 C28.3745467,55.5762917 28.5470495,55.5219326 28.6928787,55.4132127 C28.8387079,55.3044929 28.9116214,55.1352031 28.9116214,54.9053383 L28.9116214,51.4014707 C28.9116214,51.1716059 28.8387079,51.0023161 28.6928787,50.8935962 C28.5470495,50.7848764 28.3745467,50.7305173 28.1753653,50.7305173 C27.976184,50.7305173 27.8036812,50.7848764 27.657852,50.8935962 C27.5120228,51.0023161 27.4391093,51.1716059 27.4391093,51.4014707 L27.4391093,54.9053383 Z M22.1753653,49.78 L23.7865924,49.78 C24.4054775,49.78 24.8785262,49.9306524 25.2057527,50.2319616 C25.5329793,50.5332709 25.6965901,50.9541657 25.6965901,51.4946586 L25.6965901,54.597818 C25.6965901,55.2190742 25.5240874,55.6772438 25.1790768,55.9723405 C24.8340662,56.2674372 24.3378985,56.4149834 23.690559,56.4149834 L22.1753653,56.4149834 L22.1753653,49.78 Z M23.2637439,55.5203789 L23.7652517,55.5203789 C24.0711374,55.5203789 24.2880996,55.4535948 24.4161447,55.3200247 C24.5441899,55.1864547 24.6082116,54.9767838 24.6082116,54.691006 L24.6082116,51.4946586 C24.6082116,51.233731 24.5477467,51.0318258 24.4268151,50.8889368 C24.3058836,50.7460479 24.0853646,50.6746045 23.7652517,50.6746045 L23.2637439,50.6746045 L23.2637439,55.5203789 Z" id="Combined-Shape" fill="#666666" fill-rule="evenodd"></path>
                    <path d="M20.9124337,27.248 C20.9042042,27.3199107 20.9,27.3927354 20.9,27.4663333 C20.9,28.7927372 22.2655315,29.868 23.95,29.868 C25.6344685,29.868 27,28.7927372 27,27.4663333 C27,27.3927354 26.9957958,27.3199107 26.9875663,27.248 L20.9124337,27.248 Z" id="Combined-Shape" fill="#FFFFFF" fill-rule="evenodd"></path>
                    <g id="Group" stroke-width="1" fill-rule="evenodd" transform="translate(0.000000, 89.080000)">
                        <polygon id="Shape" fill="#1565C0" fill-rule="nonzero" points="6.11817143 0 42.5675429 0 44.0504286 3.5432381 4.76714286 3.5432381"></polygon>
                        <g transform="translate(8.114286, 0.000000)" fill-rule="nonzero" id="Rectangle-path" fill="#64B5F6">
                            <rect x="0" y="0" width="4.05714286" height="3.5432381"></rect>
                            <rect x="28.4" y="0" width="4.05714286" height="3.5432381"></rect>
                        </g>
                        <path d="M4.75497143,3.5432381 C-2.97997143,17.6612703 8.11428571,74.408 8.11428571,74.408 L18.2571429,74.408 L24.3428571,19.4878095 L30.4285714,74.408 L40.5714286,74.408 C40.5714286,74.408 51.6961143,15.751465 43.8678571,3.5432381 L4.75497143,3.5432381 Z" id="Shape" fill="#64B5F6" fill-rule="nonzero"></path>
                        <ellipse id="Oval" fill="#FFC107" fill-rule="nonzero" cx="24.3428571" cy="1.77161905" rx="2.02857143" ry="1.77161905"></ellipse>
                        <g transform="translate(2.028571, 3.543238)" id="Shape" fill-rule="nonzero" fill="#1E88E5">
                            <path d="M20.2857143,10.6297143 L20.2857143,0 L24.3428571,0 L24.3428571,8.2681461 C24.3428571,8.2681461 24.3428571,10.6297143 20.2857143,10.6297143 Z"></path>
                            <path d="M14.2,0 L2.7264,0 C2.7264,0 0.1278,5.31485714 0.1278,12.3995617 C10.2199429,12.3995617 14.2,0 14.2,0 Z"></path>
                            <path d="M30.4285714,0 L42.0462,0 C42.0462,0 44.2451714,3.90110514 44.5210571,12.3995617 C34.4268857,12.3995617 30.4285714,0 30.4285714,0 Z"></path>
                        </g>
                    </g>
                </g>
                <g id="Icon-Male-+-Icon-Female-Mask" transform="translate(0.000000, 17.000000)">
                    <mask id="mask-22" fill="white">
                        <use xlink:href="#path-21"></use>
                    </mask>
                    <g id="Mask"></g>
                    <g id="Icon-Male" mask="url(#mask-22)">
                        <g transform="translate(93.400000, 27.977480)">
                            <g id="Remera" stroke-width="1" fill="none" fill-rule="evenodd" transform="translate(0.000000, 44.220000)">
                                <mask id="mask-24" fill="white">
                                    <use xlink:href="#path-23"></use>
                                </mask>
                                <use id="Mask" fill="#4FC3F7" fill-rule="nonzero" xlink:href="#path-23"></use>
                                <g id="Color-Yellow" mask="url(#mask-24)" fill="#FFD640">
                                    <g transform="translate(0.000000, -2.640000)" id="Rectangle-8">
                                        <rect x="0" y="0" width="64" height="71"></rect>
                                    </g>
                                </g>
                            </g>
                            <path d="M22,44.55 L22,34.65 L42,34.65 L42,44.55 C42,44.55 40,51.15 32,51.15 C24.0048724,51.15 22.0024384,44.558037 22.0000022,44.5500073 Z" id="Combined-Shape" fill="#FF9800" fill-rule="nonzero"></path>
                            <g id="Group" stroke-width="1" fill="none" fill-rule="evenodd" transform="translate(10.400000, 21.780000)">
                                <path d="M44,3.3 C44,5.12325 42.21,6.6 40,6.6 C37.79,6.6 36,5.12325 36,3.3 C36,1.47675 37.79,0 40,0 C42.21,0 44,1.47675 44,3.3" id="Shape" fill="#FFA726" fill-rule="nonzero"></path>
                                <path d="M8,3.3 C8,5.12325 6.21,6.6 4,6.6 C1.79,6.6 0,5.12325 0,3.3 C0,1.47675 1.79,0 4,0 C6.21,0 8,1.47675 8,3.3" id="Shape" fill="#FFA726" fill-rule="nonzero"></path>
                            </g>
                            <path d="M50,14.85 C50,2.25225 14,6.64785 14,14.85 L14,26.4 C14,34.60215 22.058,41.25 32,41.25 C41.942,41.25 50,34.60215 50,26.4 L50,14.85 Z" id="Shape" fill="#FFB74D" fill-rule="nonzero"></path>
                            <g id="Color-Red" stroke-width="1" fill="none" fill-rule="evenodd" transform="translate(12.000000, 0.000000)">
                                <mask id="mask-26" fill="white">
                                    <use xlink:href="#path-25"></use>
                                </mask>
                                <use id="Mask" fill="#424242" fill-rule="nonzero" xlink:href="#path-25"></use>
                                <g id="Color-Brown" mask="url(#mask-26)" fill="#795548">
                                    <g transform="translate(-1.600000, 0.000000)" id="Rectangle-8">
                                        <rect x="0" y="0" width="44" height="25"></rect>
                                    </g>
                                </g>
                            </g>
                            <g id="Group" stroke-width="1" fill="none" fill-rule="evenodd" transform="translate(22.000000, 23.100000)">
                                <path d="M16,1.65 C16,2.5608 16.896,3.3 18,3.3 C19.104,3.3 20,2.5608 20,1.65 C20,0.7392 19.104,0 18,0 C16.896,0 16,0.7392 16,1.65" id="Shape" fill="#784719" fill-rule="nonzero"></path>
                                <path d="M0,1.65 C0,2.5608 0.896,3.3 2,3.3 C3.104,3.3 4,2.5608 4,1.65 C4,0.7392 3.104,0 2,0 C0.896,0 0,0.7392 0,1.65" id="Shape" fill="#784719" fill-rule="nonzero"></path>
                            </g>
                            <path d="M32,54.45 C42,54.45 45.49,47.9655 45.902,45.4938 C43.588,44.7942 42,44.55 42,44.55 C42,44.55 40,51.15 32,51.15 C24,51.15 22,44.55 22,44.55 C22,44.55 20.412,44.7909 18.096,45.4839 C18.504,47.95065 22,54.45 32,54.45 Z" id="Shape" fill-opacity="0.400000006" fill="#333333" fill-rule="nonzero"></path>
                            <path d="M28.6949664,69.2612155 C28.6949664,69.5194399 28.6356871,69.7659232 28.5171267,70.0006727 C28.3985664,70.2354222 28.2349556,70.4408249 28.0262893,70.616887 C27.8176231,70.7929492 27.5733925,70.9337967 27.29359,71.039434 C27.0137876,71.1450713 26.7126488,71.1978891 26.3901647,71.1978891 C26.1151047,71.1978891 25.8353065,71.1665897 25.5507616,71.1039898 C25.2662168,71.0413899 25.0101303,70.933798 24.7824944,70.7812109 C24.5548585,70.6286237 24.367536,70.4271334 24.2205211,70.1767339 C24.0735063,69.9263345 24,69.6094274 24,69.2260032 L24,64.6249362 C24,64.3510618 24.0569081,64.0967537 24.170726,63.8620042 C24.284544,63.6272547 24.4457836,63.4238082 24.6544499,63.2516585 C24.8631161,63.0795089 25.1120891,62.94453 25.4013763,62.8467177 C25.6906636,62.7489054 26.0107717,62.7 26.3617104,62.7 C26.6936793,62.7 27.0019316,62.7489054 27.2864765,62.8467177 C27.5710213,62.94453 27.8176231,63.0814651 28.0262893,63.2575273 C28.2349556,63.4335894 28.3985664,63.6448607 28.5171267,63.8913477 C28.6356871,64.1378347 28.6949664,64.4058363 28.6949664,64.6953607 L28.6949664,65.1648573 L27.2437949,65.1648573 L27.2437949,64.7657852 C27.2437949,64.5310357 27.1631751,64.3275892 27.001933,64.1554396 C26.840691,63.9832899 26.6225432,63.8972164 26.3474832,63.8972164 C25.9870597,63.8972164 25.7475714,63.9891586 25.6290111,64.1730457 C25.5104507,64.3569328 25.4511714,64.5897226 25.4511714,64.8714219 L25.4511714,69.1438413 C25.4511714,69.3864158 25.5151931,69.5898623 25.6432382,69.754187 C25.7712834,69.9185116 26.001287,70.0006727 26.333256,70.0006727 C26.4281043,70.0006727 26.5300647,69.9869792 26.6391402,69.9595917 C26.7482157,69.9322043 26.8478049,69.8872113 26.9379108,69.8246115 C27.0280166,69.7620116 27.101523,69.6759381 27.1584319,69.5663883 C27.2153409,69.4568385 27.2437949,69.3199034 27.2437949,69.1555788 L27.2437949,68.7447692 L28.6949664,68.7447692 L28.6949664,69.2612155 Z M35.1343076,64.7423104 C35.1343076,64.4058361 35.2054427,64.1084912 35.3477151,63.8502668 C35.4899876,63.5920423 35.6773101,63.3788147 35.9096884,63.2105776 C36.1420667,63.0423405 36.4028955,62.9151864 36.6921828,62.8291116 C36.98147,62.7430368 37.2731241,62.7 37.5671538,62.7 C37.8611835,62.7 38.1528375,62.7430368 38.4421248,62.8291116 C38.731412,62.9151864 38.9922409,63.0423405 39.2246192,63.2105776 C39.4569975,63.3788147 39.64432,63.5920423 39.7865924,63.8502668 C39.9288649,64.1084912 40,64.4058361 40,64.7423104 L40,69.1555788 C40,69.499878 39.9288649,69.7991791 39.7865924,70.0534911 C39.64432,70.307803 39.4569975,70.5190744 39.2246192,70.6873115 C38.9922409,70.8555487 38.731412,70.9827027 38.4421248,71.0687775 C38.1528375,71.1548524 37.8611835,71.1978891 37.5671538,71.1978891 C37.2731241,71.1978891 36.98147,71.1548524 36.6921828,71.0687775 C36.4028955,70.9827027 36.1420667,70.8555487 35.9096884,70.6873115 C35.6773101,70.5190744 35.4899876,70.307803 35.3477151,70.0534911 C35.2054427,69.7991791 35.1343076,69.499878 35.1343076,69.1555788 L35.1343076,64.7423104 Z M36.585479,69.1555788 C36.585479,69.4451031 36.682697,69.6583307 36.877136,69.7952679 C37.071575,69.9322051 37.3015786,70.0006727 37.5671538,70.0006727 C37.832729,70.0006727 38.0627326,69.9322051 38.2571716,69.7952679 C38.4516105,69.6583307 38.5488286,69.4451031 38.5488286,69.1555788 L38.5488286,64.7423104 C38.5488286,64.452786 38.4516105,64.2395584 38.2571716,64.1026212 C38.0627326,63.965684 37.832729,63.8972164 37.5671538,63.8972164 C37.3015786,63.8972164 37.071575,63.965684 36.877136,64.1026212 C36.682697,64.2395584 36.585479,64.452786 36.585479,64.7423104 L36.585479,69.1555788 Z M29.5671538,62.7 L31.7154566,62.7 C32.5406366,62.7 33.1713682,62.889753 33.6076703,63.2692647 C34.0439724,63.6487764 34.2621202,64.178911 34.2621202,64.8596845 L34.2621202,68.768244 C34.2621202,69.5507423 34.0321165,70.1278262 33.5721024,70.4995129 C33.1120882,70.8711996 32.4505314,71.0570401 31.587412,71.0570401 L29.5671538,71.0570401 L29.5671538,62.7 Z M31.0183252,69.9302482 L31.6870022,69.9302482 C32.0948498,69.9302482 32.3841328,69.8461309 32.5548597,69.6778938 C32.7255866,69.5096566 32.8109487,69.2455674 32.8109487,68.8856182 L32.8109487,64.8596845 C32.8109487,64.5310352 32.7303289,64.2767271 32.5690868,64.0967525 C32.4078448,63.9167779 32.1138195,63.8267919 31.6870022,63.8267919 L31.0183252,63.8267919 L31.0183252,69.9302482 Z" id="Combined-Shape" fill="#666666" fill-rule="evenodd"></path>
                            <path d="M27.883245,34.32 C27.8722722,34.4105746 27.8666667,34.5023003 27.8666667,34.595 C27.8666667,36.2656614 29.6873754,37.62 31.9333333,37.62 C34.1792913,37.62 36,36.2656614 36,34.595 C36,34.5023003 35.9943944,34.4105746 35.9834217,34.32 L27.883245,34.32 Z" id="Combined-Shape" fill="#FFFFFF" fill-rule="evenodd"></path>
                            <g id="Group" stroke-width="1" fill="none" fill-rule="evenodd" transform="translate(0.000000, 112.200000)">
                                <polygon id="Shape" fill="#1565C0" fill-rule="nonzero" points="8.1575619 0 56.7567238 0 58.7339048 4.46285714 6.35619048 4.46285714"></polygon>
                                <g transform="translate(10.819048, 0.000000)" fill-rule="nonzero" id="Rectangle-path" fill="#64B5F6">
                                    <rect x="0" y="0" width="5.40952381" height="4.46285714"></rect>
                                    <rect x="37.8666667" y="0" width="5.40952381" height="4.46285714"></rect>
                                </g>
                                <path d="M6.3399619,4.46285714 C-3.97329524,22.2451114 10.8190476,93.72 10.8190476,93.72 L24.3428571,93.72 L32.4571429,24.5457143 L40.5714286,93.72 L54.0952381,93.72 C54.0952381,93.72 68.9281524,19.8396314 58.4904762,4.46285714 L6.3399619,4.46285714 Z" id="Shape" fill="#64B5F6" fill-rule="nonzero"></path>
                                <ellipse id="Oval" fill="#FFC107" fill-rule="nonzero" cx="32.4571429" cy="2.23142857" rx="2.7047619" ry="2.23142857"></ellipse>
                                <g transform="translate(2.704762, 4.462857)" id="Shape" fill-rule="nonzero" fill="#1E88E5">
                                    <path d="M27.047619,13.3885714 L27.047619,0 L32.4571429,0 L32.4571429,10.4140771 C32.4571429,10.4140771 32.4571429,13.3885714 27.047619,13.3885714 Z"></path>
                                    <path d="M18.9333333,0 L3.6352,0 C3.6352,0 0.1704,6.69428571 0.1704,15.6177686 C13.6265905,15.6177686 18.9333333,0 18.9333333,0 Z"></path>
                                    <path d="M40.5714286,0 L56.0616,0 C56.0616,0 58.9935619,4.91360571 59.3614095,15.6177686 C45.9025143,15.6177686 40.5714286,0 40.5714286,0 Z"></path>
                                </g>
                            </g>
                        </g>
                    </g>
                    <g id="Icon-Male" mask="url(#mask-22)">
                        <g transform="translate(45.000000, 48.000000)">
                            <g id="Remera" stroke-width="1" fill="none" fill-rule="evenodd" transform="translate(0.000000, 57.352000)">
                                <mask id="mask-28" fill="white">
                                    <use xlink:href="#path-27"></use>
                                </mask>
                                <use id="Mask" fill="#4FC3F7" fill-rule="nonzero" xlink:href="#path-27"></use>
                                <g id="Color-Yellow" mask="url(#mask-28)" fill="#FFD640">
                                    <g transform="translate(0.000000, -3.424000)" id="Rectangle-8">
                                        <rect x="0" y="0" width="80" height="92"></rect>
                                    </g>
                                </g>
                            </g>
                            <path d="M27.5,57.78 L27.5,44.94 L52.5,44.94 L52.5,57.78 C52.4998871,57.7803866 49.9997742,66.34 40,66.34 C30,66.34 27.5,57.78 27.5,57.78 Z" id="Combined-Shape" fill="#FF9800" fill-rule="nonzero"></path>
                            <g id="Group" stroke-width="1" fill="none" fill-rule="evenodd" transform="translate(13.000000, 28.248000)">
                                <path d="M55,4.28 C55,6.6447 52.7625,8.56 50,8.56 C47.2375,8.56 45,6.6447 45,4.28 C45,1.9153 47.2375,0 50,0 C52.7625,0 55,1.9153 55,4.28" id="Shape" fill="#FFA726" fill-rule="nonzero"></path>
                                <path d="M10,4.28 C10,6.6447 7.7625,8.56 5,8.56 C2.2375,8.56 0,6.6447 0,4.28 C0,1.9153 2.2375,0 5,0 C7.7625,0 10,1.9153 10,4.28" id="Shape" fill="#FFA726" fill-rule="nonzero"></path>
                            </g>
                            <path d="M62.5,19.26 C62.5,2.9211 17.5,8.62206 17.5,19.26 L17.5,34.24 C17.5,44.87794 27.5725,53.5 40,53.5 C52.4275,53.5 62.5,44.87794 62.5,34.24 L62.5,19.26 Z" id="Shape" fill="#FFB74D" fill-rule="nonzero"></path>
                            <g id="Color-Red" stroke-width="1" fill="none" fill-rule="evenodd" transform="translate(15.000000, 0.000000)">
                                <mask id="mask-30" fill="white">
                                    <use xlink:href="#path-29"></use>
                                </mask>
                                <use id="Mask" fill="#424242" fill-rule="nonzero" xlink:href="#path-29"></use>
                                <g id="Color-Black" mask="url(#mask-30)" fill="#424242">
                                    <g transform="translate(-2.000000, 0.000000)" id="Rectangle-8">
                                        <rect x="0" y="0" width="55" height="33"></rect>
                                    </g>
                                </g>
                            </g>
                            <g id="Group" stroke-width="1" fill="none" fill-rule="evenodd" transform="translate(27.500000, 29.960000)">
                                <path d="M20,2.14 C20,3.32128 21.12,4.28 22.5,4.28 C23.88,4.28 25,3.32128 25,2.14 C25,0.95872 23.88,0 22.5,0 C21.12,0 20,0.95872 20,2.14" id="Shape" fill="#784719" fill-rule="nonzero"></path>
                                <path d="M0,2.14 C0,3.32128 1.12,4.28 2.5,4.28 C3.88,4.28 5,3.32128 5,2.14 C5,0.95872 3.88,0 2.5,0 C1.12,0 0,0.95872 0,2.14" id="Shape" fill="#784719" fill-rule="nonzero"></path>
                            </g>
                            <path d="M40,70.62 C52.5,70.62 56.8625,62.2098 57.3775,59.00408 C54.485,58.09672 52.5,57.78 52.5,57.78 C52.5,57.78 50,66.34 40,66.34 C30,66.34 27.5,57.78 27.5,57.78 C27.5,57.78 25.515,58.09244 22.62,58.99124 C23.13,62.19054 27.5,70.62 40,70.62 Z" id="Shape" fill-opacity="0.400000006" fill="#333333" fill-rule="nonzero"></path>
                            <path d="M35.868708,89.8296977 C35.868708,90.1646069 35.7946088,90.4842883 35.6464084,90.7887513 C35.498208,91.0932142 35.2936944,91.3596153 35.0328617,91.5879626 C34.7720289,91.8163098 34.4667406,91.9989849 34.1169876,92.1359932 C33.7672345,92.2730015 33.3908111,92.3415047 32.9877059,92.3415047 C32.6438809,92.3415047 32.2941331,92.3009102 31.938452,92.2197201 C31.582771,92.13853 31.2626628,91.9989865 30.978118,91.8010856 C30.6935732,91.6031847 30.45942,91.3418579 30.2756514,91.0170973 C30.0918829,90.6923368 30,90.281318 30,89.7840285 L30,83.8165839 C30,83.4613771 30.0711351,83.1315472 30.2134076,82.8270842 C30.35568,82.5226212 30.5572296,82.2587573 30.8180623,82.0354844 C31.0788951,81.8122116 31.3901113,81.637148 31.7517204,81.5102884 C32.1133295,81.3834288 32.5134646,81.32 32.9521379,81.32 C33.3670992,81.32 33.7524145,81.3834288 34.1080956,81.5102884 C34.4637766,81.637148 34.7720289,81.8147487 35.0328617,82.043096 C35.2936944,82.2714432 35.498208,82.5454558 35.6464084,82.8651419 C35.7946088,83.184828 35.868708,83.532418 35.868708,83.9079224 L35.868708,84.5168453 L34.0547437,84.5168453 L34.0547437,83.9992608 C34.0547437,83.6947978 33.9539689,83.4309339 33.7524163,83.207661 C33.5508637,82.9843882 33.278179,82.8727534 32.934354,82.8727534 C32.4838247,82.8727534 32.1844643,82.9919996 32.0362638,83.2304956 C31.8880634,83.4689916 31.8139643,83.7709129 31.8139643,84.1362685 L31.8139643,89.6774669 C31.8139643,89.9920787 31.8939913,90.2559426 32.0540478,90.4690667 C32.2141043,90.6821908 32.5016088,90.7887513 32.91657,90.7887513 C33.0351304,90.7887513 33.1625808,90.7709912 33.2989252,90.7354705 C33.4352696,90.6999498 33.5597561,90.6415953 33.6723885,90.5604052 C33.7850208,90.479215 33.8769037,90.3675803 33.9480399,90.2254976 C34.0191761,90.0834148 34.0547437,89.9058141 34.0547437,89.69269 L34.0547437,89.1598825 L35.868708,89.1598825 L35.868708,89.8296977 Z M43.9178845,83.9688147 C43.9178845,83.5324177 44.0068034,83.1467704 44.1846439,82.8118611 C44.3624845,82.4769519 44.5966376,82.2004021 44.8871105,81.9822037 C45.1775833,81.7640052 45.5036194,81.5990902 45.8652285,81.4874538 C46.2268376,81.3758174 46.5914052,81.32 46.9589422,81.32 C47.3264793,81.32 47.6910469,81.3758174 48.052656,81.4874538 C48.4142651,81.5990902 48.7403011,81.7640052 49.030774,81.9822037 C49.3212468,82.2004021 49.5554,82.4769519 49.7332405,82.8118611 C49.9110811,83.1467704 50,83.5324177 50,83.9688147 L50,89.69269 C50,90.1392357 49.9110811,90.5274202 49.7332405,90.8572551 C49.5554,91.18709 49.3212468,91.4611025 49.030774,91.679301 C48.7403011,91.8974995 48.4142651,92.0624145 48.052656,92.1740509 C47.6910469,92.2856873 47.3264793,92.3415047 46.9589422,92.3415047 C46.5914052,92.3415047 46.2268376,92.2856873 45.8652285,92.1740509 C45.5036194,92.0624145 45.1775833,91.8974995 44.8871105,91.679301 C44.5966376,91.4611025 44.3624845,91.18709 44.1846439,90.8572551 C44.0068034,90.5274202 43.9178845,90.1392357 43.9178845,89.69269 L43.9178845,83.9688147 Z M45.7318488,89.69269 C45.7318488,90.0681944 45.8533713,90.3447441 46.09642,90.5223475 C46.3394687,90.6999509 46.6269733,90.7887513 46.9589422,90.7887513 C47.2909112,90.7887513 47.5784158,90.6999509 47.8214645,90.5223475 C48.0645132,90.3447441 48.1860357,90.0681944 48.1860357,89.69269 L48.1860357,83.9688147 C48.1860357,83.5933103 48.0645132,83.3167606 47.8214645,83.1391572 C47.5784158,82.9615538 47.2909112,82.8727534 46.9589422,82.8727534 C46.6269733,82.8727534 46.3394687,82.9615538 46.09642,83.1391572 C45.8533713,83.3167606 45.7318488,83.5933103 45.7318488,83.9688147 L45.7318488,89.69269 Z M36.9589422,81.32 L39.6443207,81.32 C40.6757958,81.32 41.4642103,81.5661039 42.0095879,82.058319 C42.5549655,82.5505342 42.8276502,83.2381028 42.8276502,84.1210454 L42.8276502,89.1903286 C42.8276502,90.2052052 42.5401457,90.9536655 41.965128,91.4357318 C41.3901103,91.9177982 40.5631642,92.1588278 39.4842651,92.1588278 L36.9589422,92.1588278 L36.9589422,81.32 Z M38.7729065,90.6974128 L39.6087528,90.6974128 C40.1185623,90.6974128 40.4801659,90.5883152 40.6935746,90.3701168 C40.9069832,90.1519183 41.0136859,89.8094026 41.0136859,89.3425593 L41.0136859,84.1210454 C41.0136859,83.6947972 40.9129111,83.3649673 40.7113585,83.1315457 C40.5098059,82.898124 40.1422744,82.781415 39.6087528,82.781415 L38.7729065,82.781415 L38.7729065,90.6974128 Z" id="Combined-Shape" fill="#666666" fill-rule="evenodd"></path>
                            <path d="M34.8540562,44.512 C34.8403403,44.6294725 34.8333333,44.748438 34.8333333,44.8686667 C34.8333333,47.0354638 37.1092192,48.792 39.9166667,48.792 C42.7241141,48.792 45,47.0354638 45,44.8686667 C45,44.748438 44.992993,44.6294725 44.9792771,44.512 L34.8540562,44.512 Z" id="Combined-Shape" fill="#FFFFFF" fill-rule="evenodd"></path>
                            <g id="Group" stroke-width="1" fill="none" fill-rule="evenodd" transform="translate(0.000000, 145.520000)">
                                <polygon id="Shape" fill="#1565C0" fill-rule="nonzero" points="10.1969524 0 70.9459048 0 73.417381 5.78819048 7.9452381 5.78819048"></polygon>
                                <g transform="translate(13.523810, 0.000000)" fill-rule="nonzero" id="Rectangle-path" fill="#64B5F6">
                                    <rect x="0" y="0" width="6.76190476" height="5.78819048"></rect>
                                    <rect x="47.3333333" y="0" width="6.76190476" height="5.78819048"></rect>
                                </g>
                                <path d="M7.92495238,5.78819048 C-4.96661905,28.8512354 13.5238095,121.552 13.5238095,121.552 L30.4285714,121.552 L40.5714286,31.8350476 L50.7142857,121.552 L67.6190476,121.552 C67.6190476,121.552 86.1601905,25.7314008 73.1130952,5.78819048 L7.92495238,5.78819048 Z" id="Shape" fill="#64B5F6" fill-rule="nonzero"></path>
                                <ellipse id="Oval" fill="#FFC107" fill-rule="nonzero" cx="40.5714286" cy="2.89409524" rx="3.38095238" ry="2.89409524"></ellipse>
                                <g transform="translate(3.380952, 5.788190)" id="Shape" fill-rule="nonzero" fill="#1E88E5">
                                    <path d="M33.8095238,17.3645714 L33.8095238,0 L40.5714286,0 L40.5714286,13.5067425 C40.5714286,13.5067425 40.5714286,17.3645714 33.8095238,17.3645714 Z"></path>
                                    <path d="M23.6666667,0 L4.544,0 C4.544,0 0.213,8.68228571 0.213,20.2557726 C17.0332381,20.2557726 23.6666667,0 23.6666667,0 Z"></path>
                                    <path d="M50.7142857,0 L70.077,0 C70.077,0 73.7419524,6.37279771 74.2017619,20.2557726 C57.3781429,20.2557726 50.7142857,0 50.7142857,0 Z"></path>
                                </g>
                            </g>
                        </g>
                    </g>
                    <g id="Icon-Female" mask="url(#mask-22)">
                        <g transform="translate(134.000000, 45.000000)">
                            <polygon id="Rectangle-path" stroke="none" fill="#333333" fill-rule="nonzero" points="16 12.5920499 65 12.5920499 60 69.9411765 20 69.9411765"></polygon>
                            <path d="M40,79.5882353 C34.5175,79.5882353 27.5,65.1176471 27.5,65.1176471 L27.5,50.6470588 L52.5,50.6470588 L52.5,65.1176471 C52.5,65.1176471 45.48,79.5882353 40,79.5882353" id="Shape" stroke="none" fill="#FF9800" fill-rule="nonzero"></path>
                            <path d="M62.5,24.1176471 C62.5,5.70382353 17.5,12.1287647 17.5,24.1176471 L17.5,41 C17.5,52.9888824 27.57,62.7058824 40,62.7058824 C52.4275,62.7058824 62.5,52.9888824 62.5,41 L62.5,24.1176471 Z" id="Shape" stroke="none" fill="#FFB74D" fill-rule="nonzero"></path>
                            <path d="M40,82 C28.95,82 27.5,65.1176471 27.5,65.1176471 C27.5,65.1176471 33.7675,74.7647059 40,74.7647059 C46.2325,74.7647059 52.5,65.1176471 52.5,65.1176471 C52.5,65.1176471 51.05,82 40,82" id="Shape" stroke="none" fill="#FFB74D" fill-rule="nonzero"></path>
                            <path d="M47.5,41 C47.5,42.3288824 48.62,43.4117647 50,43.4117647 C51.38,43.4117647 52.5,42.3288824 52.5,41 C52.5,39.6711176 51.38,38.5882353 50,38.5882353 C48.62,38.5882353 47.5,39.6711176 47.5,41" id="Shape" stroke="none" fill="#784719" fill-rule="nonzero"></path>
                            <path d="M27.5,41 C27.5,42.3288824 28.62,43.4117647 30,43.4117647 C31.38,43.4117647 32.5,42.3288824 32.5,41 C32.5,39.6711176 31.38,38.5882353 30,38.5882353 C28.62,38.5882353 27.5,39.6711176 27.5,41" id="Shape" stroke="none" fill="#784719" fill-rule="nonzero"></path>
                            <path d="M40,79.5882353 C34.5175,79.5882353 27.5,65.1176471 27.5,65.1176471 L27.5,50.6470588 L52.5,50.6470588 L52.5,65.1176471 C52.5,65.1176471 45.48,79.5882353 40,79.5882353" id="Shape" stroke="none" fill="#FF9800" fill-rule="nonzero"></path>
                            <path d="M62.5,24.1176471 C62.5,5.70382353 17.5,12.1287647 17.5,24.1176471 L17.5,41 C17.5,52.9888824 27.57,62.7058824 40,62.7058824 C52.4275,62.7058824 62.5,52.9888824 62.5,41 L62.5,24.1176471 Z" id="Shape" stroke="none" fill="#FFB74D" fill-rule="nonzero"></path>
                            <path d="M40,82 C28.95,82 27.5,65.1176471 27.5,65.1176471 C27.5,65.1176471 33.7675,74.7647059 40,74.7647059 C46.2325,74.7647059 52.5,65.1176471 52.5,65.1176471 C52.5,65.1176471 51.05,82 40,82" id="Shape" stroke="none" fill="#FFB74D" fill-rule="nonzero"></path>
                            <path d="M47.5,41 C47.5,42.3288824 48.62,43.4117647 50,43.4117647 C51.38,43.4117647 52.5,42.3288824 52.5,41 C52.5,39.6711176 51.38,38.5882353 50,38.5882353 C48.62,38.5882353 47.5,39.6711176 47.5,41" id="Shape" stroke="none" fill="#784719" fill-rule="nonzero"></path>
                            <g id="Color-Green" stroke="none" stroke-width="1" fill="none" fill-rule="evenodd" transform="translate(0.000000, 64.635294)">
                                <mask id="mask-32" fill="white">
                                    <use xlink:href="#path-31"></use>
                                </mask>
                                <use id="Mask" fill="#4FC3F7" fill-rule="nonzero" xlink:href="#path-31"></use>
                                <g id="Color-Yellow" mask="url(#mask-32)" fill="#FFD640">
                                    <g transform="translate(0.000000, 0.964706)" id="Rectangle-8">
                                        <rect x="0" y="0" width="80" height="99"></rect>
                                    </g>
                                </g>
                            </g>
                            <path d="M40,86.8235294 C51.865,86.8235294 56.4275,74.4873529 57.3725,66.4971765 C54.4825,65.4745882 52.5,65.1176471 52.5,65.1176471 C52.5,65.1176471 51.05,82 40,82 C28.95,82 27.5,65.1176471 27.5,65.1176471 C27.5,65.1176471 25.515,65.4673529 22.625,66.4827059 C23.5675,74.4704706 28.1275,86.8235294 40,86.8235294 Z" id="Shape" stroke="none" fill-opacity="0.400000006" fill="#333333" fill-rule="nonzero"></path>
                            <path d="M27.5,41 C27.5,42.3288824 28.62,43.4117647 30,43.4117647 C31.38,43.4117647 32.5,42.3288824 32.5,41 C32.5,39.6711176 31.38,38.5882353 30,38.5882353 C28.62,38.5882353 27.5,39.6711176 27.5,41" id="Shape" stroke="none" fill="#784719" fill-rule="nonzero"></path>
                            <path d="M62.5,24.1176471 C62.5,5.70382353 17.5,12.1287647 17.5,24.1176471 L17.5,41 C17.5,52.9888824 27.57,62.7058824 40,62.7058824 C52.4275,62.7058824 62.5,52.9888824 62.5,41 L62.5,24.1176471 Z" id="Shape" stroke="none" fill="#FFB74D" fill-rule="nonzero"></path>
                            <path d="M40,82 C28.95,82 27.5,65.1176471 27.5,65.1176471 C27.5,65.1176471 33.7675,74.7647059 40,74.7647059 C46.2325,74.7647059 52.5,65.1176471 52.5,65.1176471 C52.5,65.1176471 51.05,82 40,82" id="Shape" stroke="none" fill="#FFB74D" fill-rule="nonzero"></path>
                            <path d="M47.5,41 C47.5,39.6711176 48.62,38.5882353 50,38.5882353 C51.38,38.5882353 52.5,39.6711176 52.5,41 C52.5,42.3288824 51.38,43.4117647 50,43.4117647 C48.62,43.4117647 47.5,42.3288824 47.5,41 M27.5,41 C27.5,42.3288824 28.62,43.4117647 30,43.4117647 C31.38,43.4117647 32.5,42.3288824 32.5,41 C32.5,39.6711176 31.38,38.5882353 30,38.5882353 C28.62,38.5882353 27.5,39.6711176 27.5,41" id="Shape" stroke="none" fill="#784719" fill-rule="nonzero"></path>
                            <g id="Color-Red" stroke="none" stroke-width="1" fill="none" fill-rule="evenodd" transform="translate(2.000000, 0.000000)">
                                <mask id="mask-34" fill="white">
                                    <use xlink:href="#path-33"></use>
                                </mask>
                                <use id="Mask" fill="#795548" fill-rule="nonzero" xlink:href="#path-33"></use>
                                <g id="Color-Brown" mask="url(#mask-34)" fill="#795548">
                                    <g transform="translate(-2.000000, 0.000000)" id="Rectangle-8">
                                        <rect x="0" y="0" width="80" height="68"></rect>
                                    </g>
                                </g>
                            </g>
                            <g id="Combined-Shape" stroke="none" stroke-width="1" fill="none" fill-rule="evenodd" transform="translate(32.000000, 98.400000)">
                                <path d="M4.95710575,8.1006707 C4.95710575,8.41948223 4.89451665,8.72379777 4.76933659,9.01362643 C4.64415653,9.3034551 4.47141063,9.55705138 4.25109372,9.77442288 C4.0307768,9.99179438 3.77290974,10.165689 3.47748479,10.2961119 C3.18205984,10.4265348 2.86410724,10.4917452 2.52361747,10.4917452 C2.23319972,10.4917452 1.9377792,10.453102 1.63734705,10.3758144 C1.3369149,10.2985267 1.06653001,10.1656906 0.826184291,9.97730193 C0.585838568,9.7889133 0.388057034,9.54014742 0.232833755,9.23099685 C0.0776104755,8.92184627 0,8.53058344 0,8.05719662 L0,2.37658318 C0,2.03844973 0.0600855294,1.72447339 0.180258391,1.43464472 C0.300431252,1.14481606 0.470673585,0.89363498 0.690990498,0.681093959 C0.911307411,0.468552937 1.1741816,0.301903954 1.47962096,0.18114201 C1.78506031,0.0603800663 2.12304142,0 2.49357441,0 C2.84407858,0 3.16954187,0.0603800663 3.46997402,0.18114201 C3.77040618,0.301903954 4.0307768,0.47096814 4.25109372,0.688339639 C4.47141063,0.905711139 4.64415653,1.16655303 4.76933659,1.47087312 C4.89451665,1.77519322 4.95710575,2.10607599 4.95710575,2.46353134 L4.95710575,3.04318577 L3.42490942,3.04318577 L3.42490942,2.55047951 C3.42490942,2.26065084 3.33978826,2.00946976 3.16954337,1.79692874 C2.99929848,1.58438772 2.76897062,1.4781188 2.47855287,1.4781188 C2.09800548,1.4781188 1.84514554,1.59163333 1.71996548,1.81866578 C1.59478541,2.04569824 1.53219632,2.33310735 1.53219632,2.68090175 L1.53219632,7.95575709 C1.53219632,8.25524672 1.59979254,8.50642779 1.73498701,8.70930786 C1.87018148,8.91218792 2.11302716,9.01362643 2.46353134,9.01362643 C2.56367539,9.01362643 2.67132863,8.99672002 2.78649429,8.96290667 C2.90165995,8.92909333 3.00680963,8.87354367 3.10194647,8.79625602 C3.19708332,8.71896838 3.2746938,8.61269946 3.33478023,8.47744608 C3.39486666,8.34219271 3.42490942,8.17312852 3.42490942,7.97024846 L3.42490942,7.46305083 L4.95710575,7.46305083 L4.95710575,8.1006707 Z M11.755982,2.52149678 C11.755982,2.1060757 11.8310889,1.73896489 11.981305,1.42015336 C12.1315211,1.10134183 12.3293026,0.83808474 12.5746555,0.630374196 C12.8200085,0.422663652 13.0954005,0.26567548 13.4008398,0.159404969 C13.7062792,0.0531344584 14.0142175,0 14.3246641,0 C14.6351106,0 14.943049,0.0531344584 15.2484883,0.159404969 C15.5539277,0.26567548 15.8293197,0.422663652 16.0746726,0.630374196 C16.3200255,0.83808474 16.5178071,1.10134183 16.6680232,1.42015336 C16.8182392,1.73896489 16.8933461,2.1060757 16.8933461,2.52149678 L16.8933461,7.97024846 C16.8933461,8.3953305 16.8182392,8.7648565 16.6680232,9.07883756 C16.5178071,9.39281861 16.3200255,9.6536605 16.0746726,9.86137104 C15.8293197,10.0690816 15.5539277,10.2260698 15.2484883,10.3323403 C14.943049,10.4386108 14.6351106,10.4917452 14.3246641,10.4917452 C14.0142175,10.4917452 13.7062792,10.4386108 13.4008398,10.3323403 C13.0954005,10.2260698 12.8200085,10.0690816 12.5746555,9.86137104 C12.3293026,9.6536605 12.1315211,9.39281861 11.981305,9.07883756 C11.8310889,8.7648565 11.755982,8.3953305 11.755982,7.97024846 L11.755982,2.52149678 Z M13.2881783,7.97024846 C13.2881783,8.32770381 13.3908244,8.5909609 13.5961197,8.76002762 C13.8014151,8.92909434 14.0442607,9.01362643 14.3246641,9.01362643 C14.6050674,9.01362643 14.8479131,8.92909434 15.0532084,8.76002762 C15.2585037,8.5909609 15.3611498,8.32770381 15.3611498,7.97024846 L15.3611498,2.52149678 C15.3611498,2.16404143 15.2585037,1.90078434 15.0532084,1.73171762 C14.8479131,1.5626509 14.6050674,1.4781188 14.3246641,1.4781188 C14.0442607,1.4781188 13.8014151,1.5626509 13.5961197,1.73171762 C13.3908244,1.90078434 13.2881783,2.16404143 13.2881783,2.52149678 L13.2881783,7.97024846 Z M5.877991,0 L8.14624242,0 C9.01749567,2.98455976e-15 9.68344362,0.234274657 10.1441063,0.702831 C10.6047689,1.17138734 10.8350968,1.82590726 10.8350968,2.66641039 L10.8350968,7.49203355 C10.8350968,8.4581291 10.5922511,9.17061388 10.1065524,9.62950927 C9.62085377,10.0884047 8.92235949,10.3178489 8.01104863,10.3178489 L5.877991,10.3178489 L5.877991,0 Z M7.41018733,8.92667827 L8.11619936,8.92667827 C8.54681878,8.92667827 8.85225355,8.82282456 9.03251284,8.61511401 C9.21277213,8.40740347 9.30290043,8.08135111 9.30290043,7.63694716 L9.30290043,2.66641039 C9.30290043,2.26065026 9.21777926,1.94667392 9.04753437,1.72447194 C8.87728949,1.50226996 8.56684759,1.39117064 8.11619936,1.39117064 L7.41018733,1.39117064 L7.41018733,8.92667827 Z" fill="#666666"></path>
                            </g>
                            <use id="Combined-Shape" stroke="#F44336" mask="url(#mask-36)" stroke-width="4" stroke-linecap="round" stroke-linejoin="round" fill="#FFFFFF" fill-rule="evenodd" xlink:href="#path-35"></use>
                        </g>
                    </g>
                    <path d="M0.164815124,110 C10.9214463,166.382688 60.4838199,209 120,209 C179.51618,209 229.078554,166.382688 239.835185,110 L205.080023,110 C195.150948,147.421815 161.046089,175 120.5,175 C79.9539107,175 45.8490515,147.421815 35.9199771,110 L0.164815124,110 Z" id="Combined-Shape" fill="#FFFFFF"></path>
                </g>
            </g>
        </g>
    </g>
</svg>