<?xml version="1.0" encoding="UTF-8"?>
<svg width="175px" height="185px" viewBox="0 0 175 185" version="1.1" xmlns="http://www.w3.org/2000/svg" xmlns:xlink="http://www.w3.org/1999/xlink">
    <!-- Generator: Sketch 42 (36781) - http://www.bohemiancoding.com/sketch -->
    <title>SHIP ART</title>
    <desc>Created with Sketch.</desc>
    <defs>
        <circle id="path-1" cx="87.5" cy="97.5" r="87.5"></circle>
    </defs>
    <g id="Screens" stroke="none" stroke-width="1" fill="none" fill-rule="evenodd">
        <g id="00-WALKTHROUGH-3" transform="translate(-93.000000, -110.000000)">
            <g id="SHIP-ART" transform="translate(93.000000, 110.000000)">
                <circle id="Mask" fill-opacity="0.1" fill="#512F8F" cx="87.5" cy="97.5" r="87.5"></circle>
                <g id="Shop" transform="translate(17.000000, 0.000000)" fill-rule="nonzero">
                    <g id="Group">
                        <rect id="Rectangle-path" fill="#CFD8DC" x="6.66666667" y="43.3333333" width="126.666667" height="63.3333333"></rect>
                        <rect id="Rectangle-path" fill="#B0BEC5" x="6.66666667" y="106.666667" width="126.666667" height="13.3333333"></rect>
                        <rect id="Rectangle-path" fill="#424242" x="80" y="60" width="40" height="60"></rect>
                        <rect id="Rectangle-path" fill="#FFFFFF" x="20" y="60" width="46.6666667" height="36.6666667"></rect>
                        <rect id="Rectangle-path" fill="#EDEAF3" x="23.3333333" y="63.3333333" width="40" height="30"></rect>
                        <path d="M111.666667,91.6666667 C110.666667,91.6666667 110,92.3333333 110,93.3333333 L110,100 C110,101 110.666667,101.666667 111.666667,101.666667 C112.666667,101.666667 113.333333,101 113.333333,100 L113.333333,93.3333333 C113.333333,92.3333333 112.666667,91.6666667 111.666667,91.6666667 Z" id="Shape" fill="#777777"></path>
                        <g transform="translate(20.000000, 33.333333)" id="Oval" fill="#391F68">
                            <circle cx="50" cy="10" r="10"></circle>
                            <ellipse cx="90" cy="10" rx="10" ry="10"></ellipse>
                            <circle cx="10" cy="10" r="10"></circle>
                        </g>
                        <g transform="translate(10.000000, 0.000000)" fill="#512F8F">
                            <path d="M113.333333,0 L6.66666667,0 C3,0 0,3 0,6.66666667 L0,16.6666667 L120,16.6666667 L120,6.66666667 C120,3 117,0 113.333333,0 Z" id="Shape"></path>
                            <rect id="Rectangle-path" x="50" y="16.6666667" width="20" height="26.6666667"></rect>
                            <polygon id="Shape" points="103.333333 16.6666667 86.6666667 16.6666667 90 43.3333333 110 43.3333333"></polygon>
                            <polygon id="Shape" points="16.6666667 16.6666667 33.3333333 16.6666667 30 43.3333333 10 43.3333333"></polygon>
                        </g>
                        <g transform="translate(0.000000, 33.333333)" fill="#C8A611">
                            <ellipse id="Oval" cx="90" cy="10" rx="10" ry="10"></ellipse>
                            <path d="M140,10 C140,15.6666667 135.666667,20 130,20 C124.333333,20 120,15.6666667 120,10 C120,4.33333333 124.333333,0 130,0 L140,10 Z" id="Shape"></path>
                            <circle id="Oval" cx="50" cy="10" r="10"></circle>
                            <path d="M0,10 C0,15.6666667 4.33333333,20 10,20 C15.6666667,20 20,15.6666667 20,10 C20,4.33333333 15.6666667,0 10,0 L0,10 Z" id="Shape"></path>
                        </g>
                        <polygon id="Shape" fill="#FDD835" points="96.6666667 16.6666667 80 16.6666667 80 43.3333333 100 43.3333333"></polygon>
                        <polygon id="Shape" fill="#FDD835" points="130 16.6666667 113.333333 16.6666667 120 43.3333333 140 43.3333333"></polygon>
                        <polygon id="Shape" fill="#FDD835" points="43.3333333 16.6666667 60 16.6666667 60 43.3333333 40 43.3333333"></polygon>
                        <polygon id="Shape" fill="#FDD835" points="10 16.6666667 26.6666667 16.6666667 20 43.3333333 0 43.3333333"></polygon>
                    </g>
                </g>
                <mask id="mask-2" fill="white">
                    <use xlink:href="#path-1"></use>
                </mask>
                <g id="Mask"></g>
                <g id="Shipped" mask="url(#mask-2)">
                    <g transform="translate(36.058824, 120.500000) scale(-1, 1) translate(-36.058824, -120.500000) translate(-3.941176, 88.000000)" id="Group">
                        <g>
                            <path d="M75.2941176,54.5882353 L48.9411765,54.5882353 L48.9411765,13.1764706 L68.8941176,13.1764706 C70.5882353,13.1764706 71.9058824,14.3058824 72.4705882,15.8117647 L79.0588235,35.7647059 L79.0588235,50.8235294 C79.0588235,52.8941176 77.3647059,54.5882353 75.2941176,54.5882353 Z" id="Shape" fill="#FDD835" fill-rule="nonzero"></path>
                            <path d="M48.9411765,54.5882353 L3.76470588,54.5882353 C1.69411765,54.5882353 0,52.8941176 0,50.8235294 L0,3.76470588 C0,1.69411765 1.69411765,0 3.76470588,0 L45.1764706,0 C47.2470588,0 48.9411765,1.69411765 48.9411765,3.76470588 L48.9411765,54.5882353 Z" id="Shape" fill="#BB9A1D" fill-rule="nonzero"></path>
                            <g transform="translate(9.411765, 45.176471)" fill-rule="nonzero" id="Oval" fill="#424242">
                                <ellipse cx="54.5882353" cy="9.41176471" rx="9.41176471" ry="9.41176471"></ellipse>
                                <ellipse cx="9.41176471" cy="9.41176471" rx="9.41176471" ry="9.41176471"></ellipse>
                            </g>
                            <g transform="translate(15.058824, 50.823529)" fill-rule="nonzero" id="Oval" fill="#777777">
                                <ellipse cx="48.9411765" cy="3.76470588" rx="3.76470588" ry="3.76470588"></ellipse>
                                <ellipse cx="3.76470588" cy="3.76470588" rx="3.76470588" ry="3.76470588"></ellipse>
                            </g>
                            <path d="M71.5294118,33.8823529 L58.3529412,33.8823529 C57.2235294,33.8823529 56.4705882,33.1294118 56.4705882,32 L56.4705882,18.8235294 C56.4705882,17.6941176 57.2235294,16.9411765 58.3529412,16.9411765 L68.3294118,16.9411765 C69.0823529,16.9411765 69.8352941,17.5058824 70.0235294,18.2588235 L73.2235294,28.0470588 C73.2235294,28.2352941 73.4117647,28.4235294 73.4117647,28.6117647 L73.4117647,32 C73.4117647,33.1294118 72.6588235,33.8823529 71.5294118,33.8823529 Z" id="Shape" fill="#424242" fill-rule="nonzero"></path>
                        </g>
                    </g>
                </g>
            </g>
        </g>
    </g>
</svg>