<?xml version="1.0" encoding="UTF-8"?>
<svg width="277px" height="250px" viewBox="0 0 277 250" version="1.1" xmlns="http://www.w3.org/2000/svg" xmlns:xlink="http://www.w3.org/1999/xlink">
    <!-- Generator: Sketch 42 (36781) - http://www.bohemiancoding.com/sketch -->
    <title>+1 ART</title>
    <desc>Created with Sketch.</desc>
    <defs></defs>
    <g id="Screens" stroke="none" stroke-width="1" fill="none" fill-rule="evenodd">
        <g id="00-WALKTHROUGH-2" transform="translate(-42.000000, -96.000000)">
            <g id="+1-ART" transform="translate(42.000000, 96.000000)">
                <circle id="Mask" fill-opacity="0.1" fill="#512F8F" cx="138.5" cy="111.5" r="87.5"></circle>
                <g id="Illustration-Hand-Sign-Right" transform="translate(138.000000, 10.000000)">
                    <path d="M26.3558255,56.2871757 L27.5372287,52.8151038 C27.5372287,52.8151038 29.0034343,54.1723683 33.2016347,53.3622182 C35.2585419,52.9729253 35.8386952,51.1948036 35.7015681,49.8480606 C35.6804716,49.6797177 35.6593751,49.5218962 35.6171821,49.3745962 C35.480055,48.8380033 35.743761,48.659139 34.3408448,48.659139 C33.3282136,48.659139 32.3999683,48.8169604 30.3747058,48.4171461 C30.3430611,48.4066247 30.3114163,48.4066247 30.2797716,48.3961032 C26.8410447,47.6911674 23.3917695,47.6911674 20.8812879,48.3961032 C18.3708062,49.101039 14.0565752,56.2556114 14.046027,56.2766543 L14.046027,70.1018133 C14.046027,72.4586136 15.9552588,74.3629925 18.318065,74.3629925 L35.8093809,74.3629925 L35.8093809,56.2871757 L26.3558255,56.2871757 Z" id="Shape" fill="#FBBC90" fill-rule="nonzero" transform="translate(24.927704, 61.115197) scale(-1, 1) translate(-24.927704, -61.115197) "></path>
                    <rect id="Rectangle-path" fill="#B8A13B" fill-rule="nonzero" transform="translate(37.280861, 64.267680) scale(-1, 1) translate(-37.280861, -64.267680) " x="35.8093809" y="55.5611971" width="2.94295956" height="17.4129667"></rect>
                    <rect id="Rectangle-path" fill="#FDD835" fill-rule="nonzero" transform="translate(62.876170, 64.772709) scale(-1, 1) translate(-62.876170, -64.772709) " x="38.7523405" y="55.1613827" width="48.2476595" height="19.2226526"></rect>
                    <path d="M24.0923077,12.4942237 L24.0923077,78.8391096 C24.0923077,79.4775993 23.7533772,80 23.3391289,80 L19.4916404,80 C19.077392,80 18.7384615,79.4775993 18.7384615,78.8391096 L18.7384615,12.4942237 C18.7384615,11.855734 19.077392,11.3333333 19.4916404,11.3333333 L23.3391289,11.3333333 C23.7533772,11.3333333 24.0923077,11.855734 24.0923077,12.4942237 Z" id="Shape" fill="#424242" fill-rule="nonzero"></path>
                    <ellipse id="Oval-4" fill="#B0BEC5" fill-rule="evenodd" cx="21.4153846" cy="20.6666667" rx="20.7461538" ry="20.6666667"></ellipse>
                    <path d="M26.4445943,56.2871757 L27.6259974,52.8151038 C27.6259974,52.8151038 29.0922031,54.1723683 33.2904035,53.3622182 C35.3473107,52.9729253 35.927464,51.1948036 35.7903368,49.8480606 C35.7692404,49.6797177 35.7481439,49.5218962 35.7059509,49.3745962 C35.5688238,48.8380033 35.8325298,48.659139 34.4296136,48.659139 C33.4169824,48.659139 32.488737,48.8169604 30.4634746,48.4171461 C30.4318298,48.4066247 30.4001851,48.4066247 30.3685404,48.3961032 C26.9298134,47.6911674 23.4805383,47.6911674 20.9700566,48.3961032 C18.459575,49.101039 14.145344,56.2556114 14.1347957,56.2766543 L14.1347957,56.2766543 L14.1347957,70.1018133 C14.1347957,72.4586136 16.0440276,74.3629925 18.4068338,74.3629925 L26.4445943,56.2871757 Z" id="Shape" fill="#FBBC90" fill-rule="nonzero" transform="translate(24.972088, 61.115197) scale(-1, 1) translate(-24.972088, -61.115197) "></path>
                    <path d="M19.6283775,49.858582 C19.4490574,49.9848392 19.2380925,50.0584892 18.995483,50.0584892 L15.250857,50.0584892 C14.6496072,50.0584892 14.1538398,49.563982 14.1538398,48.9642605 C14.1538398,48.7643533 14.206581,48.585489 14.3015152,48.4171461 C16.3267777,48.8169604 17.255023,48.659139 18.2676542,48.659139 C19.6600222,48.659139 19.3963162,48.8274819 19.5439915,49.3745962 C19.5756363,49.5324177 19.607281,49.6902391 19.6283775,49.858582 Z" id="Shape" fill="#FFD3B6" fill-rule="nonzero" transform="translate(16.891109, 49.237818) scale(-1, 1) translate(-16.891109, -49.237818) "></path>
                    <path d="M23.7527402,56.2871757 C23.7527402,56.2871757 20.7886841,63.3996624 18.7528734,68.1132631 C18.7528734,68.1132631 24.5438583,62.5158623 28.4994491,56.2871757 L23.7527402,56.2871757 Z" id="Shape" fill="#FBBC90" fill-rule="nonzero" opacity="0.29" transform="translate(23.626161, 62.200219) scale(-1, 1) translate(-23.626161, -62.200219) "></path>
                    <path d="M16.3827692,22.9333333 L16.3827692,27.8933333 L13.0633846,27.8933333 L13.0633846,22.9333333 L7.87015385,22.9333333 L7.87015385,19.84 L13.0633846,19.84 L13.0633846,14.96 L16.3827692,14.96 L16.3827692,19.84 L21.576,19.84 L21.576,22.9333333 L16.3827692,22.9333333 Z M26.8495385,29.3333333 L26.8495385,15.1733333 L24.0655385,17.0933333 L24.0655385,12.9866667 L27.2778462,10.7733333 L30.7846154,10.7733333 L30.7846154,29.3333333 L26.8495385,29.3333333 Z" id="+1" fill="#4B4B4B" fill-rule="evenodd"></path>
                    <g id="Group" stroke-width="1" fill-rule="evenodd" transform="translate(16.414697, 58.754021) scale(-1, 1) translate(-16.414697, -58.754021) translate(10.730366, 56.276654)">
                        <path d="M9.29300132,4.72412207 L2.13074491,4.72412207 C0.959890034,4.72412207 0.0105482421,3.76667194 0.0105482421,2.60931464 L0.0105482421,2.15689315 C0.0105482421,0.97849299 0.970438277,0.02104286 2.1518414,0.02104286 L9.29300132,0.02104286 C10.063023,0.02104286 10.6959175,0.65232866 10.6959175,1.42039305 L10.6959175,3.33529331 C10.6959175,4.09283627 10.063023,4.72412207 9.29300132,4.72412207 Z" id="Shape" fill="#FBBC90" fill-rule="nonzero"></path>
                        <path d="M2.84802538,4.09283627 L2.21513085,4.09283627 C1.22359609,4.09283627 0.400833201,3.32477188 0.400833201,2.37784318 L0.400833201,2.35680032 C0.400833201,1.40987162 1.21304785,0.64180723 2.21513085,0.64180723 L2.84802538,0.64180723 C3.83956014,0.64180723 3.78681893,1.40987162 3.78681893,2.35680032 L3.78681893,2.37784318 C3.79736717,3.32477188 3.85010838,4.09283627 2.84802538,4.09283627 Z" id="Shape" fill="#FFD3B6" fill-rule="nonzero"></path>
                    </g>
                    <g id="Group" stroke-width="1" fill-rule="evenodd" transform="translate(17.375026, 72.498827) scale(-1, 1) translate(-17.375026, -72.498827) translate(12.756508, 70.375371)">
                        <path d="M8.94490933,1.74655738 L8.94490933,2.33575746 C8.94490933,3.25112187 8.19598414,3.9981434 7.27828707,3.9981434 L1.9514248,3.9981434 C0.917697066,3.9981434 0.0843859371,3.156429 0.0843859371,2.13585029 C0.0843859371,1.5782145 0.316447264,1.06266443 0.685635739,0.69441438 C1.05482421,0.32616433 1.57168808,0.09469287 2.13074491,0.09469287 L7.27828707,0.09469287 C7.95337457,0.09469287 8.53352789,0.50502864 8.79723394,1.08370729 C8.89216812,1.28361446 8.94490933,1.51508592 8.94490933,1.74655738 Z" id="Shape" fill="#FBBC90" fill-rule="nonzero"></path>
                        <path d="M2.43664393,3.32477188 L1.91978007,3.32477188 C1.09701718,3.32477188 0.421929685,2.75661466 0.421929685,2.05167885 L0.421929685,2.03063599 C0.421929685,1.32570018 1.09701718,0.75754296 1.91978007,0.75754296 L2.43664393,0.75754296 C3.25940682,0.75754296 3.21721385,1.32570018 3.21721385,2.03063599 L3.21721385,2.05167885 C3.21721385,2.75661466 3.26995506,3.32477188 2.43664393,3.32477188 Z" id="Shape" fill="#FFD3B6" fill-rule="nonzero"></path>
                    </g>
                    <g id="Group" stroke-width="1" fill-rule="evenodd" transform="translate(17.180909, 63.488664) scale(-1, 1) translate(-17.180909, -63.488664) translate(10.786038, 61.011298)">
                        <path d="M12.1726714,2.03063599 L12.1726714,2.74609323 C12.1726714,3.85084338 11.2760708,4.74516493 10.1685054,4.74516493 L2.2784203,4.74516493 C1.03372773,4.74516493 0.0210964843,3.73510765 0.0210964843,2.49357891 C0.0210964843,1.82020739 0.29535078,1.19944302 0.748925192,0.75754296 C1.19195136,0.3156429 1.81429765,0.03156429 2.48938514,0.03156429 L10.1685054,0.03156429 C11.022913,0.03156429 11.7507417,0.56815722 12.0355443,1.31517875 C12.1199302,1.53612878 12.1726714,1.77812167 12.1726714,2.03063599 Z" id="Shape" fill="#FBBC90" fill-rule="nonzero"></path>
                        <path d="M2.86912186,4.02970769 L2.23622733,4.02970769 C1.24469257,4.02970769 0.421929685,3.29320759 0.421929685,2.39888604 L0.421929685,2.37784318 C0.421929685,1.48352163 1.23414433,0.74702153 2.23622733,0.74702153 L2.86912186,0.74702153 C3.86065662,0.74702153 3.80791541,1.48352163 3.80791541,2.37784318 L3.80791541,2.39888604 C3.80791541,3.29320759 3.86065662,4.02970769 2.86912186,4.02970769 Z" id="Shape" fill="#FFD3B6" fill-rule="nonzero"></path>
                    </g>
                    <g id="Group" stroke-width="1" fill-rule="evenodd" transform="translate(17.180909, 68.223308) scale(-1, 1) translate(-17.180909, -68.223308) translate(10.786038, 65.745941)">
                        <path d="M12.1726714,2.00959313 L12.1726714,2.72505037 C12.1726714,3.82980052 11.2760708,4.72412207 10.1685054,4.72412207 L2.2784203,4.72412207 C1.03372773,4.72412207 0.0210964843,3.71406479 0.0210964843,2.47253605 C0.0210964843,1.79916453 0.29535078,1.17840016 0.748925192,0.7365001 C1.19195136,0.29460004 1.81429765,0.01052143 2.48938514,0.01052143 L10.1685054,0.01052143 C10.9068824,0.01052143 11.5503251,0.41033577 11.8984171,0.99953585 C12.067189,1.29413589 12.1726714,1.64134308 12.1726714,2.00959313 Z" id="Shape" fill="#FBBC90" fill-rule="nonzero"></path>
                        <path d="M2.86912186,3.94553625 L2.23622733,3.94553625 C1.24469257,3.94553625 0.421929685,3.24060044 0.421929685,2.37784318 L0.421929685,2.35680032 C0.421929685,1.49404306 1.23414433,0.78910725 2.23622733,0.78910725 L2.86912186,0.78910725 C3.86065662,0.78910725 3.80791541,1.49404306 3.80791541,2.35680032 L3.80791541,2.37784318 C3.80791541,3.24060044 3.86065662,3.94553625 2.86912186,3.94553625 Z" id="Shape" fill="#FFD3B6" fill-rule="nonzero"></path>
                    </g>
                    <path d="M21.086396,62.3264766 C20.2741813,62.5789909 18.9451028,62.6947266 16.7932614,62.3475194 C11.9199736,61.5478907 11.5402368,61.0428621 11.5402368,61.0428621 L19.2193571,61.0428621 C20.0632165,61.0428621 20.8015934,61.579455 21.086396,62.3264766 Z" id="Shape" fill="#FBBC90" fill-rule="nonzero" opacity="0.29" transform="translate(16.313316, 61.803811) scale(-1, 1) translate(-16.313316, -61.803811) "></path>
                    <path d="M20.3374708,66.7454772 C19.5147079,66.9664272 18.2172741,67.0611201 16.1920116,66.7244343 C13.68153,66.3140985 12.3629997,65.9774128 11.677364,65.7564627 L18.6075591,65.7564627 C19.3353878,65.7564627 19.9893788,66.1562771 20.3374708,66.7454772 Z" id="Shape" fill="#FBBC90" fill-rule="nonzero" opacity="0.29" transform="translate(16.007417, 66.350717) scale(-1, 1) translate(-16.007417, -66.350717) "></path>
                    <path d="M19.6623833,71.4590778 C18.9661993,71.4801207 18.0906952,71.4169921 17.0253228,71.2381278 C15.1793804,70.9330063 13.9768808,70.6699705 13.1963109,70.4700634 L18.1434364,70.4700634 C18.8185239,70.4700634 19.4092255,70.8803991 19.6623833,71.4590778 Z" id="Shape" fill="#FBBC90" fill-rule="nonzero" opacity="0.29" transform="translate(16.429347, 70.966514) scale(-1, 1) translate(-16.429347, -70.966514) "></path>
                </g>
                <g id="Illustration-Hand-Sign-Left" transform="translate(93.000000, 0.000000)">
                    <path d="M39.4140523,35.1794848 L40.147337,33.0094399 C40.147337,33.0094399 41.0573957,33.8577302 43.6631753,33.3513864 C44.9398763,33.1080783 45.2999715,31.9967523 45.214858,31.1550379 C45.2017637,31.0498236 45.1886693,30.9511852 45.1624806,30.8591226 C45.0773672,30.5237521 45.2410468,30.4119619 44.3702712,30.4119619 C43.7417415,30.4119619 43.1655892,30.5106003 41.9085297,30.2607163 C41.8888882,30.2541404 41.8692466,30.2541404 41.8496051,30.2475645 C39.7152228,29.8069796 37.5742934,29.8069796 36.0160634,30.2475645 C34.4578335,30.6881494 31.7800349,35.1597572 31.7734877,35.1729089 L31.7734877,43.8136333 C31.7734877,45.2866335 32.9585282,46.4768703 34.4250975,46.4768703 L45.2817764,46.4768703 L45.2817764,35.1794848 L39.4140523,35.1794848 Z" id="Shape" fill="#FBBC90" fill-rule="nonzero"></path>
                    <path d="M42.7846154,7.80888983 L42.7846154,49.2744435 C42.7846154,49.6734996 42.5742447,50 42.3171251,50 L39.9290288,50 C39.6719091,50 39.4615385,49.6734996 39.4615385,49.2744435 L39.4615385,7.80888983 C39.4615385,7.40983376 39.6719091,7.08333333 39.9290288,7.08333333 L42.3171251,7.08333333 C42.5742447,7.08333333 42.7846154,7.40983376 42.7846154,7.80888983 Z" id="Shape" fill="#424242" fill-rule="nonzero"></path>
                    <rect id="Rectangle-path" fill="#B8A13B" fill-rule="nonzero" x="29.9468232" y="34.7257482" width="1.82666455" height="10.8831042"></rect>
                    <rect id="Rectangle-path" fill="#FDD835" fill-rule="nonzero" x="0" y="34.4758642" width="29.9468232" height="12.0141579"></rect>
                    <path d="M39.4140523,35.1794848 L40.147337,33.0094399 C40.147337,33.0094399 41.0573957,33.8577302 43.6631753,33.3513864 C44.9398763,33.1080783 45.2999715,31.9967523 45.214858,31.1550379 C45.2017637,31.0498236 45.1886693,30.9511852 45.1624806,30.8591226 C45.0773672,30.5237521 45.2410468,30.4119619 44.3702712,30.4119619 C43.7417415,30.4119619 43.1655892,30.5106003 41.9085297,30.2607163 C41.8888882,30.2541404 41.8692466,30.2541404 41.8496051,30.2475645 C39.7152228,29.8069796 37.5742934,29.8069796 36.0160634,30.2475645 C34.4578335,30.6881494 31.7800349,35.1597572 31.7734877,35.1729089 L31.7734877,35.1729089 L31.7734877,43.8136333 C31.7734877,45.2866335 32.9585282,46.4768703 34.4250975,46.4768703 L39.4140523,35.1794848 Z" id="Shape" fill="#FBBC90" fill-rule="nonzero"></path>
                    <path d="M45.214858,31.1616138 C45.1035559,31.2405245 44.9726122,31.2865557 44.822027,31.2865557 L42.4977764,31.2865557 C42.1245868,31.2865557 41.8168692,30.9774887 41.8168692,30.6026628 C41.8168692,30.4777208 41.8496051,30.3659306 41.9085297,30.2607163 C43.1655892,30.5106003 43.7417415,30.4119619 44.3702712,30.4119619 C45.2344996,30.4119619 45.07082,30.5171762 45.1624806,30.8591226 C45.1821221,30.957761 45.2017637,31.0563995 45.214858,31.1616138 Z" id="Shape" fill="#FFD3B6" fill-rule="nonzero"></path>
                    <ellipse id="Oval-4" fill="#B0BEC5" fill-rule="evenodd" cx="41.1230769" cy="12.9166667" rx="12.8769231" ry="12.9166667"></ellipse>
                    <path d="M37.9993846,14.3333333 L37.9993846,17.4333333 L35.9390769,17.4333333 L35.9390769,14.3333333 L32.7156923,14.3333333 L32.7156923,12.4 L35.9390769,12.4 L35.9390769,9.35 L37.9993846,9.35 L37.9993846,12.4 L41.2227692,12.4 L41.2227692,14.3333333 L37.9993846,14.3333333 Z M44.496,18.3333333 L44.496,9.48333333 L42.768,10.6833333 L42.768,8.11666667 L44.7618462,6.73333333 L46.9384615,6.73333333 L46.9384615,18.3333333 L44.496,18.3333333 Z" id="+1" fill="#4B4B4B" fill-rule="evenodd"></path>
                    <path d="M39.4140523,35.1794848 C39.4140523,35.1794848 37.5742934,39.624789 36.3106868,42.5707894 C36.3106868,42.5707894 39.9050912,39.0724139 42.3602855,35.1794848 L39.4140523,35.1794848 Z" id="Shape" fill="#FBBC90" fill-rule="nonzero" opacity="0.29"></path>
                    <g id="Group" stroke-width="1" fill-rule="evenodd" transform="translate(40.283362, 35.172909)">
                        <path d="M5.76806979,2.95257629 L1.32253132,2.95257629 C0.595793814,2.95257629 0.00654718477,2.35416996 0.00654718477,1.63082165 L0.00654718477,1.34805822 C0.00654718477,0.611558119 0.602340999,0.0131517875 1.33562569,0.0131517875 L5.76806979,0.0131517875 C6.24601427,0.0131517875 6.63884536,0.407705413 6.63884536,0.887745656 L6.63884536,2.08455832 C6.63884536,2.55802267 6.24601427,2.95257629 5.76806979,2.95257629 Z" id="Shape" fill="#FBBC90" fill-rule="nonzero"></path>
                        <path d="M1.76773989,2.55802267 L1.3749088,2.55802267 C0.759473434,2.55802267 0.248793021,2.07798243 0.248793021,1.48615199 L0.248793021,1.4730002 C0.248793021,0.881169763 0.752926249,0.401129519 1.3749088,0.401129519 L1.76773989,0.401129519 C2.38317526,0.401129519 2.35043933,0.881169763 2.35043933,1.4730002 L2.35043933,1.48615199 C2.35698652,2.07798243 2.38972244,2.55802267 1.76773989,2.55802267 Z" id="Shape" fill="#FFD3B6" fill-rule="nonzero"></path>
                    </g>
                    <g id="Group" stroke-width="1" fill-rule="evenodd" transform="translate(40.348834, 43.984607)">
                        <path d="M5.55201269,1.09159836 L5.55201269,1.45984841 C5.55201269,2.03195117 5.08716257,2.49883963 4.51755749,2.49883963 L1.21122918,2.49883963 C0.569605075,2.49883963 0.0523774782,1.97276813 0.0523774782,1.33490643 C0.0523774782,0.986384063 0.196415543,0.664165269 0.42556701,0.434008988 C0.654718477,0.203852706 0.975530531,0.0591830438 1.32253132,0.0591830438 L4.51755749,0.0591830438 C4.93657732,0.0591830438 5.29667248,0.3156429 5.4603521,0.677317056 C5.51927676,0.802259038 5.55201269,0.9469287 5.55201269,1.09159836 Z" id="Shape" fill="#FBBC90" fill-rule="nonzero"></path>
                        <path d="M1.51239968,2.07798243 L1.19158763,2.07798243 C0.680907216,2.07798243 0.261887391,1.72288416 0.261887391,1.28229928 L0.261887391,1.26914749 C0.261887391,0.828562613 0.680907216,0.47346435 1.19158763,0.47346435 L1.51239968,0.47346435 C2.0230801,0.47346435 1.99689136,0.828562613 1.99689136,1.26914749 L1.99689136,1.28229928 C1.99689136,1.72288416 2.02962728,2.07798243 1.51239968,2.07798243 Z" id="Shape" fill="#FFD3B6" fill-rule="nonzero"></path>
                    </g>
                    <g id="Group" stroke-width="1" fill-rule="evenodd" transform="translate(39.366757, 38.132061)">
                        <path d="M7.55545123,1.26914749 L7.55545123,1.71630827 C7.55545123,2.40677711 6.99894052,2.96572808 6.31148612,2.96572808 L1.41419191,2.96572808 C0.641624108,2.96572808 0.0130943695,2.33444228 0.0130943695,1.55848682 C0.0130943695,1.13762962 0.183321174,0.749651888 0.464850119,0.47346435 C0.739831879,0.197276813 1.12611578,0.0197276813 1.54513561,0.0197276813 L6.31148612,0.0197276813 C6.84180809,0.0197276813 7.29356384,0.355098263 7.47033783,0.821986719 C7.52271531,0.960080488 7.55545123,1.11132604 7.55545123,1.26914749 Z" id="Shape" fill="#FBBC90" fill-rule="nonzero"></path>
                        <path d="M1.78083426,2.51856731 L1.38800317,2.51856731 C0.772567803,2.51856731 0.261887391,2.05825474 0.261887391,1.49930378 L0.261887391,1.48615199 C0.261887391,0.927201019 0.766020619,0.466888456 1.38800317,0.466888456 L1.78083426,0.466888456 C2.39626963,0.466888456 2.3635337,0.927201019 2.3635337,1.48615199 L2.3635337,1.49930378 C2.3635337,2.05825474 2.39626963,2.51856731 1.78083426,2.51856731 Z" id="Shape" fill="#FFD3B6" fill-rule="nonzero"></path>
                    </g>
                    <g id="Group" stroke-width="1" fill-rule="evenodd" transform="translate(39.366757, 41.091213)">
                        <path d="M7.55545123,1.25599571 L7.55545123,1.70315648 C7.55545123,2.39362533 6.99894052,2.95257629 6.31148612,2.95257629 L1.41419191,2.95257629 C0.641624108,2.95257629 0.0130943695,2.32129049 0.0130943695,1.54533503 C0.0130943695,1.12447783 0.183321174,0.7365001 0.464850119,0.460312563 C0.739831879,0.184125025 1.12611578,0.00657589375 1.54513561,0.00657589375 L6.31148612,0.00657589375 C6.76978906,0.00657589375 7.16916733,0.256459856 7.38522443,0.624709906 C7.48997938,0.808834931 7.55545123,1.02583943 7.55545123,1.25599571 Z" id="Shape" fill="#FBBC90" fill-rule="nonzero"></path>
                        <path d="M1.78083426,2.46596016 L1.38800317,2.46596016 C0.772567803,2.46596016 0.261887391,2.02537528 0.261887391,1.48615199 L0.261887391,1.4730002 C0.261887391,0.933776913 0.766020619,0.493192031 1.38800317,0.493192031 L1.78083426,0.493192031 C2.39626963,0.493192031 2.3635337,0.933776913 2.3635337,1.4730002 L2.3635337,1.48615199 C2.3635337,2.02537528 2.39626963,2.46596016 1.78083426,2.46596016 Z" id="Shape" fill="#FFD3B6" fill-rule="nonzero"></path>
                    </g>
                    <path d="M46.8370944,38.9540478 C46.3329611,39.1118693 45.5080159,39.1842041 44.1723902,38.9671996 C41.1475908,38.4674317 40.9118921,38.1517888 40.9118921,38.1517888 L45.6782427,38.1517888 C46.2020174,38.1517888 46.6603204,38.4871594 46.8370944,38.9540478 Z" id="Shape" fill="#FBBC90" fill-rule="nonzero" opacity="0.29"></path>
                    <path d="M46.751981,41.7159232 C46.2413006,41.854017 45.4359968,41.9132 44.1789374,41.7027714 C42.6207074,41.4463116 41.8023093,41.235883 41.3767423,41.0977892 L45.6782427,41.0977892 C46.1299984,41.0977892 46.5359239,41.3476732 46.751981,41.7159232 Z" id="Shape" fill="#FBBC90" fill-rule="nonzero" opacity="0.29"></path>
                    <path d="M45.8091864,44.6619236 C45.3770722,44.6750754 44.8336558,44.63562 44.1723902,44.5238299 C43.0266328,44.3331289 42.2802538,44.1687316 41.7957621,44.0437896 L44.8663918,44.0437896 C45.2854116,44.0437896 45.6520539,44.3002495 45.8091864,44.6619236 Z" id="Shape" fill="#FBBC90" fill-rule="nonzero" opacity="0.29"></path>
                </g>
                <g id="Illustration-Hand-Sign-Right" transform="translate(153.000000, 52.000000)">
                    <path d="M32.7175765,70.3589697 L34.1841459,66.0188798 C34.1841459,66.0188798 36.0042633,67.7154604 41.2158224,66.7027727 C43.7692244,66.2161566 44.4894148,63.9935045 44.3191879,62.3100757 C44.2929992,62.0996471 44.2668105,61.9023703 44.214433,61.7182453 C44.0442062,61.0475041 44.3715654,60.8239237 42.6300143,60.8239237 C41.3729548,60.8239237 40.2206503,61.0212005 37.7065313,60.5214326 C37.6672482,60.5082808 37.6279651,60.5082808 37.588682,60.495129 C33.3199175,59.6139593 29.0380587,59.6139593 25.9215987,60.495129 C22.8051388,61.3762988 17.4495416,70.3195143 17.4364473,70.3458179 L17.4364473,87.6272667 C17.4364473,90.5732671 19.8065282,92.9537406 22.7396669,92.9537406 L44.4530246,92.9537406 L44.4530246,70.3589697 L32.7175765,70.3589697 Z" id="Shape" fill="#FBBC90" fill-rule="nonzero" transform="translate(30.944736, 76.393996) scale(-1, 1) translate(-30.944736, -76.393996) "></path>
                    <rect id="Rectangle-path" fill="#B8A13B" fill-rule="nonzero" transform="translate(46.279689, 80.334600) scale(-1, 1) translate(-46.279689, -80.334600) " x="44.4530246" y="69.4514963" width="3.6533291" height="21.7662083"></rect>
                    <rect id="Rectangle-path" fill="#FDD835" fill-rule="nonzero" transform="translate(78.053177, 80.965886) scale(-1, 1) translate(-78.053177, -80.965886) " x="48.1063537" y="68.9517284" width="59.8936463" height="24.0283158"></rect>
                    <path d="M29.9076923,15.6177797 L29.9076923,98.548887 C29.9076923,99.3469992 29.486951,100 28.9727117,100 L24.1965191,100 C23.6822797,100 23.2615385,99.3469992 23.2615385,98.548887 L23.2615385,15.6177797 C23.2615385,14.8196675 23.6822797,14.1666667 24.1965191,14.1666667 L28.9727117,14.1666667 C29.486951,14.1666667 29.9076923,14.8196675 29.9076923,15.6177797 Z" id="Shape" fill="#424242" fill-rule="nonzero"></path>
                    <ellipse id="Oval-4" fill="#B0BEC5" fill-rule="evenodd" cx="26.5846154" cy="25.8333333" rx="25.7538462" ry="25.8333333"></ellipse>
                    <path d="M32.8277722,70.3589697 L34.2943416,66.0188798 C34.2943416,66.0188798 36.114459,67.7154604 41.3260181,66.7027727 C43.8794201,66.2161566 44.5996105,63.9935045 44.4293837,62.3100757 C44.4031949,62.0996471 44.3770062,61.9023703 44.3246287,61.7182453 C44.1544019,61.0475041 44.4817611,60.8239237 42.74021,60.8239237 C41.4831505,60.8239237 40.330846,61.0212005 37.816727,60.5214326 C37.7774439,60.5082808 37.7381608,60.5082808 37.6988777,60.495129 C33.4301132,59.6139593 29.1482544,59.6139593 26.0317944,60.495129 C22.9153345,61.3762988 17.5597373,70.3195143 17.546643,70.3458179 L17.546643,70.3458179 L17.546643,87.6272667 C17.546643,90.5732671 19.9167239,92.9537406 22.8498626,92.9537406 L32.8277722,70.3589697 Z" id="Shape" fill="#FBBC90" fill-rule="nonzero" transform="translate(30.999834, 76.393996) scale(-1, 1) translate(-30.999834, -76.393996) "></path>
                    <path d="M24.3662617,62.3232275 C24.1436574,62.481049 23.88177,62.5731115 23.5805995,62.5731115 L18.9320983,62.5731115 C18.1857193,62.5731115 17.5702839,61.9549775 17.5702839,61.2053256 C17.5702839,60.9554416 17.6357557,60.7318612 17.7536051,60.5214326 C20.267724,61.0212005 21.4200285,60.8239237 22.677088,60.8239237 C24.4055448,60.8239237 24.0781856,61.0343523 24.2615067,61.7182453 C24.3007898,61.9155221 24.340073,62.1127989 24.3662617,62.3232275 Z" id="Shape" fill="#FFD3B6" fill-rule="nonzero" transform="translate(20.968273, 61.547272) scale(-1, 1) translate(-20.968273, -61.547272) "></path>
                    <path d="M29.4861602,70.3589697 C29.4861602,70.3589697 25.8066423,79.249578 23.279429,85.1415788 C23.279429,85.1415788 30.4682379,78.1448279 35.3786265,70.3589697 L29.4861602,70.3589697 Z" id="Shape" fill="#FBBC90" fill-rule="nonzero" opacity="0.29" transform="translate(29.329028, 77.750274) scale(-1, 1) translate(-29.329028, -77.750274) "></path>
                    <path d="M20.3372308,28.6666667 L20.3372308,34.8666667 L16.2166154,34.8666667 L16.2166154,28.6666667 L9.76984615,28.6666667 L9.76984615,24.8 L16.2166154,24.8 L16.2166154,18.7 L20.3372308,18.7 L20.3372308,24.8 L26.784,24.8 L26.784,28.6666667 L20.3372308,28.6666667 Z M33.3304615,36.6666667 L33.3304615,18.9666667 L29.8744615,21.3666667 L29.8744615,16.2333333 L33.8621538,13.4666667 L38.2153846,13.4666667 L38.2153846,36.6666667 L33.3304615,36.6666667 Z" id="+1" fill="#4B4B4B" fill-rule="evenodd"></path>
                    <g id="Group" stroke-width="1" fill-rule="evenodd" transform="translate(20.376865, 73.442526) scale(-1, 1) translate(-20.376865, -73.442526) translate(13.320455, 70.345818)">
                        <path d="M11.5361396,5.90515259 L2.64506265,5.90515259 C1.19158763,5.90515259 0.0130943695,4.70833993 0.0130943695,3.2616433 L0.0130943695,2.69611644 C0.0130943695,1.22311624 1.204682,0.026303575 2.67125139,0.026303575 L11.5361396,0.026303575 C12.4920285,0.026303575 13.2776907,0.815410825 13.2776907,1.77549131 L13.2776907,4.16911664 C13.2776907,5.11604534 12.4920285,5.90515259 11.5361396,5.90515259 Z" id="Shape" fill="#FBBC90" fill-rule="nonzero"></path>
                        <path d="M3.53547978,5.11604534 L2.74981761,5.11604534 C1.51894687,5.11604534 0.497586043,4.15596485 0.497586043,2.97230398 L0.497586043,2.9460004 C0.497586043,1.76233953 1.5058525,0.802259038 2.74981761,0.802259038 L3.53547978,0.802259038 C4.76635052,0.802259038 4.70087867,1.76233953 4.70087867,2.9460004 L4.70087867,2.97230398 C4.71397304,4.15596485 4.77944489,5.11604534 3.53547978,5.11604534 Z" id="Shape" fill="#FFD3B6" fill-rule="nonzero"></path>
                    </g>
                    <g id="Group" stroke-width="1" fill-rule="evenodd" transform="translate(21.568998, 90.623534) scale(-1, 1) translate(-21.568998, -90.623534) translate(15.835665, 87.969213)">
                        <path d="M11.1040254,2.18319673 L11.1040254,2.91969683 C11.1040254,4.06390234 10.1743251,4.99767925 9.03511499,4.99767925 L2.42245837,4.99767925 C1.13921015,4.99767925 0.104754956,3.94553625 0.104754956,2.66981286 C0.104754956,1.97276813 0.392831086,1.32833054 0.851134021,0.868017975 C1.30943695,0.407705413 1.95106106,0.118366088 2.64506265,0.118366088 L9.03511499,0.118366088 C9.87315464,0.118366088 10.593345,0.6312858 10.9207042,1.35463411 C11.0385535,1.60451808 11.1040254,1.8938574 11.1040254,2.18319673 Z" id="Shape" fill="#FBBC90" fill-rule="nonzero"></path>
                        <path d="M3.02479937,4.15596485 L2.38317526,4.15596485 C1.36181443,4.15596485 0.523774782,3.44576833 0.523774782,2.56459856 L0.523774782,2.53829499 C0.523774782,1.65712523 1.36181443,0.9469287 2.38317526,0.9469287 L3.02479937,0.9469287 C4.04616019,0.9469287 3.99378271,1.65712523 3.99378271,2.53829499 L3.99378271,2.56459856 C3.99378271,3.44576833 4.05925456,4.15596485 3.02479937,4.15596485 Z" id="Shape" fill="#FFD3B6" fill-rule="nonzero"></path>
                    </g>
                    <g id="Group" stroke-width="1" fill-rule="evenodd" transform="translate(21.328025, 79.360830) scale(-1, 1) translate(-21.328025, -79.360830) translate(13.389564, 76.264122)">
                        <path d="M15.1109025,2.53829499 L15.1109025,3.43261654 C15.1109025,4.81355423 13.997881,5.93145616 12.6229722,5.93145616 L2.82838382,5.93145616 C1.28324822,5.93145616 0.0261887391,4.66888456 0.0261887391,3.11697364 C0.0261887391,2.27525924 0.366642347,1.49930378 0.929700238,0.9469287 C1.47966376,0.394553625 2.25223156,0.0394553625 3.09027121,0.0394553625 L12.6229722,0.0394553625 C13.6836162,0.0394553625 14.5871277,0.710196525 14.9406757,1.64397344 C15.0454306,1.92016098 15.1109025,2.22265209 15.1109025,2.53829499 Z" id="Shape" fill="#FBBC90" fill-rule="nonzero"></path>
                        <path d="M3.56166852,5.03713461 L2.77600634,5.03713461 C1.54513561,5.03713461 0.523774782,4.11650949 0.523774782,2.99860755 L0.523774782,2.97230398 C0.523774782,1.85440204 1.53204124,0.933776913 2.77600634,0.933776913 L3.56166852,0.933776913 C4.79253925,0.933776913 4.72706741,1.85440204 4.72706741,2.97230398 L4.72706741,2.99860755 C4.72706741,4.11650949 4.79253925,5.03713461 3.56166852,5.03713461 Z" id="Shape" fill="#FFD3B6" fill-rule="nonzero"></path>
                    </g>
                    <g id="Group" stroke-width="1" fill-rule="evenodd" transform="translate(21.328025, 85.279134) scale(-1, 1) translate(-21.328025, -85.279134) translate(13.389564, 82.182427)">
                        <path d="M15.1109025,2.51199141 L15.1109025,3.40631296 C15.1109025,4.78725065 13.997881,5.90515259 12.6229722,5.90515259 L2.82838382,5.90515259 C1.28324822,5.90515259 0.0261887391,4.64258099 0.0261887391,3.09067006 C0.0261887391,2.24895566 0.366642347,1.4730002 0.929700238,0.920625125 C1.47966376,0.36825005 2.25223156,0.0131517875 3.09027121,0.0131517875 L12.6229722,0.0131517875 C13.5395781,0.0131517875 14.3383347,0.512919713 14.7704489,1.24941981 C14.9799588,1.61766986 15.1109025,2.05167885 15.1109025,2.51199141 Z" id="Shape" fill="#FBBC90" fill-rule="nonzero"></path>
                        <path d="M3.56166852,4.93192031 L2.77600634,4.93192031 C1.54513561,4.93192031 0.523774782,4.05075055 0.523774782,2.97230398 L0.523774782,2.9460004 C0.523774782,1.86755383 1.53204124,0.986384063 2.77600634,0.986384063 L3.56166852,0.986384063 C4.79253925,0.986384063 4.72706741,1.86755383 4.72706741,2.9460004 L4.72706741,2.97230398 C4.72706741,4.05075055 4.79253925,4.93192031 3.56166852,4.93192031 Z" id="Shape" fill="#FFD3B6" fill-rule="nonzero"></path>
                    </g>
                    <path d="M26.1762157,77.9080957 C25.1679492,78.2237386 23.5180587,78.3684083 20.8468073,77.9343993 C14.7972086,76.9348634 14.3258113,76.3035776 14.3258113,76.3035776 L23.8585123,76.3035776 C24.9060619,76.3035776 25.8226677,76.9743188 26.1762157,77.9080957 Z" id="Shape" fill="#FBBC90" fill-rule="nonzero" opacity="0.29" transform="translate(20.251013, 77.254764) scale(-1, 1) translate(-20.251013, -77.254764) "></path>
                    <path d="M25.2465155,83.4318464 C24.2251546,83.708034 22.6145472,83.8264001 20.1004282,83.4055429 C16.9839683,82.8926232 15.3471721,82.471766 14.4960381,82.1955784 L23.0990389,82.1955784 C24.0025504,82.1955784 24.8144013,82.6953463 25.2465155,83.4318464 Z" id="Shape" fill="#FBBC90" fill-rule="nonzero" opacity="0.29" transform="translate(19.871277, 82.938396) scale(-1, 1) translate(-19.871277, -82.938396) "></path>
                    <path d="M24.4084758,89.3238472 C23.5442474,89.3501508 22.4574148,89.2712401 21.1348834,89.0476597 C18.8433688,88.6662579 17.3506106,88.3374632 16.3816273,88.0875792 L22.5228866,88.0875792 C23.3609262,88.0875792 24.0942109,88.6004989 24.4084758,89.3238472 Z" id="Shape" fill="#FBBC90" fill-rule="nonzero" opacity="0.29" transform="translate(20.395052, 88.708142) scale(-1, 1) translate(-20.395052, -88.708142) "></path>
                </g>
                <g id="Illustration-Hand-Sign-Left" transform="translate(24.000000, 30.000000)">
                    <path d="M63.5004177,56.2871757 L64.6818208,52.8151038 C64.6818208,52.8151038 66.1480264,54.1723683 70.3462268,53.3622182 C72.403134,52.9729253 72.9832873,51.1948036 72.8461602,49.8480606 C72.8250637,49.6797177 72.8039672,49.5218962 72.7617743,49.3745962 C72.6246471,48.8380033 72.8883532,48.659139 71.485437,48.659139 C70.4728057,48.659139 69.5445604,48.8169604 67.5192979,48.4171461 C67.4876532,48.4066247 67.4560085,48.4066247 67.4243637,48.3961032 C63.9856368,47.6911674 60.5363616,47.6911674 58.02588,48.3961032 C55.5153984,49.101039 51.2011673,56.2556114 51.1906191,56.2766543 L51.1906191,70.1018133 C51.1906191,72.4586136 53.0998509,74.3629925 55.4626572,74.3629925 L72.953973,74.3629925 L72.953973,56.2871757 L63.5004177,56.2871757 Z" id="Shape" fill="#FBBC90" fill-rule="nonzero"></path>
                    <path d="M68.9307692,12.4942237 L68.9307692,78.8391096 C68.9307692,79.4775993 68.5918388,80 68.1775904,80 L64.3301019,80 C63.9158535,80 63.5769231,79.4775993 63.5769231,78.8391096 L63.5769231,12.4942237 C63.5769231,11.855734 63.9158535,11.3333333 64.3301019,11.3333333 L68.1775904,11.3333333 C68.5918388,11.3333333 68.9307692,11.855734 68.9307692,12.4942237 Z" id="Shape" fill="#424242" fill-rule="nonzero"></path>
                    <rect id="Rectangle-path" fill="#B8A13B" fill-rule="nonzero" x="48.2476595" y="55.5611971" width="2.94295956" height="17.4129667"></rect>
                    <rect id="Rectangle-path" fill="#FDD835" fill-rule="nonzero" x="0" y="55.1613827" width="48.2476595" height="19.2226526"></rect>
                    <path d="M63.5004177,56.2871757 L64.6818208,52.8151038 C64.6818208,52.8151038 66.1480264,54.1723683 70.3462268,53.3622182 C72.403134,52.9729253 72.9832873,51.1948036 72.8461602,49.8480606 C72.8250637,49.6797177 72.8039672,49.5218962 72.7617743,49.3745962 C72.6246471,48.8380033 72.8883532,48.659139 71.485437,48.659139 C70.4728057,48.659139 69.5445604,48.8169604 67.5192979,48.4171461 C67.4876532,48.4066247 67.4560085,48.4066247 67.4243637,48.3961032 C63.9856368,47.6911674 60.5363616,47.6911674 58.02588,48.3961032 C55.5153984,49.101039 51.2011673,56.2556114 51.1906191,56.2766543 L51.1906191,56.2766543 L51.1906191,70.1018133 C51.1906191,72.4586136 53.0998509,74.3629925 55.4626572,74.3629925 L63.5004177,56.2871757 Z" id="Shape" fill="#FBBC90" fill-rule="nonzero"></path>
                    <path d="M72.8461602,49.858582 C72.6668401,49.9848392 72.4558752,50.0584892 72.2132657,50.0584892 L68.4686397,50.0584892 C67.8673899,50.0584892 67.3716225,49.563982 67.3716225,48.9642605 C67.3716225,48.7643533 67.4243637,48.585489 67.5192979,48.4171461 C69.5445604,48.8169604 70.4728057,48.659139 71.485437,48.659139 C72.8778049,48.659139 72.6140989,48.8274819 72.7617743,49.3745962 C72.793419,49.5324177 72.8250637,49.6902391 72.8461602,49.858582 Z" id="Shape" fill="#FFD3B6" fill-rule="nonzero"></path>
                    <ellipse id="Oval-4" fill="#B0BEC5" fill-rule="evenodd" cx="66.2538462" cy="20.6666667" rx="20.7461538" ry="20.6666667"></ellipse>
                    <path d="M61.2212308,22.9333333 L61.2212308,27.8933333 L57.9018462,27.8933333 L57.9018462,22.9333333 L52.7086154,22.9333333 L52.7086154,19.84 L57.9018462,19.84 L57.9018462,14.96 L61.2212308,14.96 L61.2212308,19.84 L66.4144615,19.84 L66.4144615,22.9333333 L61.2212308,22.9333333 Z M71.688,29.3333333 L71.688,15.1733333 L68.904,17.0933333 L68.904,12.9866667 L72.1163077,10.7733333 L75.6230769,10.7733333 L75.6230769,29.3333333 L71.688,29.3333333 Z" id="+1" fill="#4B4B4B" fill-rule="evenodd"></path>
                    <path d="M63.5004177,56.2871757 C63.5004177,56.2871757 60.5363616,63.3996624 58.5005509,68.1132631 C58.5005509,68.1132631 64.2915358,62.5158623 68.2471266,56.2871757 L63.5004177,56.2871757 Z" id="Shape" fill="#FBBC90" fill-rule="nonzero" opacity="0.29"></path>
                    <g id="Group" stroke-width="1" fill-rule="evenodd" transform="translate(64.900973, 56.276654)">
                        <path d="M9.29300132,4.72412207 L2.13074491,4.72412207 C0.959890034,4.72412207 0.0105482421,3.76667194 0.0105482421,2.60931464 L0.0105482421,2.15689315 C0.0105482421,0.97849299 0.970438277,0.02104286 2.1518414,0.02104286 L9.29300132,0.02104286 C10.063023,0.02104286 10.6959175,0.65232866 10.6959175,1.42039305 L10.6959175,3.33529331 C10.6959175,4.09283627 10.063023,4.72412207 9.29300132,4.72412207 Z" id="Shape" fill="#FBBC90" fill-rule="nonzero"></path>
                        <path d="M2.84802538,4.09283627 L2.21513085,4.09283627 C1.22359609,4.09283627 0.400833201,3.32477188 0.400833201,2.37784318 L0.400833201,2.35680032 C0.400833201,1.40987162 1.21304785,0.64180723 2.21513085,0.64180723 L2.84802538,0.64180723 C3.83956014,0.64180723 3.78681893,1.40987162 3.78681893,2.35680032 L3.78681893,2.37784318 C3.79736717,3.32477188 3.85010838,4.09283627 2.84802538,4.09283627 Z" id="Shape" fill="#FFD3B6" fill-rule="nonzero"></path>
                    </g>
                    <g id="Group" stroke-width="1" fill-rule="evenodd" transform="translate(65.006455, 70.375371)">
                        <path d="M8.94490933,1.74655738 L8.94490933,2.33575746 C8.94490933,3.25112187 8.19598414,3.9981434 7.27828707,3.9981434 L1.9514248,3.9981434 C0.917697066,3.9981434 0.0843859371,3.156429 0.0843859371,2.13585029 C0.0843859371,1.5782145 0.316447264,1.06266443 0.685635739,0.69441438 C1.05482421,0.32616433 1.57168808,0.09469287 2.13074491,0.09469287 L7.27828707,0.09469287 C7.95337457,0.09469287 8.53352789,0.50502864 8.79723394,1.08370729 C8.89216812,1.28361446 8.94490933,1.51508592 8.94490933,1.74655738 Z" id="Shape" fill="#FBBC90" fill-rule="nonzero"></path>
                        <path d="M2.43664393,3.32477188 L1.91978007,3.32477188 C1.09701718,3.32477188 0.421929685,2.75661466 0.421929685,2.05167885 L0.421929685,2.03063599 C0.421929685,1.32570018 1.09701718,0.75754296 1.91978007,0.75754296 L2.43664393,0.75754296 C3.25940682,0.75754296 3.21721385,1.32570018 3.21721385,2.03063599 L3.21721385,2.05167885 C3.21721385,2.75661466 3.26995506,3.32477188 2.43664393,3.32477188 Z" id="Shape" fill="#FFD3B6" fill-rule="nonzero"></path>
                    </g>
                    <g id="Group" stroke-width="1" fill-rule="evenodd" transform="translate(63.424219, 61.011298)">
                        <path d="M12.1726714,2.03063599 L12.1726714,2.74609323 C12.1726714,3.85084338 11.2760708,4.74516493 10.1685054,4.74516493 L2.2784203,4.74516493 C1.03372773,4.74516493 0.0210964843,3.73510765 0.0210964843,2.49357891 C0.0210964843,1.82020739 0.29535078,1.19944302 0.748925192,0.75754296 C1.19195136,0.3156429 1.81429765,0.03156429 2.48938514,0.03156429 L10.1685054,0.03156429 C11.022913,0.03156429 11.7507417,0.56815722 12.0355443,1.31517875 C12.1199302,1.53612878 12.1726714,1.77812167 12.1726714,2.03063599 Z" id="Shape" fill="#FBBC90" fill-rule="nonzero"></path>
                        <path d="M2.86912186,4.02970769 L2.23622733,4.02970769 C1.24469257,4.02970769 0.421929685,3.29320759 0.421929685,2.39888604 L0.421929685,2.37784318 C0.421929685,1.48352163 1.23414433,0.74702153 2.23622733,0.74702153 L2.86912186,0.74702153 C3.86065662,0.74702153 3.80791541,1.48352163 3.80791541,2.37784318 L3.80791541,2.39888604 C3.80791541,3.29320759 3.86065662,4.02970769 2.86912186,4.02970769 Z" id="Shape" fill="#FFD3B6" fill-rule="nonzero"></path>
                    </g>
                    <g id="Group" stroke-width="1" fill-rule="evenodd" transform="translate(63.424219, 65.745941)">
                        <path d="M12.1726714,2.00959313 L12.1726714,2.72505037 C12.1726714,3.82980052 11.2760708,4.72412207 10.1685054,4.72412207 L2.2784203,4.72412207 C1.03372773,4.72412207 0.0210964843,3.71406479 0.0210964843,2.47253605 C0.0210964843,1.79916453 0.29535078,1.17840016 0.748925192,0.7365001 C1.19195136,0.29460004 1.81429765,0.01052143 2.48938514,0.01052143 L10.1685054,0.01052143 C10.9068824,0.01052143 11.5503251,0.41033577 11.8984171,0.99953585 C12.067189,1.29413589 12.1726714,1.64134308 12.1726714,2.00959313 Z" id="Shape" fill="#FBBC90" fill-rule="nonzero"></path>
                        <path d="M2.86912186,3.94553625 L2.23622733,3.94553625 C1.24469257,3.94553625 0.421929685,3.24060044 0.421929685,2.37784318 L0.421929685,2.35680032 C0.421929685,1.49404306 1.23414433,0.78910725 2.23622733,0.78910725 L2.86912186,0.78910725 C3.86065662,0.78910725 3.80791541,1.49404306 3.80791541,2.35680032 L3.80791541,2.37784318 C3.80791541,3.24060044 3.86065662,3.94553625 2.86912186,3.94553625 Z" id="Shape" fill="#FFD3B6" fill-rule="nonzero"></path>
                    </g>
                    <path d="M75.4597632,62.3264766 C74.6475485,62.5789909 73.31847,62.6947266 71.1666286,62.3475194 C66.2933407,61.5478907 65.913604,61.0428621 65.913604,61.0428621 L73.5927243,61.0428621 C74.4365837,61.0428621 75.1749606,61.579455 75.4597632,62.3264766 Z" id="Shape" fill="#FBBC90" fill-rule="nonzero" opacity="0.29"></path>
                    <path d="M75.322636,66.7454772 C74.4998731,66.9664272 73.2024393,67.0611201 71.1771768,66.7244343 C68.6666952,66.3140985 67.3481649,65.9774128 66.6625292,65.7564627 L73.5927243,65.7564627 C74.320553,65.7564627 74.974544,66.1562771 75.322636,66.7454772 Z" id="Shape" fill="#FBBC90" fill-rule="nonzero" opacity="0.29"></path>
                    <path d="M73.8036891,71.4590778 C73.1075052,71.4801207 72.2320011,71.4169921 71.1666286,71.2381278 C69.3206862,70.9330063 68.1181866,70.6699705 67.3376167,70.4700634 L72.2847423,70.4700634 C72.9598298,70.4700634 73.5505313,70.8803991 73.8036891,71.4590778 Z" id="Shape" fill="#FBBC90" fill-rule="nonzero" opacity="0.29"></path>
                </g>
                <g id="Illustration-Hand-Sign-Left" transform="translate(30.000000, 65.000000)">
                    <path d="M102.91447,91.4666606 L104.829158,85.8245437 C104.829158,85.8245437 107.205422,88.0300985 114.009402,86.7136046 C117.34301,86.0810036 118.283259,83.1915559 118.061018,81.0030984 C118.026827,80.7295412 117.992637,80.4730814 117.924255,80.2337189 C117.702014,79.3617553 118.1294,79.0711008 115.855708,79.0711008 C114.214547,79.0711008 112.71015,79.3275607 109.427828,78.6778624 C109.376541,78.6607651 109.325255,78.6607651 109.273969,78.6436677 C103.70086,77.4981471 98.110655,77.4981471 94.0419434,78.6436677 C89.9732318,79.7891884 82.9812022,91.4153686 82.9641068,91.4495632 L82.9641068,113.915447 C82.9641068,117.745247 86.0583791,120.839863 89.8877547,120.839863 L118.235749,120.839863 L118.235749,91.4666606 L102.91447,91.4666606 Z" id="Shape" fill="#FBBC90" fill-rule="nonzero"></path>
                    <path d="M111.715385,20.3031136 L111.715385,128.113553 C111.715385,129.151099 111.166084,130 110.494715,130 L104.259131,130 C103.587763,130 103.038462,129.151099 103.038462,128.113553 L103.038462,20.3031136 C103.038462,19.2655678 103.587763,18.4166667 104.259131,18.4166667 L110.494715,18.4166667 C111.166084,18.4166667 111.715385,19.2655678 111.715385,20.3031136 Z" id="Shape" fill="#424242" fill-rule="nonzero"></path>
                    <rect id="Rectangle-path" fill="#B8A13B" fill-rule="nonzero" x="78.1944827" y="90.2869452" width="4.76962411" height="28.2960708"></rect>
                    <rect id="Rectangle-path" fill="#FDD835" fill-rule="nonzero" x="0" y="89.6372469" width="78.1944827" height="31.2368105"></rect>
                    <path d="M102.91447,91.4666606 L104.829158,85.8245437 C104.829158,85.8245437 107.205422,88.0300985 114.009402,86.7136046 C117.34301,86.0810036 118.283259,83.1915559 118.061018,81.0030984 C118.026827,80.7295412 117.992637,80.4730814 117.924255,80.2337189 C117.702014,79.3617553 118.1294,79.0711008 115.855708,79.0711008 C114.214547,79.0711008 112.71015,79.3275607 109.427828,78.6778624 C109.376541,78.6607651 109.325255,78.6607651 109.273969,78.6436677 C103.70086,77.4981471 98.110655,77.4981471 94.0419434,78.6436677 C89.9732318,79.7891884 82.9812022,91.4153686 82.9641068,91.4495632 L82.9641068,91.4495632 L82.9641068,113.915447 C82.9641068,117.745247 86.0583791,120.839863 89.8877547,120.839863 L102.91447,91.4666606 Z" id="Shape" fill="#FBBC90" fill-rule="nonzero"></path>
                    <path d="M118.061018,81.0201958 C117.770396,81.2253636 117.428487,81.3450449 117.035293,81.3450449 L110.966416,81.3450449 C109.991977,81.3450449 109.188492,80.5414707 109.188492,79.5669232 C109.188492,79.2420741 109.273969,78.9514196 109.427828,78.6778624 C112.71015,79.3275607 114.214547,79.0711008 115.855708,79.0711008 C118.112305,79.0711008 117.684919,79.344658 117.924255,80.2337189 C117.975541,80.4901787 118.026827,80.7466386 118.061018,81.0201958 Z" id="Shape" fill="#FFD3B6" fill-rule="nonzero"></path>
                    <ellipse id="Oval-4" fill="#B0BEC5" fill-rule="evenodd" cx="107.376923" cy="33.5833333" rx="33.6230769" ry="33.5833333"></ellipse>
                    <path d="M99.2206154,37.2666667 L99.2206154,45.3266667 L93.8409231,45.3266667 L93.8409231,37.2666667 L85.4243077,37.2666667 L85.4243077,32.24 L93.8409231,32.24 L93.8409231,24.31 L99.2206154,24.31 L99.2206154,32.24 L107.637231,32.24 L107.637231,37.2666667 L99.2206154,37.2666667 Z M116.184,47.6666667 L116.184,24.6566667 L111.672,27.7766667 L111.672,21.1033333 L116.878154,17.5066667 L122.561538,17.5066667 L122.561538,47.6666667 L116.184,47.6666667 Z" id="+1" fill="#4B4B4B" fill-rule="evenodd"></path>
                    <path d="M102.91447,91.4666606 C102.91447,91.4666606 98.110655,103.024451 94.8112376,110.684052 C94.8112376,110.684052 104.196627,101.588276 110.607412,91.4666606 L102.91447,91.4666606 Z" id="Shape" fill="#FBBC90" fill-rule="nonzero" opacity="0.29"></path>
                    <g id="Group" stroke-width="1" fill-rule="evenodd" transform="translate(105.184335, 91.449563)">
                        <path d="M15.0610711,7.67669836 L3.45327624,7.67669836 C1.55568385,7.67669836 0.0170954269,6.1208419 0.0170954269,4.24013629 L0.0170954269,3.50495137 C0.0170954269,1.59005111 1.57277928,0.0341946475 3.48746709,0.0341946475 L15.0610711,0.0341946475 C16.3090373,0.0341946475 17.3347629,1.06003407 17.3347629,2.30813871 L17.3347629,5.41985163 C17.3347629,6.65085894 16.3090373,7.67669836 15.0610711,7.67669836 Z" id="Shape" fill="#FBBC90" fill-rule="nonzero"></path>
                        <path d="M4.61576527,6.65085894 L3.59003965,6.65085894 C1.98306952,6.65085894 0.649626223,5.40275431 0.649626223,3.86399517 L0.649626223,3.82980052 C0.649626223,2.29104138 1.96597409,1.04293675 3.59003965,1.04293675 L4.61576527,1.04293675 C6.2227354,1.04293675 6.13725826,2.29104138 6.13725826,3.82980052 L6.13725826,3.86399517 C6.15435369,5.40275431 6.23983082,6.65085894 4.61576527,6.65085894 Z" id="Shape" fill="#FFD3B6" fill-rule="nonzero"></path>
                    </g>
                    <g id="Group" stroke-width="1" fill-rule="evenodd" transform="translate(105.355289, 114.359977)">
                        <path d="M14.496922,2.83815574 L14.496922,3.79560587 C14.496922,5.28307304 13.2831467,6.49698303 11.7958446,6.49698303 L3.16265398,6.49698303 C1.48730214,6.49698303 0.136763415,5.12919713 0.136763415,3.47075672 C0.136763415,2.56459856 0.512862807,1.7268297 1.11120275,1.12842337 C1.70954269,0.530017036 2.54721861,0.153875914 3.45327624,0.153875914 L11.7958446,0.153875914 C12.8899519,0.153875914 13.8302004,0.82067154 14.257586,1.76102435 C14.4114449,2.0858735 14.496922,2.46201462 14.496922,2.83815574 Z" id="Shape" fill="#FBBC90" fill-rule="nonzero"></path>
                        <path d="M3.94904362,5.40275431 L3.1113677,5.40275431 C1.7779244,5.40275431 0.683817076,4.47949882 0.683817076,3.33397813 L0.683817076,3.29978348 C0.683817076,2.15426279 1.7779244,1.23100731 3.1113677,1.23100731 L3.94904362,1.23100731 C5.28248692,1.23100731 5.21410521,2.15426279 5.21410521,3.29978348 L5.21410521,3.33397813 C5.21410521,4.47949882 5.29958234,5.40275431 3.94904362,5.40275431 Z" id="Shape" fill="#FFD3B6" fill-rule="nonzero"></path>
                    </g>
                    <g id="Group" stroke-width="1" fill-rule="evenodd" transform="translate(102.790975, 99.143359)">
                        <path d="M19.7281227,3.29978348 L19.7281227,4.4624015 C19.7281227,6.25762049 18.2750114,7.71089301 16.4799915,7.71089301 L3.69261221,7.71089301 C1.67535184,7.71089301 0.0341908538,6.06954993 0.0341908538,4.05206573 C0.0341908538,2.95783701 0.478671953,1.94909491 1.21377531,1.23100731 C1.93178324,0.512919713 2.94041343,0.0512919713 4.03452075,0.0512919713 L16.4799915,0.0512919713 C17.8647211,0.0512919713 19.0443056,0.923255483 19.5058821,2.13716547 C19.6426455,2.49620927 19.7281227,2.88944771 19.7281227,3.29978348 Z" id="Shape" fill="#FBBC90" fill-rule="nonzero"></path>
                        <path d="M4.64995612,6.548275 L3.6242305,6.548275 C2.01726038,6.548275 0.683817076,5.35146233 0.683817076,3.89818982 L0.683817076,3.86399517 C0.683817076,2.41072265 2.00016495,1.21390999 3.6242305,1.21390999 L4.64995612,1.21390999 C6.25692625,1.21390999 6.17144911,2.41072265 6.17144911,3.86399517 L6.17144911,3.89818982 C6.17144911,5.35146233 6.25692625,6.548275 4.64995612,6.548275 Z" id="Shape" fill="#FFD3B6" fill-rule="nonzero"></path>
                    </g>
                    <g id="Group" stroke-width="1" fill-rule="evenodd" transform="translate(102.790975, 106.837155)">
                        <path d="M19.7281227,3.26558884 L19.7281227,4.42820685 C19.7281227,6.22342585 18.2750114,7.67669836 16.4799915,7.67669836 L3.69261221,7.67669836 C1.67535184,7.67669836 0.0341908538,6.03535528 0.0341908538,4.01787108 C0.0341908538,2.92364236 0.478671953,1.91490026 1.21377531,1.19681266 C1.93178324,0.478725065 2.94041343,0.0170973237 4.03452075,0.0170973237 L16.4799915,0.0170973237 C17.6766714,0.0170973237 18.7194925,0.666795626 19.2836416,1.62424576 C19.5571684,2.10297082 19.7281227,2.66718251 19.7281227,3.26558884 Z" id="Shape" fill="#FBBC90" fill-rule="nonzero"></path>
                        <path d="M4.64995612,6.41149641 L3.6242305,6.41149641 C2.01726038,6.41149641 0.683817076,5.26597572 0.683817076,3.86399517 L0.683817076,3.82980052 C0.683817076,2.42781997 2.00016495,1.28229928 3.6242305,1.28229928 L4.64995612,1.28229928 C6.25692625,1.28229928 6.17144911,2.42781997 6.17144911,3.82980052 L6.17144911,3.86399517 C6.17144911,5.26597572 6.25692625,6.41149641 4.64995612,6.41149641 Z" id="Shape" fill="#FFD3B6" fill-rule="nonzero"></path>
                    </g>
                    <path d="M122.296858,101.280524 C120.98051,101.69086 118.826486,101.878931 115.339019,101.314719 C107.440932,100.015322 106.825496,99.1946509 106.825496,99.1946509 L119.270967,99.1946509 C120.638601,99.1946509 121.835281,100.066614 122.296858,101.280524 Z" id="Shape" fill="#FBBC90" fill-rule="nonzero" opacity="0.29"></path>
                    <path d="M122.074617,108.4614 C120.741174,108.820444 118.638436,108.97432 115.356114,108.427206 C111.287403,107.76041 109.150474,107.213296 108.039271,106.854252 L119.270967,106.854252 C120.450551,106.854252 121.510468,107.50395 122.074617,108.4614 Z" id="Shape" fill="#FBBC90" fill-rule="nonzero" opacity="0.29"></path>
                    <path d="M119.612875,116.121001 C118.484577,116.155196 117.065657,116.052612 115.339019,115.761958 C112.347319,115.266135 110.39844,114.838702 109.133379,114.513853 L117.151134,114.513853 C118.245241,114.513853 119.202585,115.180649 119.612875,116.121001 Z" id="Shape" fill="#FBBC90" fill-rule="nonzero" opacity="0.29"></path>
                </g>
                <path d="M211.339748,63 L268.270597,63 C273.914343,78.0942649 277,94.4367855 277,111.5 C277,187.991438 214.991438,250 138.5,250 C62.0085622,250 0,187.991438 0,111.5 C0,94.4367855 3.08565746,78.0942649 8.72941164,62.9999989 L65.6602517,63 C56.3987787,76.8816581 51,93.5603529 51,111.5 C51,159.824916 90.1750844,199 138.5,199 C186.824916,199 226,159.824916 226,111.5 C226,93.5603529 220.601221,76.8816581 211.339748,63 Z" id="Combined-Shape" fill="#FFFFFF" fill-rule="nonzero"></path>
            </g>
        </g>
    </g>
</svg>