<?xml version="1.0" encoding="utf-8"?>
<!-- Generator: Adobe Illustrator 21.0.1, SVG Export Plug-In . SVG Version: 6.00 Build 0)  -->
<svg version="1.1" id="Capa_1" xmlns="http://www.w3.org/2000/svg" xmlns:xlink="http://www.w3.org/1999/xlink" x="0px" y="0px"
	 viewBox="0 0 480 480" style="enable-background:new 0 0 480 480;" xml:space="preserve">
<style type="text/css">
	.st0{fill:#F70000;}
</style>
<g id="cross">
	<path class="st0" d="M310.2,236l103.3-103.3c5-5,5-13.2,0-18.3l-54.7-54.7c-5-5-13.2-5-18.2,0L237.2,163L133.9,59.8
		c-5-5-13.2-5-18.2,0L61,114.5c-5,5-5,13.2,0,18.3L164.3,236L61,339.3c-5,5-5,13.2,0,18.3l54.7,54.7c5,5,13.2,5,18.2,0L237.2,309
		l103.3,103.3c5,5,13.2,5,18.2,0l54.7-54.7c5-5,5-13.2,0-18.3L310.2,236z"/>
</g>
</svg>
