<?xml version="1.0" encoding="utf-8"?>
<!-- Generator: Adobe Illustrator 16.0.0, SVG Export Plug-In . SVG Version: 6.00 Build 0)  -->
<!DOCTYPE svg PUBLIC "-//W3C//DTD SVG 1.1//EN" "http://www.w3.org/Graphics/SVG/1.1/DTD/svg11.dtd">
<svg version="1.1" id="Layer_1" xmlns="http://www.w3.org/2000/svg" xmlns:xlink="http://www.w3.org/1999/xlink" x="0px" y="0px"
	 width="277px" height="250px" viewBox="0 0 277 250" enable-background="new 0 0 277 250" xml:space="preserve">
<title>+1 ART</title>
<desc>Created with Sketch.</desc>
<g>
	<g>
		<defs>
			<circle id="Mask_1_" cx="138.499" cy="139.885" r="109.12"/>
		</defs>
		<clipPath id="Mask_2_">
			<use xlink:href="#Mask_1_"  overflow="visible"/>
		</clipPath>
		<g id="Screens" clip-path="url(#Mask_2_)">
			<g id="_x30_0-WALKTHROUGH-2" transform="translate(-42.000000, -96.000000)">
				<g id="_x2B_1-ART" transform="translate(42.000000, 96.000000)">
					<circle id="Mask" fill="#4400FF" fill-opacity="0.1" cx="138.398" cy="139.885" r="109.12"/>
					<g id="Illustration-Hand-Sign-Right" transform="translate(138.000000, 10.000000)">
						<path id="Shape" fill="#FBBC90" d="M29.082,73.501l-1.474-4.33c0,0-1.829,1.692-7.064,0.682
							c-2.564-0.485-3.289-2.702-3.117-4.382c0.024-0.21,0.051-0.407,0.104-0.591c0.17-0.669-0.158-0.892,1.592-0.892
							c1.263,0,2.421,0.196,4.945-0.303c0.04-0.013,0.08-0.013,0.12-0.025c4.287-0.879,8.59-0.879,11.719,0
							c3.131,0.879,8.513,9.802,8.525,9.827v17.24c0,2.94-2.38,5.315-5.328,5.315H17.292V73.501H29.082z"/>
						<rect id="Rectangle-path" x="44.433" y="72.595" fill="#B8A13B" width="3.67" height="21.716"/>
						<rect id="Rectangle-path_1_" x="48.103" y="72.097" fill="#FDD835" width="60.169" height="23.972"/>
						<path id="Shape_1_" fill="#424242" d="M29.82,18.887v82.738c0,0.796-0.423,1.447-0.938,1.447h-4.798
							c-0.519,0-0.94-0.651-0.94-1.447V18.887c0-0.796,0.422-1.447,0.94-1.447h4.798C29.397,17.439,29.82,18.091,29.82,18.887z"/>
						<ellipse id="Oval-4" fill="#B0BEC5" cx="26.482" cy="29.079" rx="25.872" ry="25.773"/>
						<path id="Shape_2_" fill="#FBBC90" d="M29.082,73.501l-1.474-4.33c0,0-1.829,1.692-7.064,0.682
							c-2.564-0.485-3.289-2.702-3.117-4.382c0.024-0.21,0.051-0.407,0.104-0.591c0.17-0.669-0.158-0.892,1.592-0.892
							c1.263,0,2.421,0.196,4.945-0.303c0.04-0.013,0.08-0.013,0.12-0.025c4.287-0.879,8.59-0.879,11.719,0
							c3.131,0.879,8.513,9.802,8.525,9.827l0,0v17.24c0,2.94-2.38,5.315-5.328,5.315L29.082,73.501z"/>
						<path id="Shape_3_" fill="#FFD3B6" d="M17.427,65.483c0.223,0.158,0.484,0.249,0.789,0.249h4.67
							c0.749,0,1.369-0.616,1.369-1.364c0-0.249-0.066-0.472-0.187-0.683c-2.524,0.499-3.683,0.303-4.945,0.303
							c-1.737,0-1.408,0.21-1.592,0.892C17.493,65.076,17.451,65.273,17.427,65.483z"/>
						<path id="Shape_4_" opacity="0.29" fill="#FBBC90" enable-background="new    " d="M29.082,73.501
							c0,0,3.696,8.869,6.234,14.748c0,0-7.222-6.981-12.154-14.748H29.082z"/>
						<path id="_x2B_1" fill="#4B4B4B" d="M20.207,31.905v6.187h-4.142v-6.187H9.589v-3.857h6.477v-6.086h4.142v6.086h6.476v3.857
							H20.207z M33.259,39.887V22.229l-3.472,2.395v-5.121l4.005-2.761h4.375v23.146H33.259z"/>
						
							<g id="Group" transform="translate(16.414697, 58.754021) scale(-1, 1) translate(-16.414697, -58.754021) translate(10.730366, 56.276654)">
							<path id="Shape_5_" fill="#FBBC90" d="M6.353,23.102h-8.931c-1.46,0-2.645-1.193-2.645-2.638v-0.563
								c0-1.471,1.196-2.664,2.671-2.664h8.904c0.961,0,1.75,0.788,1.75,1.745v2.388C8.103,22.315,7.314,23.102,6.353,23.102z"/>
							<path id="Shape_6_" fill="#FFD3B6" d="M-1.684,22.315h-0.789c-1.236,0-2.263-0.958-2.263-2.139v-0.027
								c0-1.181,1.015-2.138,2.263-2.138h0.789c1.237,0,1.172,0.957,1.172,2.138v0.027C-0.5,21.357-0.434,22.315-1.684,22.315z"/>
						</g>
						
							<g id="Group_1_" transform="translate(17.375026, 72.498827) scale(-1, 1) translate(-17.375026, -72.498827) translate(12.756508, 70.375371)">
							<path id="Shape_7_" fill="#FBBC90" d="M5.945,22.873v0.734c0,1.143-0.932,2.073-2.076,2.073h-6.644
								c-1.29,0-2.329-1.05-2.329-2.322c0-0.695,0.289-1.338,0.749-1.798c0.462-0.459,1.106-0.747,1.803-0.747h6.421
								c0.841,0,1.563,0.511,1.895,1.232C5.879,22.296,5.945,22.584,5.945,22.873z"/>
							<path id="Shape_8_" fill="#FFD3B6" d="M-2.171,24.84h-0.645c-1.025,0-1.868-0.708-1.868-1.587v-0.026
								c0-0.88,0.843-1.588,1.868-1.588h0.645c1.024,0,0.974,0.708,0.974,1.588v0.026C-1.197,24.132-1.13,24.84-2.171,24.84z"/>
						</g>
						
							<g id="Group_2_" transform="translate(17.180909, 63.488664) scale(-1, 1) translate(-17.180909, -63.488664) translate(10.786038, 61.011298)">
							<path id="Shape_9_" fill="#FBBC90" d="M9.58,20.913v0.894c0,1.377-1.118,2.492-2.5,2.492h-9.837
								c-1.554,0-2.816-1.26-2.816-2.808c0-0.84,0.341-1.614,0.908-2.165c0.552-0.551,1.328-0.905,2.171-0.905H7.08
								c1.066,0,1.974,0.669,2.33,1.601C9.513,20.296,9.58,20.598,9.58,20.913z"/>
							<path id="Shape_10_" fill="#FFD3B6" d="M-2.023,23.406h-0.79c-1.234,0-2.262-0.918-2.262-2.033v-0.026
								c0-1.115,1.014-2.034,2.262-2.034h0.79c1.236,0,1.171,0.919,1.171,2.034v0.026C-0.852,22.488-0.787,23.406-2.023,23.406z"/>
						</g>
						
							<g id="Group_3_" transform="translate(17.180909, 68.223308) scale(-1, 1) translate(-17.180909, -68.223308) translate(10.786038, 65.745941)">
							<path id="Shape_11_" fill="#FBBC90" d="M9.58,22.057v0.893c0,1.378-1.118,2.493-2.5,2.493h-9.837
								c-1.554,0-2.816-1.261-2.816-2.809c0-0.84,0.341-1.613,0.908-2.165c0.552-0.551,1.328-0.905,2.171-0.905H7.08
								c0.922,0,1.724,0.499,2.158,1.233C9.448,21.164,9.58,21.598,9.58,22.057z"/>
							<path id="Shape_12_" fill="#FFD3B6" d="M-2.023,24.471h-0.79c-1.234,0-2.262-0.879-2.262-1.954v-0.027
								c0-1.075,1.014-1.954,2.262-1.954h0.79c1.236,0,1.171,0.879,1.171,1.954v0.027C-0.852,23.592-0.787,24.471-2.023,24.471z"/>
						</g>
						<path id="Shape_13_" opacity="0.29" fill="#FBBC90" enable-background="new    " d="M14.166,81.032
							c1.014,0.315,2.672,0.459,5.354,0.026c6.078-0.997,6.55-1.627,6.55-1.627h-9.574C15.442,79.432,14.522,80.101,14.166,81.032z"
							/>
						<path id="Shape_14_" opacity="0.29" fill="#FBBC90" enable-background="new    " d="M14.338,86.543
							c1.026,0.276,2.643,0.394,5.168-0.025c3.134-0.513,4.776-0.932,5.631-1.208h-8.641C15.587,85.31,14.772,85.809,14.338,86.543z
							"/>
						<path id="Shape_15_" opacity="0.29" fill="#FBBC90" enable-background="new    " d="M16.23,92.421
							c0.87,0.026,1.961-0.052,3.29-0.275c2.303-0.38,3.802-0.708,4.775-0.957h-6.171C17.284,91.188,16.547,91.699,16.23,92.421z"/>
					</g>
					<g id="Illustration-Hand-Sign-Left" transform="translate(93.000000, 0.000000)">
						<path id="Shape_16_" fill="#FBBC90" d="M37.81,44.707L38.724,42c0,0,1.135,1.059,4.385,0.427
							c1.593-0.303,2.041-1.689,1.936-2.738c-0.018-0.132-0.034-0.255-0.066-0.369c-0.106-0.418,0.099-0.558-0.987-0.558
							c-0.783,0-1.503,0.123-3.069-0.189c-0.025-0.008-0.05-0.008-0.074-0.016c-2.662-0.55-5.332-0.55-7.274,0
							c-1.943,0.549-5.283,6.125-5.291,6.142v10.775c0,1.838,1.478,3.322,3.307,3.322h13.539V44.707H37.81z"/>
						<path id="Shape_17_" fill="#424242" d="M42.013,10.574v51.71c0,0.497-0.262,0.905-0.583,0.905h-2.979
							c-0.32,0-0.582-0.408-0.582-0.905v-51.71c0-0.499,0.262-0.905,0.582-0.905h2.979C41.751,9.669,42.013,10.075,42.013,10.574z"
							/>
						<rect id="Rectangle-path_2_" x="26.003" y="44.141" fill="#B8A13B" width="2.278" height="13.572"/>
						<rect id="Rectangle-path_3_" x="-11.343" y="43.829" fill="#FDD835" width="37.346" height="14.983"/>
						<path id="Shape_18_" fill="#FBBC90" d="M37.81,44.707L38.724,42c0,0,1.135,1.059,4.385,0.427
							c1.593-0.303,2.041-1.689,1.936-2.738c-0.018-0.132-0.034-0.255-0.066-0.369c-0.106-0.418,0.099-0.558-0.987-0.558
							c-0.783,0-1.503,0.123-3.069-0.189c-0.025-0.008-0.05-0.008-0.074-0.016c-2.662-0.55-5.332-0.55-7.274,0
							c-1.943,0.549-5.283,6.125-5.291,6.142l0,0v10.775c0,1.838,1.478,3.322,3.307,3.322L37.81,44.707z"/>
						<path id="Shape_19_" fill="#FFD3B6" d="M45.044,39.696c-0.141,0.099-0.304,0.155-0.491,0.155h-2.897
							c-0.466,0-0.85-0.385-0.85-0.853c0-0.155,0.041-0.295,0.115-0.427c1.566,0.313,2.286,0.189,3.069,0.189
							c1.078,0,0.873,0.131,0.987,0.558C45.002,39.442,45.026,39.565,45.044,39.696z"/>
						<ellipse id="Oval-4_1_" fill="#B0BEC5" cx="39.941" cy="16.943" rx="16.059" ry="16.108"/>
						<path id="_x2B_1_1_" fill="#4B4B4B" d="M36.045,18.71v3.866h-2.569V18.71h-4.02v-2.411h4.02v-3.804h2.569v3.804h4.021v2.411
							H36.045z M44.147,23.699V12.662l-2.156,1.496v-3.201l2.486-1.726h2.716v14.468H44.147z"/>
						<path id="Shape_20_" opacity="0.29" fill="#FBBC90" enable-background="new    " d="M37.81,44.707c0,0-2.295,5.544-3.87,9.217
							c0,0,4.483-4.362,7.544-9.217H37.81z"/>
						<g id="Group_4_" transform="translate(40.283362, 35.172909)">
							<path id="Shape_21_" fill="#FBBC90" d="M5.803,13.208H0.261c-0.907,0-1.642-0.746-1.642-1.648v-0.353
								c0-0.918,0.743-1.665,1.656-1.665h5.527c0.597,0,1.087,0.492,1.087,1.091v1.492C6.889,12.716,6.399,13.208,5.803,13.208z"/>
							<path id="Shape_22_" fill="#FFD3B6" d="M0.815,12.716H0.324c-0.767,0-1.403-0.599-1.403-1.337v-0.016
								c0-0.738,0.629-1.337,1.403-1.337h0.491c0.767,0,0.726,0.599,0.726,1.337v0.016C1.549,12.117,1.59,12.716,0.815,12.716z"/>
						</g>
						<g id="Group_5_" transform="translate(40.348834, 43.984607)">
							<path id="Shape_23_" fill="#FBBC90" d="M5.551,13.064v0.459c0,0.714-0.581,1.296-1.291,1.296H0.137
								c-0.801,0-1.443-0.655-1.443-1.451c0-0.435,0.178-0.837,0.464-1.124c0.285-0.287,0.685-0.467,1.119-0.467H4.26
								c0.522,0,0.972,0.319,1.177,0.771C5.51,12.704,5.551,12.885,5.551,13.064z"/>
							<path id="Shape_24_" fill="#FFD3B6" d="M0.512,14.295H0.113c-0.639,0-1.16-0.443-1.16-0.992v-0.017
								c0-0.55,0.521-0.992,1.16-0.992h0.399c0.637,0,0.604,0.442,0.604,0.992v0.017C1.117,13.851,1.157,14.295,0.512,14.295z"/>
						</g>
						<g id="Group_6_" transform="translate(39.366757, 38.132061)">
							<path id="Shape_25_" fill="#FBBC90" d="M7.806,11.84v0.559c0,0.86-0.695,1.558-1.551,1.558H0.148
								c-0.964,0-1.748-0.787-1.748-1.756c0-0.524,0.212-1.009,0.564-1.353c0.343-0.345,0.823-0.566,1.347-0.566h5.944
								c0.66,0,1.224,0.419,1.443,1.001C7.764,11.454,7.806,11.642,7.806,11.84z"/>
							<path id="Shape_26_" fill="#FFD3B6" d="M0.605,13.398h-0.49c-0.769,0-1.404-0.574-1.404-1.272V12.11
								c0-0.697,0.629-1.271,1.404-1.271h0.49c0.768,0,0.727,0.573,0.727,1.271v0.016C1.331,12.824,1.372,13.398,0.605,13.398z"/>
						</g>
						<g id="Group_7_" transform="translate(39.366757, 41.091213)">
							<path id="Shape_27_" fill="#FBBC90" d="M7.806,12.554v0.558c0,0.861-0.695,1.559-1.551,1.559H0.148
								c-0.964,0-1.748-0.788-1.748-1.756c0-0.524,0.212-1.008,0.564-1.353c0.343-0.345,0.823-0.565,1.347-0.565h5.944
								c0.569,0,1.068,0.312,1.339,0.771C7.725,11.997,7.806,12.267,7.806,12.554z"/>
							<path id="Shape_28_" fill="#FFD3B6" d="M0.605,14.063h-0.49c-0.769,0-1.404-0.55-1.404-1.222v-0.016
								c0-0.674,0.629-1.223,1.404-1.223h0.49c0.768,0,0.727,0.549,0.727,1.223v0.016C1.331,13.513,1.372,14.063,0.605,14.063z"/>
						</g>
						<path id="Shape_29_" opacity="0.29" fill="#FBBC90" enable-background="new    " d="M47.065,49.414
							c-0.628,0.196-1.657,0.287-3.322,0.017c-3.771-0.623-4.065-1.018-4.065-1.018h5.944
							C46.275,48.413,46.846,48.832,47.065,49.414z"/>
						<path id="Shape_30_" opacity="0.29" fill="#FBBC90" enable-background="new    " d="M46.961,52.858
							c-0.638,0.172-1.643,0.246-3.209-0.017c-1.944-0.319-2.965-0.582-3.495-0.754h5.365C46.185,52.088,46.69,52.399,46.961,52.858
							z"/>
						<path id="Shape_31_" opacity="0.29" fill="#FBBC90" enable-background="new    " d="M45.785,56.532
							c-0.54,0.017-1.217-0.032-2.042-0.172c-1.429-0.238-2.359-0.442-2.963-0.599h3.828C45.131,55.762,45.588,56.081,45.785,56.532
							z"/>
					</g>
					<g id="Illustration-Hand-Sign-Right_1_" transform="translate(153.000000, 52.000000)">
						<path id="Shape_32_" fill="#FBBC90" d="M39.862,101.427l-1.831-5.411c0,0-2.271,2.114-8.767,0.853
							c-3.185-0.606-4.082-3.379-3.872-5.479c0.033-0.263,0.065-0.509,0.132-0.738c0.212-0.837-0.198-1.114,1.977-1.114
							c1.565,0,3.004,0.246,6.14-0.378c0.05-0.017,0.097-0.017,0.146-0.033c5.322-1.101,10.663-1.101,14.551,0
							c3.887,1.1,10.564,12.251,10.58,12.285v21.551c0,3.674-2.955,6.643-6.61,6.643H25.228v-28.178H39.862z"/>
						<rect id="Rectangle-path_4_" x="58.917" y="100.295" fill="#B8A13B" width="4.558" height="27.145"/>
						<rect id="Rectangle-path_5_" x="63.475" y="99.672" fill="#FDD835" width="74.691" height="29.966"/>
						<path id="Shape_33_" fill="#424242" d="M40.78,33.16v103.422c0,0.997-0.527,1.81-1.168,1.81h-5.956
							c-0.643,0-1.167-0.813-1.167-1.81V33.16c0-0.995,0.524-1.81,1.167-1.81h5.956C40.253,31.351,40.78,32.165,40.78,33.16z"/>
						<ellipse id="Oval-4_2_" fill="#B0BEC5" cx="36.634" cy="45.899" rx="32.118" ry="32.216"/>
						<path id="Shape_34_" fill="#FBBC90" d="M39.862,101.427l-1.831-5.411c0,0-2.271,2.114-8.767,0.853
							c-3.185-0.606-4.082-3.379-3.872-5.479c0.033-0.263,0.065-0.509,0.132-0.738c0.212-0.837-0.198-1.114,1.977-1.114
							c1.565,0,3.004,0.246,6.14-0.378c0.05-0.017,0.097-0.017,0.146-0.033c5.322-1.101,10.663-1.101,14.551,0
							c3.887,1.1,10.564,12.251,10.58,12.285l0,0v21.551c0,3.674-2.955,6.643-6.61,6.643L39.862,101.427z"/>
						<path id="Shape_35_" fill="#FFD3B6" d="M25.393,91.406c0.277,0.195,0.604,0.311,0.979,0.311h5.797
							c0.932,0,1.699-0.771,1.699-1.706c0-0.311-0.082-0.589-0.228-0.852c-3.136,0.624-4.574,0.378-6.14,0.378
							c-2.155,0-1.749,0.261-1.977,1.114C25.475,90.898,25.426,91.145,25.393,91.406z"/>
						<path id="Shape_36_" opacity="0.29" fill="#FBBC90" enable-background="new    " d="M39.862,101.427
							c0,0,4.587,11.088,7.74,18.436c0,0-8.967-8.727-15.091-18.436H39.862z"/>
						<path id="_x2B_1_2_" fill="#4B4B4B" d="M28.845,49.433v7.732h-5.139v-7.732h-8.041V44.61h8.041v-7.606h5.139v7.606h8.039
							v4.822H28.845z M45.047,59.41V37.337l-4.31,2.992v-6.401l4.975-3.45h5.426V59.41H45.047z"/>
						
							<g id="Group_8_" transform="translate(20.376865, 73.442526) scale(-1, 1) translate(-20.376865, -73.442526) translate(13.320455, 70.345818)">
							<path id="Shape_37_" fill="#FBBC90" d="M4.128,38.43H-6.961c-1.813,0-3.281-1.492-3.281-3.297v-0.706
								c0-1.837,1.484-3.329,3.313-3.329H4.128c1.189,0,2.171,0.984,2.171,2.182v2.985C6.299,37.445,5.317,38.43,4.128,38.43z"/>
							<path id="Shape_38_" fill="#FFD3B6" d="M-5.851,37.445H-6.83c-1.535,0-2.808-1.197-2.808-2.673v-0.033
								c0-1.477,1.256-2.674,2.808-2.674h0.979c1.536,0,1.453,1.197,1.453,2.674v0.033C-4.38,36.248-4.3,37.445-5.851,37.445z"/>
						</g>
						
							<g id="Group_9_" transform="translate(21.568998, 90.623534) scale(-1, 1) translate(-21.568998, -90.623534) translate(15.835665, 87.969213)">
							<path id="Shape_39_" fill="#FBBC90" d="M3.621,38.143v0.917c0,1.427-1.16,2.592-2.582,2.592h-8.245
								c-1.6,0-2.89-1.313-2.89-2.903c0-0.869,0.358-1.674,0.93-2.246c0.572-0.574,1.373-0.935,2.238-0.935h7.967
								c1.046,0,1.946,0.64,2.353,1.542C3.539,37.42,3.621,37.782,3.621,38.143z"/>
							<path id="Shape_40_" fill="#FFD3B6" d="M-6.454,40.602h-0.801c-1.272,0-2.319-0.885-2.319-1.985v-0.031
								c0-1.099,1.047-1.984,2.319-1.984h0.801c1.274,0,1.209,0.886,1.209,1.984v0.031C-5.246,39.717-5.165,40.602-6.454,40.602z"/>
						</g>
						
							<g id="Group_10_" transform="translate(21.328025, 79.360830) scale(-1, 1) translate(-21.328025, -79.360830) translate(13.389564, 76.264122)">
							<path id="Shape_41_" fill="#FBBC90" d="M8.132,35.693v1.116c0,1.722-1.388,3.115-3.103,3.115H-7.186
								c-1.927,0-3.495-1.574-3.495-3.511c0-1.049,0.426-2.017,1.127-2.705c0.686-0.689,1.651-1.132,2.695-1.132H5.029
								c1.322,0,2.448,0.837,2.891,2.001C8.051,34.92,8.132,35.298,8.132,35.693z"/>
							<path id="Shape_42_" fill="#FFD3B6" d="M-6.272,38.808h-0.979c-1.535,0-2.808-1.146-2.808-2.541v-0.034
								c0-1.393,1.257-2.542,2.808-2.542h0.979c1.535,0,1.453,1.149,1.453,2.542v0.034C-4.818,37.662-4.736,38.808-6.272,38.808z"/>
						</g>
						
							<g id="Group_11_" transform="translate(21.328025, 85.279134) scale(-1, 1) translate(-21.328025, -85.279134) translate(13.389564, 82.182427)">
							<path id="Shape_43_" fill="#FBBC90" d="M8.132,37.121v1.116c0,1.722-1.388,3.117-3.103,3.117H-7.186
								c-1.927,0-3.495-1.575-3.495-3.511c0-1.05,0.426-2.018,1.127-2.706c0.686-0.688,1.651-1.132,2.695-1.132H5.029
								c1.144,0,2.141,0.623,2.678,1.541C7.968,36.008,8.132,36.549,8.132,37.121z"/>
							<path id="Shape_44_" fill="#FFD3B6" d="M-6.272,40.14h-0.979c-1.535,0-2.808-1.099-2.808-2.444v-0.031
								c0-1.346,1.257-2.444,2.808-2.444h0.979c1.535,0,1.453,1.099,1.453,2.444v0.031C-4.818,39.041-4.736,40.14-6.272,40.14z"/>
						</g>
						<path id="Shape_45_" opacity="0.29" fill="#FBBC90" enable-background="new    " d="M21.347,110.842
							c1.257,0.394,3.314,0.573,6.646,0.032c7.545-1.245,8.132-2.033,8.132-2.033H24.237
							C22.931,108.841,21.789,109.678,21.347,110.842z"/>
						<path id="Shape_46_" opacity="0.29" fill="#FBBC90" enable-background="new    " d="M21.56,117.729
							c1.273,0.345,3.282,0.492,6.418-0.031c3.885-0.641,5.927-1.165,6.987-1.51H24.237C23.11,116.188,22.097,116.812,21.56,117.729
							z"/>
						<path id="Shape_47_" opacity="0.29" fill="#FBBC90" enable-background="new    " d="M23.911,125.079
							c1.077,0.03,2.432-0.066,4.082-0.345c2.857-0.478,4.719-0.886,5.928-1.197h-7.657
							C25.218,123.537,24.302,124.177,23.911,125.079z"/>
					</g>
					<g id="Illustration-Hand-Sign-Left_1_" transform="translate(24.000000, 30.000000)">
						<path id="Shape_48_" fill="#FBBC90" d="M50.799,78.442l1.473-4.33c0,0,1.829,1.693,7.064,0.683
							c2.565-0.485,3.289-2.703,3.117-4.383c-0.026-0.21-0.052-0.406-0.105-0.591c-0.171-0.669,0.158-0.892-1.591-0.892
							c-1.264,0-2.421,0.197-4.946-0.303c-0.04-0.013-0.079-0.013-0.118-0.025c-4.289-0.879-8.591-0.879-11.722,0
							c-3.13,0.879-8.511,9.802-8.523,9.828v17.241c0,2.939,2.38,5.313,5.328,5.313h21.813V78.442H50.799z"/>
						<path id="Shape_49_" fill="#424242" d="M57.569,23.829v82.736c0,0.798-0.422,1.449-0.938,1.449h-4.798
							c-0.516,0-0.938-0.651-0.938-1.449V23.829c0-0.797,0.423-1.447,0.938-1.447h4.798C57.147,22.382,57.569,23.032,57.569,23.829z
							"/>
						<rect id="Rectangle-path_6_" x="31.777" y="77.537" fill="#B8A13B" width="3.67" height="21.716"/>
						<rect id="Rectangle-path_7_" x="-28.392" y="77.038" fill="#FDD835" width="60.169" height="23.974"/>
						<path id="Shape_50_" fill="#FBBC90" d="M50.799,78.442l1.473-4.33c0,0,1.829,1.693,7.064,0.683
							c2.565-0.485,3.289-2.703,3.117-4.383c-0.026-0.21-0.052-0.406-0.105-0.591c-0.171-0.669,0.158-0.892-1.591-0.892
							c-1.264,0-2.421,0.197-4.946-0.303c-0.04-0.013-0.079-0.013-0.118-0.025c-4.289-0.879-8.591-0.879-11.722,0
							c-3.13,0.879-8.511,9.802-8.523,9.828l0,0v17.241c0,2.939,2.38,5.313,5.328,5.313L50.799,78.442z"/>
						<path id="Shape_51_" fill="#FFD3B6" d="M62.453,70.425c-0.224,0.158-0.486,0.25-0.789,0.25h-4.669
							c-0.751,0-1.368-0.617-1.368-1.364c0-0.25,0.065-0.473,0.184-0.684c2.525,0.5,3.683,0.303,4.946,0.303
							c1.735,0,1.407,0.21,1.591,0.892C62.388,70.019,62.427,70.216,62.453,70.425z"/>
						<ellipse id="Oval-4_3_" fill="#B0BEC5" cx="54.232" cy="34.021" rx="25.871" ry="25.773"/>
						<path id="_x2B_1_3_" fill="#4B4B4B" d="M47.956,36.847v6.187h-4.14v-6.187H37.34v-3.857h6.477v-6.085h4.14v6.085h6.476v3.857
							H47.956z M61.01,44.829V27.17l-3.473,2.395v-5.121l4.006-2.761h4.374v23.146H61.01z"/>
						<path id="Shape_52_" opacity="0.29" fill="#FBBC90" enable-background="new    " d="M50.799,78.442
							c0,0-3.697,8.869-6.235,14.748c0,0,7.222-6.98,12.153-14.748H50.799z"/>
						<g id="Group_12_" transform="translate(64.900973, 56.276654)">
							<path id="Shape_53_" fill="#FBBC90" d="M-0.767,28.044h-8.932c-1.46,0-2.644-1.193-2.644-2.638v-0.563
								c0-1.47,1.197-2.663,2.67-2.663h8.905c0.96,0,1.75,0.787,1.75,1.745v2.388C0.983,27.257,0.193,28.044-0.767,28.044z"/>
							<path id="Shape_54_" fill="#FFD3B6" d="M-8.804,27.257h-0.789c-1.237,0-2.263-0.957-2.263-2.139v-0.026
								c0-1.181,1.013-2.139,2.263-2.139h0.789c1.236,0,1.171,0.958,1.171,2.139v0.026C-7.621,26.3-7.554,27.257-8.804,27.257z"/>
						</g>
						<g id="Group_13_" transform="translate(65.006455, 70.375371)">
							<path id="Shape_55_" fill="#FBBC90" d="M-1.175,27.815v0.734c0,1.142-0.934,2.072-2.078,2.072h-6.643
								c-1.289,0-2.329-1.05-2.329-2.321c0-0.696,0.289-1.34,0.75-1.798c0.461-0.46,1.105-0.748,1.803-0.748h6.419
								c0.842,0,1.565,0.513,1.895,1.233C-1.241,27.237-1.175,27.526-1.175,27.815z"/>
							<path id="Shape_56_" fill="#FFD3B6" d="M-9.292,29.783h-0.644c-1.026,0-1.869-0.709-1.869-1.587V28.17
								c0-0.88,0.843-1.589,1.869-1.589h0.644c1.026,0,0.974,0.709,0.974,1.589v0.026C-8.318,29.074-8.253,29.783-9.292,29.783z"/>
						</g>
						<g id="Group_14_" transform="translate(63.424219, 61.011298)">
							<path id="Shape_57_" fill="#FBBC90" d="M2.46,25.855v0.893c0,1.378-1.118,2.492-2.499,2.492h-9.84
								c-1.552,0-2.815-1.259-2.815-2.808c0-0.84,0.343-1.613,0.908-2.165c0.553-0.551,1.328-0.905,2.17-0.905h9.577
								c1.065,0,1.973,0.669,2.328,1.601C2.394,25.238,2.46,25.539,2.46,25.855z"/>
							<path id="Shape_58_" fill="#FFD3B6" d="M-9.142,28.348h-0.79c-1.236,0-2.263-0.919-2.263-2.034v-0.026
								c0-1.115,1.012-2.033,2.263-2.033h0.79c1.235,0,1.17,0.918,1.17,2.033v0.026C-7.972,27.429-7.907,28.348-9.142,28.348z"/>
						</g>
						<g id="Group_15_" transform="translate(63.424219, 65.745941)">
							<path id="Shape_59_" fill="#FBBC90" d="M2.46,26.998v0.893c0,1.377-1.118,2.493-2.499,2.493h-9.84
								c-1.552,0-2.815-1.26-2.815-2.809c0-0.839,0.343-1.613,0.908-2.164c0.553-0.552,1.328-0.906,2.17-0.906h9.577
								c0.921,0,1.723,0.499,2.157,1.233C2.328,26.106,2.46,26.539,2.46,26.998z"/>
							<path id="Shape_60_" fill="#FFD3B6" d="M-9.142,29.413h-0.79c-1.236,0-2.263-0.88-2.263-1.955v-0.027
								c0-1.075,1.012-1.954,2.263-1.954h0.79c1.235,0,1.17,0.879,1.17,1.954v0.027C-7.972,28.533-7.907,29.413-9.142,29.413z"/>
						</g>
						<path id="Shape_61_" opacity="0.29" fill="#FBBC90" enable-background="new    " d="M65.713,85.974
							c-1.013,0.315-2.67,0.459-5.354,0.027c-6.076-0.998-6.551-1.628-6.551-1.628h9.577C64.437,84.373,65.357,85.042,65.713,85.974
							z"/>
						<path id="Shape_62_" opacity="0.29" fill="#FBBC90" enable-background="new    " d="M65.542,91.484
							c-1.026,0.276-2.645,0.394-5.17-0.025c-3.131-0.512-4.775-0.932-5.63-1.208h8.643C64.291,90.251,65.107,90.75,65.542,91.484z"
							/>
						<path id="Shape_63_" opacity="0.29" fill="#FBBC90" enable-background="new    " d="M63.647,97.363
							c-0.868,0.027-1.961-0.053-3.289-0.275c-2.301-0.38-3.801-0.709-4.775-0.958h6.17C62.595,96.13,63.332,96.643,63.647,97.363z"
							/>
					</g>
					<g id="Illustration-Hand-Sign-Left_2_" transform="translate(30.000000, 65.000000)">
						<path id="Shape_64_" fill="#FBBC90" d="M101.434,130.962l2.388-7.037c0,0,2.964,2.753,11.449,1.109
							c4.155-0.789,5.329-4.393,5.052-7.121c-0.042-0.341-0.085-0.661-0.172-0.959c-0.276-1.088,0.255-1.45-2.579-1.45
							c-2.045,0-3.924,0.32-8.016-0.49c-0.063-0.021-0.127-0.021-0.192-0.043c-6.949-1.429-13.921-1.429-18.994,0
							c-5.074,1.429-13.794,15.929-13.815,15.97v28.018c0,4.775,3.859,8.635,8.635,8.635h35.353v-36.631H101.434z"/>
						<path id="Shape_65_" fill="#424242" d="M112.408,42.216v134.448c0,1.293-0.685,2.353-1.522,2.353h-7.775
							c-0.837,0-1.521-1.06-1.521-2.353V42.216c0-1.294,0.685-2.354,1.521-2.354h7.775
							C111.724,39.862,112.408,40.922,112.408,42.216z"/>
						<rect id="Rectangle-path_8_" x="70.605" y="129.491" fill="#B8A13B" width="5.948" height="35.287"/>
						<rect id="Rectangle-path_9_" x="-26.909" y="128.68" fill="#FDD835" width="97.515" height="38.956"/>
						<path id="Shape_66_" fill="#FBBC90" d="M101.434,130.962l2.388-7.037c0,0,2.964,2.753,11.449,1.109
							c4.155-0.789,5.329-4.393,5.052-7.121c-0.042-0.341-0.085-0.661-0.172-0.959c-0.276-1.088,0.255-1.45-2.579-1.45
							c-2.045,0-3.924,0.32-8.016-0.49c-0.063-0.021-0.127-0.021-0.192-0.043c-6.949-1.429-13.921-1.429-18.994,0
							c-5.074,1.429-13.794,15.929-13.815,15.97l0,0v28.018c0,4.775,3.859,8.635,8.635,8.635L101.434,130.962z"/>
						<path id="Shape_67_" fill="#FFD3B6" d="M120.322,117.934c-0.363,0.258-0.789,0.407-1.279,0.407h-7.567
							c-1.216,0-2.218-1.003-2.218-2.22c0-0.403,0.105-0.767,0.298-1.107c4.092,0.811,5.971,0.49,8.016,0.49
							c2.814,0,2.283,0.342,2.579,1.45C120.215,117.273,120.28,117.593,120.322,117.934z"/>
						<ellipse id="Oval-4_4_" fill="#B0BEC5" cx="106.998" cy="58.776" rx="41.931" ry="41.881"/>
						<path id="_x2B_1_4_" fill="#4B4B4B" d="M96.828,63.37v10.052h-6.71V63.37H79.622v-6.269h10.496v-9.89h6.71v9.89h10.493v6.269
							H96.828z M117.979,76.339V47.645l-5.626,3.891v-8.321l6.492-4.485h7.089v37.61H117.979z"/>
						<path id="Shape_68_" opacity="0.29" fill="#FBBC90" enable-background="new    " d="M101.434,130.962
							c0,0-5.991,14.414-10.105,23.965c0,0,11.705-11.342,19.699-23.965H101.434z"/>
						<g id="Group_16_" transform="translate(105.184335, 91.449563)">
							<path id="Shape_69_" fill="#FBBC90" d="M17.862,49.066H3.386c-2.365,0-4.284-1.942-4.284-4.287v-0.916
								c0-2.39,1.939-4.328,4.326-4.328h14.434c1.557,0,2.836,1.279,2.836,2.835v3.881C20.698,47.786,19.418,49.066,17.862,49.066z"
								/>
							<path id="Shape_70_" fill="#FFD3B6" d="M4.836,47.786H3.558c-2.005,0-3.668-1.556-3.668-3.476v-0.043
								c0-1.92,1.642-3.476,3.668-3.476h1.278c2.003,0,1.898,1.556,1.898,3.476v0.043C6.754,46.23,6.861,47.786,4.836,47.786z"/>
						</g>
						<g id="Group_17_" transform="translate(105.355289, 114.359977)">
							<path id="Shape_71_" fill="#FBBC90" d="M17.199,48.693v1.193c0,1.854-1.512,3.368-3.367,3.368H3.066
								c-2.089,0-3.773-1.706-3.773-3.774c0-1.129,0.47-2.175,1.216-2.921c0.745-0.744,1.791-1.216,2.92-1.216h10.404
								c1.363,0,2.537,0.833,3.07,2.005C17.094,47.753,17.199,48.222,17.199,48.693z"/>
							<path id="Shape_72_" fill="#FFD3B6" d="M4.047,51.89H3.001c-1.662,0-3.026-1.151-3.026-2.581v-0.041
								c0-1.43,1.364-2.58,3.026-2.58h1.046c1.661,0,1.578,1.15,1.578,2.58v0.041C5.625,50.739,5.73,51.89,4.047,51.89z"/>
						</g>
						<g id="Group_18_" transform="translate(102.790975, 99.143359)">
							<path id="Shape_73_" fill="#FBBC90" d="M23.091,45.508v1.449c0,2.238-1.813,4.051-4.051,4.051H3.093
								c-2.516,0-4.563-2.046-4.563-4.562c0-1.365,0.555-2.624,1.472-3.518c0.896-0.897,2.153-1.472,3.518-1.472H19.04
								c1.728,0,3.198,1.086,3.772,2.602C22.983,44.505,23.091,44.996,23.091,45.508z"/>
							<path id="Shape_74_" fill="#FFD3B6" d="M4.287,49.558H3.008c-2.004,0-3.667-1.492-3.667-3.305v-0.042
								c0-1.812,1.642-3.306,3.667-3.306h1.279c2.004,0,1.897,1.494,1.897,3.306v0.042C6.185,48.066,6.291,49.558,4.287,49.558z"/>
						</g>
						<g id="Group_19_" transform="translate(102.790975, 106.837155)">
							<path id="Shape_75_" fill="#FBBC90" d="M23.091,47.366v1.45c0,2.238-1.813,4.05-4.051,4.05H3.093
								c-2.516,0-4.563-2.045-4.563-4.561c0-1.366,0.555-2.624,1.472-3.52c0.896-0.896,2.153-1.472,3.518-1.472H19.04
								c1.493,0,2.792,0.811,3.497,2.004C22.877,45.915,23.091,46.619,23.091,47.366z"/>
							<path id="Shape_76_" fill="#FFD3B6" d="M4.287,51.289H3.008c-2.004,0-3.667-1.429-3.667-3.177v-0.043
								c0-1.747,1.642-3.177,3.667-3.177h1.279c2.004,0,1.897,1.43,1.897,3.177v0.043C6.185,49.86,6.291,51.289,4.287,51.289z"/>
						</g>
						<path id="Shape_77_" opacity="0.29" fill="#FBBC90" enable-background="new    " d="M125.604,143.2
							c-1.641,0.513-4.328,0.746-8.677,0.044c-9.849-1.621-10.616-2.644-10.616-2.644h15.521
							C123.536,140.601,125.029,141.687,125.604,143.2z"/>
						<path id="Shape_78_" opacity="0.29" fill="#FBBC90" enable-background="new    " d="M125.328,152.155
							c-1.664,0.448-4.285,0.641-8.38-0.042c-5.073-0.832-7.739-1.515-9.125-1.962h14.008
							C123.304,150.151,124.623,150.962,125.328,152.155z"/>
						<path id="Shape_79_" opacity="0.29" fill="#FBBC90" enable-background="new    " d="M122.258,161.708
							c-1.408,0.043-3.178-0.085-5.331-0.447c-3.729-0.619-6.16-1.151-7.738-1.558h9.999
							C120.551,159.703,121.747,160.536,122.258,161.708z"/>
					</g>
				</g>
			</g>
		</g>
	</g>
	<g>
		<ellipse id="Oval-4_5_" fill="#B0BEC5" cx="78.152" cy="63.94" rx="25.871" ry="25.773"/>
		<path id="_x2B_1_5_" fill="#4B4B4B" d="M71.876,66.767v6.186h-4.14v-6.186H61.26v-3.858h6.477v-6.085h4.14v6.085h6.476v3.858
			H71.876z M84.929,74.748V57.09l-3.472,2.394v-5.121l4.006-2.76h4.373v23.146H84.929z"/>
	</g>
	<g>
		<ellipse id="Oval-4_7_" fill="#B0BEC5" cx="132.941" cy="17.104" rx="16.059" ry="16.108"/>
		<path id="_x2B_1_7_" fill="#4B4B4B" d="M129.045,18.87v3.866h-2.569V18.87h-4.02v-2.411h4.02v-3.804h2.569v3.804h4.021v2.411
			H129.045z M137.147,23.858V12.821l-2.156,1.497v-3.201l2.486-1.726h2.716v14.467H137.147z"/>
	</g>
	<g>
		<ellipse id="Oval-4_6_" fill="#B0BEC5" cx="164.452" cy="39.088" rx="25.874" ry="25.773"/>
		<path id="_x2B_1_6_" fill="#4B4B4B" d="M158.177,41.915v6.186h-4.14v-6.186h-6.477v-3.858h6.477v-6.086h4.14v6.086h6.477v3.858
			H158.177z M171.229,49.896V32.237l-3.472,2.394V29.51l4.005-2.76h4.375v23.146H171.229z"/>
	</g>
</g>
</svg>
